<svg width="32" height="24" viewBox="0 0 32 24" fill="none" xmlns="http://www.w3.org/2000/svg">
<path d="M21.25 9.5C21.25 10.7422 20.2422 11.75 19 11.75C18.3906 11.75 17.8281 11.5156 17.4297 11.1406L15.2266 12.2422C15.2266 12.3125 15.2266 12.4062 15.2266 12.5C15.2266 12.5938 15.2266 12.6875 15.2266 12.7812L17.4297 13.8828C17.8281 13.5078 18.3906 13.25 19 13.25C20.2422 13.25 21.25 14.2578 21.25 15.5C21.25 16.7422 20.2422 17.75 19 17.75C17.7344 17.75 16.75 16.7422 16.75 15.5C16.75 15.4062 16.75 15.3125 16.75 15.2422L14.5469 14.1406C14.1484 14.5156 13.5859 14.75 13 14.75C11.7344 14.75 10.75 13.7422 10.75 12.5C10.75 11.2578 11.7344 10.25 13 10.25C13.5859 10.25 14.1484 10.5078 14.5469 10.8828L16.75 9.78125C16.75 9.6875 16.75 9.59375 16.75 9.5C16.75 8.25781 17.7344 7.25 19 7.25C20.2422 7.25 21.25 8.25781 21.25 9.5ZM12.9766 13.25C13.3984 13.25 13.7266 12.9219 13.7266 12.5C13.7266 12.1016 13.3984 11.75 12.9766 11.75C12.5781 11.75 12.2266 12.1016 12.2266 12.5C12.2266 12.9219 12.5781 13.25 12.9766 13.25ZM19 8.75C18.5781 8.75 18.25 9.10156 18.25 9.5C18.25 9.92188 18.5781 10.25 19 10.25C19.3984 10.25 19.75 9.92188 19.75 9.5C19.75 9.10156 19.3984 8.75 19 8.75ZM19 16.25C19.3984 16.25 19.75 15.9219 19.75 15.5C19.75 15.1016 19.3984 14.75 19 14.75C18.5781 14.75 18.25 15.1016 18.25 15.5C18.25 15.9219 18.5781 16.25 19 16.25Z" fill="#6951AB"/>
</svg>
