<svg width="40" height="36" viewBox="0 0 40 36" fill="none" xmlns="http://www.w3.org/2000/svg">
<path d="M26 2.50309V33.495C26 35.653 23.452 36.797 21.84 35.363L12.856 27.375C12.5814 27.1314 12.2271 26.9969 11.86 26.997H4.5C3.90905 26.997 3.32389 26.8806 2.77792 26.6545C2.23196 26.4283 1.73588 26.0968 1.31802 25.679C0.900155 25.2611 0.568688 24.765 0.342542 24.2191C0.116396 23.6731 0 23.088 0 22.497V13.501C0.000530279 12.3079 0.47487 11.1639 1.31873 10.3204C2.16258 9.4769 3.30687 9.00307 4.5 9.00307H11.86C12.2273 9.00263 12.5817 8.86741 12.856 8.62307L21.838 0.637101C23.452 -0.796893 26 0.347103 26 2.50309ZM33.984 5.79908C34.3036 5.56229 34.7041 5.46213 35.0976 5.52064C35.491 5.57915 35.8451 5.79153 36.082 6.11108C38.6327 9.5514 40.0067 13.7223 40 18.005C40.0055 22.2873 38.6309 26.4574 36.08 29.897C35.8407 30.2098 35.4879 30.4159 35.0979 30.4709C34.7079 30.5258 34.312 30.4252 33.9955 30.1907C33.6791 29.9562 33.4676 29.6066 33.4067 29.2175C33.3458 28.8284 33.4403 28.431 33.67 28.111C35.838 25.1882 37.0058 21.6442 37 18.005C37.0062 14.3652 35.8384 10.8204 33.67 7.89707C33.5525 7.73864 33.4675 7.55859 33.4197 7.36725C33.3719 7.1759 33.3623 6.97701 33.3915 6.78196C33.4206 6.5869 33.488 6.39951 33.5896 6.23052C33.6913 6.06152 33.8253 5.91623 33.984 5.79908ZM30.286 10.7431C30.4592 10.6491 30.6492 10.5902 30.8452 10.5697C31.0411 10.5493 31.2392 10.5676 31.4281 10.6237C31.617 10.6798 31.793 10.7725 31.946 10.8966C32.099 11.0208 32.2261 11.1738 32.32 11.3471C33.392 13.327 34 15.597 34 18.005C34.0033 20.329 33.4258 22.617 32.32 24.661C32.2262 24.8343 32.0992 24.9875 31.9463 25.1118C31.7933 25.2361 31.6174 25.329 31.4285 25.3853C31.2396 25.4415 31.0415 25.46 30.8455 25.4398C30.6494 25.4195 30.4593 25.3608 30.286 25.267C30.1126 25.1732 29.9595 25.0462 29.8352 24.8933C29.7109 24.7403 29.618 24.5644 29.5617 24.3755C29.5055 24.1866 29.4869 23.9885 29.5072 23.7925C29.5275 23.5965 29.5862 23.4064 29.68 23.233C30.5485 21.6275 31.0022 19.8304 31 18.005C31 16.109 30.52 14.329 29.68 12.775C29.4911 12.4252 29.4488 12.0146 29.5624 11.6336C29.676 11.2526 29.9363 10.9323 30.286 10.7431Z" fill="#6456A9"/>
</svg>
