<svg width="41" height="40" viewBox="0 0 41 40" fill="none" xmlns="http://www.w3.org/2000/svg">
<path d="M30.334 29.1667C30.334 29.6611 30.1874 30.1445 29.9127 30.5556C29.638 30.9667 29.2475 31.2871 28.7907 31.4764C28.3339 31.6656 27.8312 31.7151 27.3463 31.6186C26.8613 31.5222 26.4158 31.2841 26.0662 30.9344C25.7166 30.5848 25.4785 30.1393 25.382 29.6544C25.2856 29.1694 25.3351 28.6668 25.5243 28.21C25.7135 27.7531 26.0339 27.3627 26.4451 27.088C26.8562 26.8133 27.3395 26.6667 27.834 26.6667C28.497 26.6667 29.1329 26.9301 29.6017 27.3989C30.0706 27.8677 30.334 28.5036 30.334 29.1667ZM12.834 13.3333C13.3284 13.3333 13.8118 13.1867 14.2229 12.912C14.634 12.6373 14.9545 12.2469 15.1437 11.79C15.3329 11.3332 15.3824 10.8306 15.2859 10.3456C15.1895 9.86065 14.9514 9.4152 14.6018 9.06557C14.2521 8.71593 13.8067 8.47783 13.3217 8.38137C12.8368 8.28491 12.3341 8.33442 11.8773 8.52363C11.4205 8.71285 11.03 9.03329 10.7553 9.44441C10.4806 9.85553 10.334 10.3389 10.334 10.8333C10.334 11.4964 10.5974 12.1323 11.0662 12.6011C11.5351 13.0699 12.1709 13.3333 12.834 13.3333ZM40.334 3.33333V36.6667C40.334 37.5507 39.9828 38.3986 39.3577 39.0237C38.7326 39.6488 37.8847 40 37.0006 40H3.66732C2.78326 40 1.93542 39.6488 1.31029 39.0237C0.685174 38.3986 0.333984 37.5507 0.333984 36.6667V3.33333C0.333984 2.44928 0.685174 1.60143 1.31029 0.976311C1.93542 0.351189 2.78326 0 3.66732 0H37.0006C37.8847 0 38.7326 0.351189 39.3577 0.976311C39.9828 1.60143 40.334 2.44928 40.334 3.33333ZM7.00065 10.8333C7.00065 11.9871 7.34277 13.1149 7.98374 14.0742C8.62472 15.0334 9.53576 15.7811 10.6017 16.2226C11.6676 16.6641 12.8405 16.7797 13.972 16.5546C15.1036 16.3295 16.143 15.7739 16.9588 14.9581C17.7746 14.1423 18.3302 13.1029 18.5552 11.9714C18.7803 10.8398 18.6648 9.66692 18.2233 8.60101C17.7818 7.53511 17.0341 6.62407 16.0748 5.98309C15.1155 5.34212 13.9877 5 12.834 5C11.2869 5 9.80316 5.61458 8.7092 6.70854C7.61523 7.80251 7.00065 9.28624 7.00065 10.8333ZM33.6673 29.1667C33.6673 28.0129 33.3252 26.8851 32.6842 25.9258C32.0432 24.9666 31.1322 24.2189 30.0663 23.7774C29.0004 23.3359 27.8275 23.2203 26.696 23.4454C25.5644 23.6705 24.525 24.2261 23.7092 25.0419C22.8934 25.8577 22.3378 26.8971 22.1127 28.0286C21.8877 29.1602 22.0032 30.3331 22.4447 31.399C22.8862 32.4649 23.6339 33.3759 24.5932 34.0169C25.5524 34.6579 26.6803 35 27.834 35C29.3811 35 30.8648 34.3854 31.9588 33.2915C33.0527 32.1975 33.6673 30.7138 33.6673 29.1667ZM33.1798 7.15417C33.025 6.99921 32.8412 6.87627 32.6389 6.7924C32.4366 6.70853 32.2197 6.66536 32.0007 6.66536C31.7816 6.66536 31.5647 6.70853 31.3624 6.7924C31.1601 6.87627 30.9763 6.99921 30.8215 7.15417L7.48815 30.4875C7.17542 30.8002 6.99972 31.2244 6.99972 31.6667C6.99972 32.1089 7.17542 32.5331 7.48815 32.8458C7.80088 33.1586 8.22504 33.3343 8.66732 33.3343C9.10959 33.3343 9.53375 33.1586 9.84649 32.8458L33.1798 9.5125C33.3348 9.35771 33.4577 9.1739 33.5416 8.97157C33.6255 8.76924 33.6686 8.55236 33.6686 8.33333C33.6686 8.11431 33.6255 7.89743 33.5416 7.6951C33.4577 7.49277 33.3348 7.30895 33.1798 7.15417Z" fill="#6456A9"/>
</svg>
