<svg width="41" height="40" viewBox="0 0 41 40" fill="none" xmlns="http://www.w3.org/2000/svg">
<path d="M10.991 1.98253C12.696 0.691314 14.7773 -0.00510776 16.916 2.82048e-05C17.516 2.82048e-05 17.9935 0.312528 18.271 0.527528C18.581 0.772528 18.871 1.08503 19.131 1.39753C19.3154 1.62144 19.4161 1.90249 19.416 2.19253V11.25H16.7035C16.4086 10.416 15.8284 9.71308 15.0654 9.26548C14.3024 8.81789 13.4057 8.65444 12.5338 8.80403C11.662 8.95362 10.8711 9.40661 10.3009 10.0829C9.73071 10.7593 9.41798 11.6154 9.41798 12.5C9.41798 13.3846 9.73071 14.2408 10.3009 14.9171C10.8711 15.5934 11.662 16.0464 12.5338 16.196C13.4057 16.3456 14.3024 16.1822 15.0654 15.7346C15.8284 15.287 16.4086 14.584 16.7035 13.75H19.416V37.2875C19.4161 37.4726 19.3752 37.6554 19.296 37.8227C19.2169 37.99 19.1016 38.1377 18.9585 38.255C17.8035 39.2 16.2585 40 14.416 40C11.451 40 9.24352 38.505 7.81602 36.7175C6.79041 35.4439 6.08796 33.9412 5.76852 32.3375C4.79722 32.0785 3.89664 31.6043 3.13352 30.95C1.75352 29.7675 0.666016 27.85 0.666016 25C0.666016 23.6075 0.758515 22.35 0.966015 21.25H8.79102C10.381 21.25 11.691 22.4375 11.891 23.9725C11.0596 24.2734 10.3613 24.8583 9.91931 25.6241C9.47733 26.3898 9.32013 27.2871 9.47546 28.1575C9.6308 29.0279 10.0887 29.8155 10.7683 30.381C11.4478 30.9466 12.3054 31.2539 13.1895 31.2486C14.0737 31.2433 14.9275 30.9258 15.6003 30.3522C16.2731 29.7785 16.7215 28.9856 16.8664 28.1134C17.0113 27.2412 16.8434 26.3458 16.3923 25.5854C15.9412 24.825 15.2359 24.2484 14.401 23.9575C14.2956 22.5418 13.6588 21.2182 12.6184 20.2524C11.5779 19.2866 10.2107 18.7499 8.79102 18.75H1.76852C2.15102 18.005 2.66352 17.375 3.33102 16.9275C3.49986 16.8157 3.67705 16.7171 3.86102 16.6325C3.15102 14.5525 3.33602 12.1175 4.02102 10.205C4.45852 8.97502 5.15352 7.81252 6.10852 7.03752C6.73852 6.52502 7.48852 6.18752 8.30852 6.12252C8.66852 4.41502 9.67852 3.00253 10.991 1.98253ZM21.916 31.25H23.791C25.2829 31.25 26.7136 30.6574 27.7685 29.6025C28.8234 28.5476 29.416 27.1169 29.416 25.625V21.0375C30.25 20.7426 30.953 20.1624 31.4006 19.3994C31.8482 18.6364 32.0116 17.7397 31.862 16.8679C31.7124 15.996 31.2594 15.2051 30.5831 14.6349C29.9068 14.0647 29.0506 13.752 28.166 13.752C27.2814 13.752 26.4253 14.0647 25.7489 14.6349C25.0726 15.2051 24.6196 15.996 24.47 16.8679C24.3204 17.7397 24.4839 18.6364 24.9315 19.3994C25.3791 20.1624 26.082 20.7426 26.916 21.0375V25.625C26.916 27.35 25.516 28.75 23.791 28.75H21.916V2.19253C21.9159 1.90249 22.0167 1.62144 22.201 1.39753C22.4585 1.08503 22.751 0.772528 23.061 0.527528C23.336 0.312528 23.8135 2.82048e-05 24.416 2.82048e-05C26.5547 -0.00510776 28.6361 0.691314 30.341 1.98253C31.6535 3.00253 32.666 4.41502 33.0235 6.12252C33.8435 6.18502 34.5935 6.52502 35.2235 7.03752C36.1785 7.81252 36.8735 8.97502 37.311 10.205C37.996 12.1175 38.181 14.555 37.471 16.63C37.651 16.715 37.8285 16.815 38.001 16.93C38.6885 17.3875 39.211 18.0425 39.596 18.815C40.3535 20.3275 40.666 22.4375 40.666 25C40.666 27.8525 39.5785 29.7675 38.1985 30.95C37.4354 31.6043 36.5348 32.0785 35.5635 32.3375C35.3135 33.7325 34.6135 35.3475 33.516 36.7175C32.091 38.505 29.881 40 26.916 40C25.076 40 23.5285 39.2 22.376 38.255C22.2324 38.1379 22.1167 37.9904 22.0371 37.823C21.9576 37.6557 21.9162 37.4728 21.916 37.2875V31.25ZM13.166 11.25C12.8345 11.25 12.5166 11.3817 12.2821 11.6161C12.0477 11.8506 11.916 12.1685 11.916 12.5C11.916 12.8315 12.0477 13.1495 12.2821 13.3839C12.5166 13.6183 12.8345 13.75 13.166 13.75C13.4975 13.75 13.8155 13.6183 14.0499 13.3839C14.2843 13.1495 14.416 12.8315 14.416 12.5C14.416 12.1685 14.2843 11.8506 14.0499 11.6161C13.8155 11.3817 13.4975 11.25 13.166 11.25ZM13.166 26.25C12.8345 26.25 12.5166 26.3817 12.2821 26.6161C12.0477 26.8505 11.916 27.1685 11.916 27.5C11.916 27.8315 12.0477 28.1495 12.2821 28.3839C12.5166 28.6183 12.8345 28.75 13.166 28.75C13.4975 28.75 13.8155 28.6183 14.0499 28.3839C14.2843 28.1495 14.416 27.8315 14.416 27.5C14.416 27.1685 14.2843 26.8505 14.0499 26.6161C13.8155 26.3817 13.4975 26.25 13.166 26.25ZM28.166 18.75C28.4975 18.75 28.8155 18.6183 29.0499 18.3839C29.2843 18.1495 29.416 17.8315 29.416 17.5C29.416 17.1685 29.2843 16.8506 29.0499 16.6161C28.8155 16.3817 28.4975 16.25 28.166 16.25C27.8345 16.25 27.5166 16.3817 27.2821 16.6161C27.0477 16.8506 26.916 17.1685 26.916 17.5C26.916 17.8315 27.0477 18.1495 27.2821 18.3839C27.5166 18.6183 27.8345 18.75 28.166 18.75Z" fill="#6456A9"/>
</svg>
