<svg width="44" height="32" viewBox="0 0 44 32" fill="none" xmlns="http://www.w3.org/2000/svg">
<rect width="44" height="32" rx="4" fill="#E1E7F0"/>
<path d="M19.5664 9.24219C19.7031 8.94141 20.0039 8.75 20.332 8.75H23.6406C23.9688 8.75 24.2695 8.94141 24.4062 9.24219L24.625 9.625H27.25C27.7148 9.625 28.125 10.0352 28.125 10.5C28.125 10.9922 27.7148 11.375 27.25 11.375H16.75C16.2578 11.375 15.875 10.9922 15.875 10.5C15.875 10.0352 16.2578 9.625 16.75 9.625H19.375L19.5664 9.24219ZM26.6484 21.5195C26.6211 22.2305 26.0469 22.75 25.3359 22.75H18.6367C17.9258 22.75 17.3516 22.2305 17.3242 21.5195L16.7227 12.25H27.25L26.6484 21.5195Z" fill="#3F8B8B"/>
</svg>
