<svg width="37" height="24" viewBox="0 0 37 24" fill="none" xmlns="http://www.w3.org/2000/svg">
<path d="M11.25 8.75C11.25 8.35156 11.5781 8 12 8H21C21.3984 8 21.75 8.35156 21.75 8.75C21.75 9.17188 21.3984 9.5 21 9.5H12C11.5781 9.5 11.25 9.17188 11.25 8.75ZM11.25 12.5C11.25 12.1016 11.5781 11.75 12 11.75H21C21.3984 11.75 21.75 12.1016 21.75 12.5C21.75 12.9219 21.3984 13.25 21 13.25H12C11.5781 13.25 11.25 12.9219 11.25 12.5ZM21 17H12C11.5781 17 11.25 16.6719 11.25 16.25C11.25 15.8516 11.5781 15.5 12 15.5H21C21.3984 15.5 21.75 15.8516 21.75 16.25C21.75 16.6719 21.3984 17 21 17Z" fill="white"/>
</svg>
