<svg width="9" height="9" viewBox="0 0 9 9" fill="none" xmlns="http://www.w3.org/2000/svg">
<path d="M8.01562 6.98438C8.32031 7.26562 8.32031 7.75781 8.01562 8.03906C7.875 8.17969 7.6875 8.25 7.5 8.25C7.28906 8.25 7.10156 8.17969 6.96094 8.03906L4.5 5.57812L2.01562 8.03906C1.875 8.17969 1.6875 8.25 1.5 8.25C1.28906 8.25 1.10156 8.17969 0.960938 8.03906C0.65625 7.75781 0.65625 7.26562 0.960938 6.98438L3.42188 4.5L0.960938 2.03906C0.65625 1.75781 0.65625 1.26562 0.960938 0.984375C1.24219 0.679688 1.73438 0.679688 2.01562 0.984375L4.5 3.44531L6.96094 0.984375C7.24219 0.679688 7.73438 0.679688 8.01562 0.984375C8.32031 1.26562 8.32031 1.75781 8.01562 2.03906L5.55469 4.52344L8.01562 6.98438Z" fill="white"/>
</svg>
