<svg width="63" height="42" viewBox="0 0 63 42" fill="none" xmlns="http://www.w3.org/2000/svg">
<rect x="0.5" width="62" height="42" rx="4" fill="#F2F5FA"/>
<path d="M43.4531 27.1406L42.3281 31.875C42.1875 32.5781 41.625 33.0469 40.9219 33.0469C29.1094 33 19.5 23.3906 19.5 11.5781C19.5 10.875 19.9219 10.3125 20.625 10.1719L25.3594 9.04688C26.0156 8.90625 26.7188 9.28125 27 9.89062L29.2031 15C29.4375 15.6094 29.2969 16.3125 28.7812 16.6875L26.25 18.75C27.8438 21.9844 30.4688 24.6094 33.75 26.2031L35.8125 23.6719C36.1875 23.2031 36.8906 23.0156 37.5 23.25L42.6094 25.4531C43.2188 25.7812 43.5938 26.4844 43.4531 27.1406Z" fill="#6951AB"/>
</svg>
