<svg width="14" height="12" viewBox="0 0 14 12" fill="none" xmlns="http://www.w3.org/2000/svg">
<path fill-rule="evenodd" clip-rule="evenodd" d="M3.80299 0.671924C3.606 0.627042 3.45552 0.613016 3.1874 0.615821C2.95209 0.618627 2.75237 0.638262 2.59916 0.671924C2.47057 0.699975 2.27358 0.756078 2.16141 0.798155C2.04923 0.837426 1.85771 0.924385 1.73733 0.986098C1.61695 1.05062 1.42543 1.17404 1.31326 1.261C1.20108 1.34516 1.03419 1.49102 0.946642 1.58359C0.856356 1.67336 0.714086 1.84447 0.632006 1.95948C0.547193 2.07449 0.426809 2.27085 0.363882 2.39427C0.300954 2.5177 0.213405 2.73369 0.166893 2.87114C0.120382 3.0114 0.065663 3.24984 0.0410394 3.40413C0.0191517 3.5584 0 3.78561 0 3.90905C0 4.03246 0.0136798 4.22321 0.0273595 4.3298C0.0437753 4.43922 0.0793429 4.62434 0.109438 4.74498C0.139534 4.8628 0.210669 5.07038 0.268124 5.20782C0.325578 5.34246 0.440489 5.56126 0.52804 5.69871C0.612855 5.83335 0.774276 6.03813 0.883715 6.15594C0.990417 6.27376 1.17373 6.44208 1.2859 6.52904C1.39808 6.616 1.60327 6.74502 1.73733 6.81795C1.87413 6.88809 2.06018 6.97505 2.1532 7.0115L2.32283 7.07884C2.34198 8.99754 2.35292 9.236 2.38575 9.33696C2.40764 9.40709 2.45963 9.51931 2.49793 9.58944C2.53623 9.65955 2.62926 9.77456 2.70585 9.8503C2.75937 9.90124 2.84625 9.96451 2.9292 10.0152L2.94084 10.0385H2.96865C2.99056 10.0511 3.01172 10.0623 3.03143 10.0719C3.13541 10.1224 3.28316 10.1673 3.37344 10.1757L3.53212 10.1925C3.59504 10.4113 3.64703 10.5376 3.6908 10.6133C3.73184 10.6918 3.83035 10.8237 3.90694 10.9078C3.98082 10.992 4.1094 11.1042 4.18875 11.1519C4.27084 11.2024 4.42405 11.2753 4.528 11.3146C4.67576 11.3679 4.77424 11.3847 4.9521 11.3847C5.08615 11.3847 5.23662 11.3651 5.30775 11.3426C5.37616 11.3174 5.48011 11.2781 5.54031 11.2529C5.60051 11.2248 5.72089 11.1575 5.80844 11.0986C5.89325 11.0397 6.01637 10.9247 6.07657 10.8461C6.13949 10.7648 6.21336 10.647 6.24618 10.5852C6.27628 10.5235 6.3228 10.4113 6.34741 10.3328L6.39394 10.1925L9.9452 10.1757C10.0027 10.3636 10.0629 10.5039 10.1176 10.6105C10.1832 10.7339 10.279 10.863 10.3884 10.9695C10.4842 11.0593 10.6265 11.1659 10.7031 11.2052C10.7824 11.2473 10.9165 11.3034 10.9986 11.3314C11.097 11.3651 11.2284 11.3847 11.3816 11.3847C11.5348 11.3847 11.6661 11.3651 11.7646 11.3314C11.8467 11.3034 11.9808 11.2473 12.0574 11.2052C12.1367 11.1659 12.279 11.0593 12.372 10.9695C12.4842 10.863 12.5799 10.7339 12.6456 10.6105C12.7003 10.5039 12.7605 10.3636 12.7824 10.2963L12.818 10.1785H13.8166L13.9944 10.0158C14.0054 6.90211 13.9999 6.2429 13.9808 6.19522C13.9643 6.15594 13.4062 5.56406 12.7359 4.87683L11.5184 3.62854L9.34331 3.60048L9.31592 2.57661L9.16545 2.42232L6.06014 2.4083C5.95345 2.20072 5.85496 2.04644 5.77013 1.93143C5.68532 1.81642 5.52117 1.62847 5.40626 1.51907C5.29135 1.40687 5.09708 1.24697 4.97396 1.16282C4.84812 1.07867 4.66755 0.972074 4.56906 0.92719C4.47055 0.879504 4.31733 0.817791 4.22706 0.786934C4.13676 0.756078 3.94525 0.70278 3.80299 0.671924ZM2.39396 1.34796C2.48425 1.3171 2.63746 1.27783 2.73595 1.261C2.83446 1.24417 2.96305 1.22734 3.02325 1.22173C3.08342 1.21612 3.13815 1.21051 3.14634 1.2077C3.15455 1.2049 3.28863 1.21612 3.44731 1.23015C3.606 1.24697 3.83856 1.29186 3.96714 1.33113C4.09573 1.3704 4.29819 1.45736 4.41856 1.52188C4.53896 1.5864 4.71132 1.6958 4.8016 1.76593C4.8919 1.83886 5.03962 1.97631 5.12992 2.07449C5.2202 2.17267 5.35699 2.355 5.43087 2.47843C5.50475 2.60185 5.59777 2.78419 5.6388 2.88517C5.67711 2.98615 5.73184 3.16288 5.76192 3.27789C5.80297 3.44339 5.8139 3.58083 5.81119 3.9371C5.80844 4.34103 5.80023 4.41116 5.73456 4.63837C5.69353 4.77864 5.60323 5.00584 5.5321 5.14331C5.46097 5.28355 5.32964 5.48833 5.23937 5.60334C5.14907 5.71836 4.99038 5.88386 4.88369 5.97362C4.77971 6.06338 4.57453 6.20082 4.43224 6.27658C4.28998 6.35232 4.06016 6.45048 3.92611 6.49256C3.70448 6.55989 3.6361 6.56829 3.2421 6.57112C2.89464 6.57392 2.76059 6.56269 2.59916 6.52061C2.48698 6.48976 2.31462 6.43365 2.21613 6.3944C2.11763 6.35232 1.93979 6.25693 1.81941 6.18119C1.69903 6.10546 1.52119 5.96519 1.42543 5.87263C1.32967 5.78007 1.19561 5.6286 1.12448 5.53601C1.05608 5.44345 0.949378 5.26673 0.886451 5.14331C0.823523 5.01987 0.738707 4.81229 0.700404 4.68045C0.6621 4.54861 0.618326 4.31578 0.604647 4.16151C0.588232 3.98198 0.588232 3.79123 0.604647 3.62854C0.618326 3.49107 0.64295 3.32557 0.659365 3.26386C0.675783 3.20215 0.711348 3.08434 0.741446 3.00579C0.768805 2.92444 0.834467 2.77296 0.886451 2.66918C0.938434 2.56258 1.02325 2.41672 1.07797 2.33817C1.13269 2.26243 1.25307 2.11657 1.34883 2.01839C1.44185 1.92021 1.59233 1.78837 1.68261 1.72104C1.7729 1.65652 1.93432 1.55835 2.03829 1.50505C2.14499 1.44894 2.30368 1.38162 2.39396 1.34796ZM4.28998 9.32293C4.32829 9.27805 4.40217 9.20511 4.45687 9.16306C4.51158 9.12098 4.60463 9.06767 4.6648 9.04525C4.74142 9.01436 4.84265 9.00316 4.99313 9.00876C5.16274 9.01719 5.24209 9.03402 5.34881 9.09013C5.42266 9.13218 5.52938 9.21354 5.58409 9.27245C5.6388 9.33136 5.71267 9.43515 5.74824 9.50528C5.80297 9.60907 5.8139 9.67358 5.8139 9.88395C5.8139 10.0859 5.80297 10.1617 5.75373 10.2627C5.72089 10.3328 5.64154 10.445 5.57588 10.5123C5.51021 10.5796 5.41447 10.6554 5.36249 10.6834C5.3105 10.7115 5.19831 10.7451 5.11625 10.762C5.03144 10.7788 4.90557 10.7816 4.82898 10.7676C4.75235 10.7564 4.64019 10.7199 4.57453 10.6862C4.51158 10.6554 4.41856 10.5909 4.36932 10.546C4.32282 10.5039 4.24895 10.4057 4.20792 10.33C4.16686 10.2543 4.12036 10.1224 4.10669 10.0382C4.09026 9.94006 4.09298 9.82787 4.1094 9.72968C4.12308 9.64552 4.15593 9.53613 4.17782 9.49125C4.20242 9.44637 4.25167 9.36781 4.28998 9.32293ZM10.6593 9.40149C10.7113 9.32013 10.7934 9.22197 10.8399 9.18269C10.8891 9.14621 10.9904 9.09013 11.0669 9.05927C11.149 9.02559 11.2722 9.00316 11.3734 9.00036C11.4828 9.00036 11.5977 9.01999 11.688 9.05645C11.7674 9.0873 11.874 9.14621 11.9206 9.18269C11.9698 9.22197 12.0519 9.32013 12.1039 9.40149C12.1559 9.48003 12.2133 9.61747 12.2297 9.70163C12.2489 9.78579 12.2571 9.91201 12.2489 9.98214C12.2407 10.0523 12.2106 10.1729 12.1777 10.2486C12.1476 10.3272 12.0683 10.4422 12.0054 10.5067C11.9397 10.5712 11.8385 10.6498 11.7783 10.6806C11.7181 10.7115 11.6032 10.7507 11.5239 10.7676C11.4281 10.7872 11.3351 10.7872 11.2366 10.7676C11.16 10.7507 11.0451 10.7115 10.9849 10.6806C10.9247 10.6498 10.8235 10.5712 10.7578 10.5067C10.6949 10.4422 10.6155 10.3272 10.5854 10.2486C10.5526 10.1729 10.5225 10.0523 10.5143 9.98214C10.5061 9.91201 10.5143 9.78579 10.5334 9.70163C10.5499 9.61747 10.6073 9.48003 10.6593 9.40149ZM3.48834 1.98192C3.3324 1.83886 3.28316 1.81922 3.20382 1.81922C3.11899 1.81922 3.07521 1.83886 3.00954 1.90618L2.92202 1.99314L2.92474 3.99318C3.04785 4.16711 3.27495 4.40836 3.50477 4.64119C3.83581 4.97499 3.948 5.07038 4.02185 5.0872C4.08752 5.10123 4.14497 5.0928 4.20792 5.06195C4.25441 5.03669 4.31461 4.97499 4.33922 4.92731C4.36932 4.8628 4.37753 4.80389 4.36385 4.73656C4.34743 4.65802 4.25441 4.54581 3.92337 4.20359L3.50477 3.76878L3.48834 1.98192ZM10.4961 5.25003C10.5022 5.48028 10.5061 5.89328 10.5061 6.58795H11.5102C11.6883 6.58795 11.856 6.589 12.0047 6.59096L10.4961 5.25003Z" fill="#6951AB"/>
</svg>
