<svg width="14" height="14" viewBox="0 0 14 14" fill="none" xmlns="http://www.w3.org/2000/svg">
<path fill-rule="evenodd" clip-rule="evenodd" d="M6.34884 0.00846934C6.51582 0.0140403 6.83611 0.0391098 7.06058 0.0586082C7.28778 0.0808922 7.61902 0.12546 7.79969 0.1561C7.98036 0.189526 8.28148 0.253593 8.47036 0.298161C8.65924 0.345514 8.99869 0.445792 9.22316 0.521C9.45037 0.593423 9.78707 0.71877 9.97596 0.796764C10.1648 0.874758 10.5262 1.05024 10.7835 1.18395C11.0408 1.31765 11.3775 1.50706 11.5336 1.60456C11.6896 1.70483 11.8648 1.83018 11.9195 1.88311C11.9989 1.95831 12.0373 2.02795 12.0838 2.18951C12.1166 2.30372 12.1741 2.54327 12.2097 2.71875C12.2453 2.89424 12.2918 3.20064 12.3137 3.4012C12.3356 3.60176 12.3603 3.94437 12.3685 4.16721C12.3794 4.39005 12.3767 4.71038 12.3657 4.88308C12.3466 5.13378 12.3329 5.20898 12.2864 5.27305C12.2535 5.31483 12.1878 5.36776 12.1358 5.39004C12.0482 5.42347 12.0071 5.41511 11.4952 5.27027C11.1941 5.18392 10.4851 4.97222 9.92121 4.79673C8.99869 4.50983 8.88645 4.46804 8.81802 4.39284C8.75779 4.3232 8.74411 4.28142 8.74411 4.17557C8.74684 4.10036 8.77969 3.72989 8.82075 3.35106C8.89466 2.66583 8.89466 2.66026 8.83992 2.64912C8.8098 2.64076 8.63734 2.61012 8.45667 2.57948C8.276 2.54884 7.95572 2.50706 7.74494 2.48199C7.53415 2.4597 7.09616 2.42906 6.77314 2.41514C6.4337 2.40121 5.92454 2.40121 5.56867 2.41514C5.22923 2.42906 4.78028 2.4597 4.5695 2.48199C4.35872 2.50706 4.03844 2.55162 3.85777 2.58226C3.67709 2.61569 3.52106 2.64912 3.51011 2.66026C3.49916 2.66862 3.51011 2.82739 3.53201 3.01123C3.55117 3.19507 3.58676 3.5349 3.60866 3.76331C3.63056 4.01122 3.63603 4.21456 3.62234 4.2647C3.6114 4.31206 3.57307 4.37612 3.53748 4.40955C3.49095 4.45412 3.12139 4.57389 2.2153 4.84687C1.52272 5.053 0.813727 5.26191 0.641268 5.31205C0.345623 5.39561 0.320986 5.3984 0.219701 5.36219C0.148527 5.33712 0.0910411 5.28976 0.0554543 5.2257C0.000705366 5.13378 -0.00203207 5.08642 0.000705372 4.47361C0.000705372 4.01401 0.01713 3.71039 0.0499794 3.45691C0.0773538 3.25635 0.129365 2.94438 0.16769 2.76054C0.203276 2.57669 0.260763 2.33157 0.290875 2.21737C0.320986 2.10316 0.362048 1.97781 0.38121 1.93882C0.400372 1.89703 0.561882 1.77447 0.76719 1.64355C0.961549 1.51821 1.24351 1.34551 1.39406 1.26194C1.54462 1.17838 1.81563 1.0391 1.9963 0.955537C2.17697 0.871972 2.45893 0.74941 2.62592 0.685344C2.79016 0.621278 3.08033 0.521 3.26921 0.462505C3.4581 0.401224 3.77838 0.317659 3.98095 0.270306C4.18352 0.222952 4.50928 0.161671 4.70637 0.131031C4.90347 0.100391 5.25386 0.0613937 5.48655 0.0446808C5.71923 0.0279678 5.94096 0.00846934 5.97929 0.00289836C6.01761 -0.00267263 6.18186 0.000112859 6.34884 0.00846934ZM4.73375 0.780051C4.58319 0.80512 4.31766 0.858045 4.1452 0.897042C3.97274 0.936038 3.68804 1.01403 3.51558 1.06417C3.34313 1.1171 3.08307 1.20623 2.94072 1.25916C2.79837 1.31208 2.53284 1.42629 2.35217 1.50706C2.1715 1.59063 1.90597 1.72155 1.76362 1.79954C1.62127 1.87753 1.3749 2.02517 1.21613 2.12266L0.928699 2.30372C0.78909 2.91652 0.731603 3.22571 0.706966 3.38727C0.685067 3.54883 0.654955 3.89423 0.641268 4.15328C0.630318 4.41233 0.622105 4.6296 0.624843 4.63517C0.624843 4.63796 1.15591 4.48476 1.80468 4.29256C2.45346 4.10036 2.98178 3.9388 2.98452 3.93601C2.98726 3.93323 2.96536 3.72432 2.93798 3.47084C2.91061 3.21736 2.87502 2.86638 2.86134 2.6909C2.84217 2.43742 2.84491 2.35107 2.87502 2.27308C2.89692 2.21458 2.9462 2.15608 3.00095 2.12544C3.05022 2.10037 3.2391 2.04466 3.41977 2.00845C3.60045 1.96946 3.9262 1.91375 4.1452 1.88311C4.36419 1.85525 4.71459 1.81625 4.92537 1.79676C5.13615 1.77726 5.68912 1.76054 6.15722 1.76054C6.62532 1.76054 7.18376 1.77726 7.40276 1.79676C7.62175 1.81625 7.9831 1.85525 8.2103 1.88589C8.43477 1.91932 8.79338 1.9806 9.00416 2.02238C9.36551 2.10037 9.39288 2.10873 9.475 2.20344C9.53796 2.27308 9.56534 2.32878 9.56534 2.39285C9.56534 2.4402 9.52701 2.80789 9.48322 3.20622C9.43942 3.60454 9.41204 3.9388 9.42299 3.94994C9.43394 3.9583 9.83635 4.08922 10.3181 4.23685C10.7999 4.38448 11.2981 4.53768 11.4268 4.57668C11.5555 4.61567 11.6759 4.65467 11.6978 4.66581C11.7334 4.67974 11.7361 4.59896 11.7197 4.09757C11.7115 3.77446 11.6841 3.4012 11.6595 3.26192C11.6376 3.12544 11.5856 2.85803 11.5445 2.66861L11.4679 2.32878C10.9176 1.98895 10.622 1.81904 10.455 1.73547C10.288 1.65191 10.0252 1.52656 9.86646 1.45693C9.70769 1.38729 9.4312 1.27587 9.25053 1.2118C9.06986 1.14774 8.77422 1.05303 8.59355 1.00568C8.41287 0.955537 8.10354 0.880329 7.90918 0.841332C7.71483 0.802335 7.40002 0.752196 7.21114 0.727126C7.02225 0.704843 6.62806 0.679773 6.33515 0.674202C5.99297 0.665846 5.659 0.674202 5.40442 0.699272C5.18543 0.71877 4.88431 0.757767 4.73375 0.780051ZM11.164 6.84128H12.4451C13.6085 6.84128 13.7345 6.84685 13.8248 6.89142C13.8823 6.91928 13.937 6.97499 13.9617 7.0307C13.9836 7.07805 14 7.13933 14 7.16162C14 7.1839 13.9781 7.24797 13.9507 7.30368C13.9261 7.35939 13.8796 7.42067 13.8494 7.43738C13.8139 7.45688 13.4087 7.47359 11.446 7.49587L10.5618 9.55714C10.0745 10.6908 9.65841 11.6574 9.63377 11.702C9.61188 11.7465 9.55439 11.8078 9.51059 11.8357C9.43394 11.8802 9.21221 11.883 5.95191 11.883C2.95988 11.883 2.46167 11.8775 2.38502 11.8412C2.33848 11.819 2.27826 11.7688 2.25636 11.727C2.23446 11.6853 2.21804 11.6017 2.22077 11.5376C2.22351 11.4513 2.24541 11.4039 2.39323 11.2563L9.14104 11.2424L10.0608 9.1031C10.8985 7.15604 10.9861 6.96106 11.0709 6.90535L11.164 6.84128ZM6.17912 3.19229C7.22482 3.19229 7.50404 3.19786 7.57522 3.2285C7.62449 3.25078 7.68745 3.29535 7.71756 3.32878C7.76957 3.39006 7.77231 3.43741 7.786 5.28141H8.64282C9.12187 5.28141 9.54344 5.29255 9.60093 5.30926C9.65841 5.32319 9.73232 5.37333 9.83908 5.50425V6.91092C9.83908 8.1254 9.83361 8.32595 9.79802 8.3928C9.77338 8.43459 9.72685 8.48751 9.694 8.51258C9.64472 8.54601 9.47774 8.55436 7.786 8.56829V9.47357C7.786 10.2786 7.78052 10.3872 7.73946 10.4764C7.70935 10.5348 7.6546 10.5906 7.60259 10.6156C7.52868 10.6491 7.28231 10.6574 6.18459 10.6574C4.97738 10.6574 4.84872 10.6518 4.75838 10.6073C4.70364 10.5794 4.64067 10.5237 4.62151 10.4819C4.5914 10.4206 4.58319 10.2062 4.58319 8.56829L3.66067 8.55993C2.84765 8.55436 2.7272 8.54601 2.66698 8.50701C2.63139 8.48194 2.58212 8.42623 2.55748 8.38445C2.52463 8.32038 2.51642 8.10033 2.51642 6.92206C2.51642 5.936 2.52737 5.51817 2.54927 5.46525C2.56569 5.42625 2.61497 5.37054 2.65876 5.34269C2.7272 5.29812 2.83396 5.29255 4.58319 5.28141V4.35384C4.58319 3.52933 4.58866 3.4207 4.62972 3.35942C4.65436 3.32042 4.69542 3.27585 4.72006 3.26192C4.74196 3.24521 4.78576 3.22571 4.81587 3.21457C4.84598 3.20343 5.45917 3.19507 6.17912 3.19229ZM5.2128 4.75216C5.2128 5.48196 5.20733 5.66023 5.17174 5.74101C5.14984 5.79394 5.09783 5.858 5.05677 5.88586C4.99107 5.93043 4.88704 5.936 4.07129 5.94157L3.15972 5.94993V7.89977C4.93084 7.91091 4.98559 7.91648 5.0595 7.96941C5.10604 8.00005 5.15805 8.06412 5.17721 8.11425C5.20459 8.18389 5.2128 8.42066 5.2128 9.11146V10.0167H7.15639C7.15912 8.40952 7.16734 8.14489 7.19197 8.09476C7.21114 8.05854 7.26041 8.00283 7.30147 7.96941C7.37812 7.9137 7.41371 7.91091 8.29516 7.90534L9.20947 7.89977V5.94993C7.51773 5.936 7.35348 5.92764 7.30147 5.89422C7.26862 5.86915 7.22209 5.81622 7.20019 5.77444C7.1646 5.71037 7.15639 5.55717 7.15639 4.78002V3.86081H5.2128V4.75216Z" fill="#6951AB"/>
<path d="M8.16924 13.0669C8.16924 13.5822 7.75867 14 7.2522 14C6.74573 14 6.33515 13.5822 6.33515 13.0669C6.33515 12.5515 6.74573 12.1337 7.2522 12.1337C7.75867 12.1337 8.16924 12.5515 8.16924 13.0669Z" fill="#6951AB"/>
<path d="M4.93906 13.0669C4.93906 13.5822 4.52848 14 4.02201 14C3.51554 14 3.10497 13.5822 3.10497 13.0669C3.10497 12.5515 3.51554 12.1337 4.02201 12.1337C4.52848 12.1337 4.93906 12.5515 4.93906 13.0669Z" fill="#6951AB"/>
</svg>
