<svg width="63" height="42" viewBox="0 0 63 42" fill="none" xmlns="http://www.w3.org/2000/svg">
<rect x="0.5" width="62" height="42" rx="4" fill="#F2F5FA"/>
<path d="M31.5 10.5C38.1094 10.5 43.5 14.9062 43.5 20.25C43.5 25.6406 38.1094 30 31.5 30C29.6719 30 27.9844 29.6719 26.4375 29.1094C25.3125 30.0469 22.9688 31.5 19.875 31.5C19.6875 31.5 19.5469 31.4531 19.5 31.3125C19.4531 31.1719 19.5 30.9844 19.5938 30.8906C19.5938 30.8438 21.5625 28.7812 22.1719 26.3906C20.4844 24.7031 19.5 22.5938 19.5 20.25C19.5 14.9062 24.8438 10.5 31.5 10.5ZM27.3281 21.75C27.6094 20.2031 26.1094 19.7812 25.3125 19.5469C24.7969 19.4062 24.3281 19.3125 24.375 19.0312C24.375 18.8438 24.8438 18.7031 25.3594 18.7969C25.5469 18.8438 25.7812 18.8906 25.9688 18.9844C26.3906 19.125 26.8125 18.8906 26.9531 18.5156C27.0469 18.0938 26.8594 17.6719 26.4844 17.5312C26.2031 17.4375 25.875 17.3438 25.5938 17.2969C24.1406 17.1094 23.0625 17.6719 22.875 18.7969C22.5938 20.3438 24.1406 20.7656 24.7031 20.9531C25.3125 21.1406 25.875 21.2344 25.8281 21.5156C25.8281 21.7031 25.3594 21.8438 24.8438 21.75C24.5156 21.7031 24.1875 21.5625 23.8594 21.4219C23.4844 21.2812 23.1094 21.5156 22.9688 21.9375C22.8281 22.3125 23.1094 22.7812 23.4844 22.9219C23.8125 23.0156 24.2344 23.1562 24.5625 23.2031C24.75 23.25 24.9844 23.25 25.1719 23.25C26.3438 23.25 27.1406 22.6875 27.3281 21.75ZM34.5 22.5V18C34.5 17.7188 34.2656 17.3906 33.9844 17.2969C33.6562 17.2031 33.3281 17.2969 33.1406 17.5781L31.5 19.7812L29.8125 17.5781C29.625 17.2969 29.2969 17.2031 28.9688 17.2969C28.6875 17.4375 28.5 17.7188 28.5 18V22.5C28.5 22.9219 28.8281 23.25 29.25 23.25C29.625 23.25 30 22.9219 30 22.5V20.25L30.8906 21.4688C31.1719 21.8438 31.7812 21.8438 32.0625 21.4688L33 20.25V22.5C33 22.9219 33.3281 23.25 33.75 23.25C34.125 23.25 34.5 22.9219 34.5 22.5ZM40.0781 21.75C40.3594 20.2031 38.8594 19.7812 38.0625 19.5469C37.5469 19.4062 37.0781 19.3125 37.0781 19.0312C37.125 18.8438 37.5469 18.7031 38.0625 18.7969C38.25 18.8438 38.4844 18.8906 38.6719 18.9844C39.0938 19.125 39.5156 18.8906 39.6562 18.5156C39.7969 18.0938 39.5625 17.6719 39.1875 17.5312C38.9062 17.4375 38.5781 17.3438 38.2969 17.3438C36.8906 17.1094 35.7656 17.6719 35.5781 18.7969C35.3438 20.3438 36.8438 20.7656 37.4062 20.9531C38.0625 21.1406 38.625 21.2344 38.5312 21.5156C38.5312 21.7031 38.0625 21.8438 37.5469 21.75C37.2656 21.7031 36.8906 21.5625 36.5625 21.4219C36.1875 21.2812 35.8125 21.5156 35.6719 21.9375C35.5312 22.3125 35.8125 22.7812 36.1875 22.9219C36.5156 23.0156 36.9375 23.1562 37.3125 23.2031C37.5 23.25 37.7344 23.25 37.9219 23.25C39.0938 23.25 39.8906 22.6875 40.0781 21.75Z" fill="#6951AB"/>
</svg>
