<svg width="60" height="45" viewBox="0 0 60 45" fill="none" xmlns="http://www.w3.org/2000/svg">
<path fill-rule="evenodd" clip-rule="evenodd" d="M16.8707 0.235862C16.0265 0.0483185 15.3816 -0.0102884 14.2325 0.0014329C13.2241 0.0131543 12.3681 0.0952052 11.7115 0.235862C11.1604 0.353075 10.3162 0.587504 9.83544 0.763327C9.3547 0.927426 8.53389 1.29079 8.01797 1.54866C7.50206 1.81825 6.68129 2.334 6.20051 2.69736C5.71977 3.049 5.0045 3.65853 4.62929 4.04534C4.24234 4.42043 3.63263 5.1354 3.28086 5.616C2.91737 6.0966 2.40144 6.91707 2.13176 7.43281C1.86207 7.94855 1.48686 8.85109 1.28752 9.42546C1.08819 10.0115 0.853677 11.0079 0.748147 11.6525C0.654343 12.2972 0.572266 13.2466 0.572266 13.7624C0.572266 14.2781 0.630894 15.0752 0.689522 15.5206C0.759873 15.9777 0.912306 16.7513 1.04128 17.2554C1.17027 17.7477 1.47513 18.6151 1.72137 19.1894C1.9676 19.7521 2.46007 20.6663 2.83529 21.2407C3.19878 21.8033 3.89059 22.6589 4.35961 23.1513C4.81693 23.6436 5.60252 24.3468 6.08326 24.7102C6.564 25.0736 7.44341 25.6127 8.01797 25.9175C8.60425 26.2105 9.40159 26.5739 9.80026 26.7263L10.5272 27.0076C10.6093 35.0251 10.6562 36.0214 10.7969 36.4435C10.8907 36.7364 11.1135 37.2054 11.2777 37.4983C11.4418 37.7913 11.8405 38.2718 12.1688 38.5884C12.4971 38.8931 13.1186 39.3033 13.5641 39.5145C14.0097 39.7253 14.6429 39.9129 15.0298 39.948L15.7099 40.0183C15.9796 40.9324 16.2024 41.4601 16.39 41.7768C16.5659 42.1049 16.988 42.6559 17.3163 43.0073C17.6329 43.3587 18.184 43.828 18.524 44.0272C18.8758 44.2383 19.5324 44.543 19.978 44.7071C20.6112 44.9296 21.0333 45 21.7955 45C22.37 45 23.0149 44.9178 23.3198 44.8241C23.6129 44.7185 24.0585 44.5545 24.3164 44.4494C24.5744 44.332 25.0903 44.0505 25.4656 43.8046C25.829 43.5584 26.3567 43.0777 26.6146 42.7492C26.8843 42.4096 27.2009 41.9171 27.3416 41.6594C27.4706 41.4016 27.6699 40.9324 27.7755 40.6045L27.9748 40.0183L43.1944 39.948C43.4406 40.7336 43.6987 41.3194 43.9329 41.7649C44.2148 42.2808 44.625 42.82 45.0943 43.2655C45.5044 43.6402 46.1143 44.0857 46.4422 44.2497C46.7825 44.4256 47.357 44.66 47.7088 44.7775C48.1309 44.9178 48.6939 45 49.3506 45C50.0073 45 50.5699 44.9178 50.992 44.7775C51.3437 44.66 51.9183 44.4256 52.2466 44.2497C52.5869 44.0857 53.1963 43.6402 53.595 43.2655C54.0758 42.82 54.4863 42.2808 54.7674 41.7649C55.0021 41.3194 55.2598 40.7335 55.3539 40.4521L55.5063 39.9598H59.7861L60.5484 39.28C60.5952 26.2692 60.5718 23.5146 60.4896 23.3154C60.4194 23.1513 58.0272 20.678 55.1546 17.8063L49.937 12.5902L40.6151 12.473L40.4977 8.19475L39.8526 7.55002L26.5443 7.49144C26.087 6.62404 25.6649 5.97935 25.3014 5.49875C24.9379 5.0182 24.2344 4.23286 23.7419 3.77574C23.2494 3.30686 22.4169 2.63876 21.8893 2.28711C21.3499 1.93547 20.576 1.49005 20.1539 1.30251C19.7318 1.10325 19.0751 0.845374 18.6882 0.716441C18.3013 0.587504 17.4805 0.364797 16.8707 0.235862ZM3.68772 10.1535C3.575 10.4653 3.45741 10.8491 3.39812 11.0664C3.32776 11.3243 3.22223 12.0159 3.16361 12.5902C3.09325 13.2701 3.09325 14.0672 3.16361 14.8173C3.22223 15.462 3.40984 16.4349 3.574 16.9858C3.73816 17.5367 4.10165 18.4041 4.37134 18.9198C4.64103 19.4355 5.09832 20.174 5.39145 20.5608C5.6963 20.9476 6.27087 21.5806 6.68129 21.9674C7.09167 22.3542 7.85384 22.9403 8.36975 23.2568C8.88563 23.5732 9.64779 23.9717 10.0699 24.1476C10.492 24.3117 11.2308 24.5461 11.7115 24.6751C12.4033 24.8508 12.9779 24.8978 14.467 24.886C16.1555 24.8743 16.4486 24.8391 17.3984 24.5578C17.9729 24.382 18.9579 23.9717 19.5676 23.6553C19.8711 23.4977 20.2414 23.2763 20.5918 23.0474C20.3969 22.3755 20.2099 21.5541 20.2091 20.8476C20.2087 20.5184 20.2968 20.2264 20.39 19.9899C20.443 19.8551 20.5208 19.6878 20.5826 19.555C20.6136 19.4884 20.6405 19.4304 20.6583 19.3896C20.7336 19.2166 20.7524 19.1317 20.7532 19.0868L20.7534 19.084C20.7541 19.0773 20.755 19.0678 20.7362 19.0439L20.7292 19.0442C20.646 19.0479 20.5398 19.0762 20.3391 19.133L20.3207 19.1382C20.1616 19.1833 19.9052 19.256 19.6518 19.2492C19.3306 19.2407 18.9909 19.1055 18.7684 18.7479C18.4655 18.2611 18.6041 17.8038 18.693 17.5481L18.7066 17.509L18.7294 17.444L18.7302 17.4416C18.8041 17.2314 18.8262 17.1686 18.8153 17.0822C18.7963 16.9305 18.7327 16.8295 18.5806 16.5879L18.5804 16.5876C18.4361 16.3585 18.2211 16.0083 18.2338 15.5037C18.2494 14.8876 18.4497 14.2384 18.8247 13.7423C19.2083 13.235 19.8119 12.8518 20.5783 12.9339C21.1094 12.9908 21.4124 13.3104 21.5919 13.5069L21.5989 13.5145C21.792 13.7259 21.8514 13.7909 21.9584 13.8301C22.209 13.9219 22.4169 13.8759 22.815 13.7418L22.8332 13.7357L22.8516 13.7295L22.8823 13.7189C23.2516 13.593 23.7946 13.408 24.4371 13.5659C24.7939 13.6537 25.1575 13.8326 25.4762 14.0231L25.4773 13.8796C25.489 12.391 25.4421 11.8166 25.2662 11.1251C25.1679 10.7586 25.0081 10.2421 24.865 9.83041C24.7756 9.84964 24.6809 9.86862 24.5822 9.88642C24.0197 9.98779 23.2149 10.0739 22.5574 9.86408C22.0353 9.69746 21.7128 9.39964 21.4687 9.1685L21.4481 9.14895C21.212 8.92538 21.0577 8.77909 20.8112 8.67346C20.3486 8.47526 19.8996 8.60425 19.2018 8.80466L19.1973 8.80593L19.1384 8.82286C18.4857 9.01006 17.5454 9.26411 16.6783 8.54718C16.3312 8.2602 16.1215 7.89181 16.0931 7.4653C16.0662 7.06287 16.2061 6.68757 16.391 6.37065C16.7553 5.74605 17.4162 5.14354 18.0685 4.64024C18.5044 4.30388 18.964 3.99138 19.3838 3.72362C18.8612 3.46307 18.0829 3.14185 17.5743 2.9904C17.0232 2.82629 16.0265 2.63876 15.3464 2.56843C14.6663 2.50982 14.0918 2.46293 14.0566 2.47466C14.0214 2.48638 13.7869 2.50982 13.529 2.53326C13.3192 2.55232 12.9156 2.60239 12.5451 2.65825C12.8269 2.86447 13.0977 3.10037 13.3197 3.36496C13.6764 3.79017 13.9568 4.35281 13.8555 5.01075C13.6887 6.0946 13.0788 6.63288 12.4371 7.19918L12.4364 7.1998C12.0085 7.57747 11.5841 7.73243 11.2299 7.85176L11.1511 7.87827C10.8346 7.98435 10.5943 8.0649 10.3324 8.24523C10.1519 8.36955 9.99473 8.57005 9.83938 8.85575C9.73097 9.05523 9.64525 9.25094 9.5518 9.46432L9.55163 9.46473C9.50396 9.57359 9.45423 9.68715 9.39847 9.80804C9.25438 10.1205 9.05832 10.5081 8.74936 10.7765C8.58341 10.9206 8.37962 11.036 8.13399 11.0881C7.89029 11.1398 7.64129 11.1217 7.3941 11.0525C6.78386 10.8818 6.50256 10.4243 6.33387 10.15L6.32959 10.143C6.13944 9.83385 6.06432 9.72642 5.91867 9.6626C5.75971 9.59302 5.5313 9.56884 5.23032 9.61016C4.93418 9.65078 4.61439 9.74835 4.30863 9.8696C4.07691 9.96149 3.86342 10.0629 3.68772 10.1535ZM21.1506 4.80723C21.0006 4.69366 20.7978 4.55543 20.5756 4.41303C20.055 4.72496 19.403 5.14281 18.8102 5.60025C18.1812 6.08556 17.6796 6.56992 17.4395 6.9815C17.3221 7.1827 17.2993 7.31283 17.3041 7.38454C17.3072 7.4322 17.3237 7.50665 17.4519 7.61269C17.784 7.88719 18.1211 7.85287 18.8036 7.65708C18.8514 7.64337 18.9012 7.62864 18.9531 7.61335C19.5527 7.43621 20.4114 7.18253 21.2894 7.55877C21.7413 7.75235 22.0387 8.03573 22.2567 8.24367L22.3035 8.28814C22.5293 8.50193 22.6834 8.63108 22.9266 8.70873C23.2782 8.8209 23.8232 8.7901 24.3587 8.69429C24.1942 8.379 24.01 8.04927 23.8474 7.78447C23.5308 7.26873 22.9446 6.50684 22.5576 6.0966C22.1707 5.68632 21.5375 5.11196 21.1506 4.80723ZM10.8321 3.06072L10.8541 3.05346C11.0331 3.1435 11.2205 3.24497 11.4051 3.35656C11.8037 3.59761 12.1566 3.86649 12.3896 4.14417C12.6212 4.42027 12.6844 4.6413 12.6559 4.82637C12.5617 5.43858 12.2776 5.72183 11.633 6.29076C11.3938 6.50189 11.1613 6.59495 10.842 6.7025C10.8177 6.71073 10.7927 6.71903 10.7671 6.72754L10.7543 6.7318C10.4477 6.83362 10.0529 6.96477 9.64373 7.24655C9.23741 7.52637 8.96889 7.91632 8.77291 8.27681C8.63963 8.52202 8.5177 8.79975 8.41369 9.03674C8.37144 9.13304 8.33207 9.22259 8.29615 9.30052C8.15092 9.6156 8.04518 9.78116 7.95321 9.86101C7.91873 9.891 7.89719 9.89845 7.88191 9.90172C7.86473 9.90536 7.81718 9.91137 7.7213 9.88454C7.60373 9.85165 7.53551 9.78746 7.3636 9.50793C7.35345 9.49148 7.34285 9.47401 7.33171 9.45565C7.17769 9.2016 6.92026 8.77709 6.40591 8.5518C5.96552 8.35891 5.48721 8.35069 5.06532 8.40858C4.83243 8.44049 4.60175 8.49465 4.38198 8.56031C4.60555 8.11694 4.9613 7.52142 5.1921 7.19836C5.42663 6.88193 5.94255 6.27239 6.35297 5.86215C6.7516 5.45191 7.39652 4.90099 7.78344 4.61966C8.1704 4.35007 8.86221 3.93985 9.30777 3.71712C9.76508 3.4827 10.4451 3.20137 10.8321 3.06072ZM25.2567 15.3287C25.3179 15.372 25.3761 15.4147 25.4306 15.4557C25.3887 15.945 25.3084 16.2722 25.149 16.81C24.9731 17.396 24.5861 18.3455 24.2813 18.9198C23.9764 19.5059 23.4136 20.3616 23.0266 20.8421C22.6767 21.2767 22.0872 21.8837 21.6394 22.2734C21.5137 21.7723 21.4233 21.2638 21.4228 20.8463C21.4227 20.7321 21.4533 20.6017 21.5193 20.434C21.5645 20.3194 21.6047 20.2343 21.6508 20.1367C21.6859 20.0624 21.7244 19.9808 21.7712 19.8735C21.8573 19.6758 21.9615 19.4057 21.9667 19.108C21.9725 18.774 21.8544 18.4552 21.592 18.1816C21.3089 17.8864 20.9601 17.8198 20.6748 17.8326C20.4392 17.8431 20.2012 17.911 20.0443 17.9557L20.0085 17.966C19.9263 17.9892 19.8642 18.0055 19.8164 18.0166C19.8223 17.9972 19.8298 17.974 19.8394 17.9461C19.846 17.9275 19.8543 17.9052 19.8639 17.8797C19.934 17.6923 20.0697 17.3302 20.0196 16.9312C19.9657 16.5022 19.7646 16.1874 19.6387 15.9905C19.6277 15.9734 19.6173 15.957 19.6076 15.9416C19.4788 15.7372 19.4442 15.6528 19.4471 15.5344C19.4572 15.1381 19.5899 14.7422 19.7932 14.4734C19.9879 14.2157 20.2082 14.114 20.4489 14.1399C20.5031 14.1456 20.5417 14.1561 20.6956 14.3246C20.7076 14.3377 20.7206 14.3523 20.7347 14.3682L20.7378 14.3716C20.8827 14.5343 21.1387 14.8216 21.5406 14.9688C22.226 15.22 22.8046 15.0252 23.2015 14.8916L23.2025 14.8912C23.6284 14.7478 23.8612 14.6734 24.147 14.7437C24.4669 14.8223 24.8819 15.063 25.2567 15.3287ZM18.9579 36.3847C19.122 36.1972 19.4386 35.8924 19.6731 35.7167C19.9077 35.5407 20.3063 35.318 20.5643 35.2244C20.8926 35.0953 21.3264 35.0484 21.9713 35.072C22.6983 35.1072 23.0383 35.1774 23.4957 35.4119C23.8123 35.5876 24.2695 35.9275 24.5041 36.1738C24.7385 36.4198 25.0552 36.8536 25.2076 37.1466C25.4421 37.5804 25.489 37.8501 25.489 38.7289C25.489 39.573 25.4421 39.8895 25.231 40.3115C25.0903 40.6045 24.7503 41.0735 24.4689 41.3546C24.1875 41.636 23.777 41.9523 23.5543 42.0697C23.3315 42.1867 22.8507 42.3274 22.499 42.3978C22.1355 42.4681 21.5961 42.4796 21.2678 42.4211C20.9395 42.3745 20.4588 42.2219 20.1773 42.0815C19.9077 41.9523 19.509 41.6827 19.2979 41.4953C19.0986 41.3194 18.782 40.9091 18.6061 40.5927C18.4302 40.2764 18.2309 39.7253 18.1723 39.3736C18.1019 38.9634 18.1136 38.4948 18.184 38.0842C18.2426 37.7328 18.3833 37.2757 18.4772 37.0881C18.5827 36.9006 18.7937 36.5722 18.9579 36.3847ZM46.2548 36.7131C46.478 36.3729 46.8294 35.9627 47.0287 35.7988C47.2399 35.6464 47.6739 35.4119 48.0022 35.2829C48.3536 35.1423 48.8817 35.0484 49.3153 35.0369C49.7842 35.0369 50.2765 35.119 50.6636 35.2714C51.0035 35.4001 51.4613 35.6464 51.6602 35.7988C51.8714 35.9627 52.2232 36.3729 52.4459 36.7131C52.6691 37.0412 52.9153 37.6156 52.9855 37.967C53.0677 38.3187 53.1026 38.8462 53.0677 39.1394C53.0324 39.4324 52.9033 39.9365 52.7624 40.2527C52.6337 40.5812 52.2935 41.0617 52.0239 41.3313C51.7424 41.6009 51.3088 41.929 51.0507 42.0582C50.7926 42.1867 50.3003 42.3511 49.96 42.4211C49.5495 42.5033 49.1509 42.5033 48.7292 42.4211C48.4009 42.3511 47.9081 42.1867 47.65 42.0582C47.392 41.929 46.9584 41.6009 46.6769 41.3313C46.4073 41.0617 46.0674 40.5812 45.938 40.2527C45.7974 39.9365 45.6688 39.4324 45.6335 39.1394C45.5985 38.8462 45.6335 38.3187 45.7153 37.967C45.7859 37.6156 46.0321 37.0412 46.2548 36.7131ZM52.9859 24.9856L45.398 17.4322L45.3713 18.095C45.4222 18.1755 45.465 18.2593 45.4929 18.3337C45.5513 18.533 45.5985 20.092 45.5985 24.9563H49.9017C51.082 24.9563 52.1566 24.9669 52.9859 24.9856ZM8.16678 14.3532C8.34164 13.8153 8.76103 13.3439 9.27243 13.0269C9.79627 12.7021 10.3144 12.6005 10.6328 12.6642C10.81 12.6997 10.8696 12.7477 10.8884 12.7651C10.9117 12.7865 10.9386 12.8218 10.9835 12.9289C10.9921 12.9493 11.0015 12.9747 11.0125 13.004L11.0138 13.0075C11.0992 13.2363 11.2724 13.7005 11.7792 13.9785C12.1316 14.1719 12.455 14.2603 12.6814 14.3222C12.7241 14.3338 12.7636 14.3447 12.7989 14.355C13.0136 14.4176 13.1337 14.4711 13.2695 14.6158C13.3977 14.7523 13.4177 14.9008 13.3906 15.3436C13.3894 15.3634 13.3881 15.384 13.3867 15.4053C13.3615 15.7905 13.3203 16.4222 13.7626 16.9762C14.1089 17.4101 14.6214 17.5405 14.8992 17.6112L14.9003 17.6114L14.904 17.6124C14.9313 17.6193 14.9564 17.6257 14.9786 17.6318C15.2743 17.712 15.2809 17.7495 15.2847 17.7709L15.2852 17.7735C15.2854 17.7747 15.2857 17.7758 15.286 17.7768L15.2881 17.7836C15.2423 17.8228 15.1452 17.8834 14.9479 17.9758C14.9026 17.997 14.8508 18.0204 14.7946 18.0457L14.7915 18.0471C14.6088 18.1294 14.381 18.2322 14.1814 18.3477C13.9075 18.5063 13.598 18.7351 13.3922 19.09C13.2333 19.364 13.1595 19.6058 13.1029 19.791L13.0994 19.8026C13.0428 19.9879 13.0027 20.1138 12.9173 20.261C12.7574 20.5364 12.5743 20.7055 12.3288 20.9076C12.3013 20.9304 12.2725 20.9537 12.2428 20.9779L12.2418 20.9788C12.0084 21.1686 11.7136 21.4084 11.436 21.7642C11.3012 21.9369 11.2064 22.1144 11.145 22.2294C11.1321 22.2535 11.1206 22.275 11.1106 22.293C11.0498 22.4024 11.0083 22.4594 10.9365 22.5173L10.9285 22.5239C10.746 22.6711 10.6575 22.7425 10.5718 22.7856C10.5188 22.8122 10.4896 22.8171 10.4343 22.8053C10.4185 22.8019 10.4119 22.7986 10.4109 22.7982C10.4103 22.7979 10.4102 22.7978 10.4094 22.7971C10.4068 22.7948 10.3892 22.7785 10.3597 22.7225C10.3281 22.6625 10.2979 22.588 10.253 22.4724L10.245 22.4516C10.2053 22.3489 10.1544 22.2176 10.0909 22.0865C9.90818 21.7091 10.031 21.3561 10.314 20.6871L10.3237 20.6643L10.3329 20.6426C10.5757 20.07 10.9461 19.1968 10.4194 18.2858C10.1211 17.77 9.70159 17.5248 9.39896 17.3484C9.08655 17.1664 8.904 17.0581 8.75486 16.8391C8.42971 16.3616 8.21569 15.962 8.11406 15.5752C8.01666 15.2046 8.01547 14.8185 8.16678 14.3532ZM10.8711 11.475C10.1495 11.3306 9.31541 11.573 8.6326 11.9963C7.93726 12.4273 7.29547 13.1081 7.01248 13.9785C6.79106 14.6594 6.7823 15.2824 6.94015 15.8832C7.09381 16.468 7.39792 17.0023 7.75147 17.5214C8.06002 17.9746 8.45852 18.2054 8.74064 18.369L8.763 18.3819L8.78758 18.3962C9.08088 18.5671 9.24407 18.6774 9.36842 18.8925C9.56642 19.235 9.47449 19.5567 9.19611 20.2148L9.1816 20.2489L9.16225 20.2944C8.92212 20.8572 8.55917 21.7079 8.99836 22.6148C9.03953 22.6998 9.07397 22.7885 9.11766 22.9011L9.11836 22.9029L9.12132 22.9106L9.12177 22.9118C9.16311 23.0185 9.2169 23.157 9.28615 23.2883C9.44005 23.5799 9.70052 23.8885 10.18 23.9912C10.8743 24.1399 11.3525 23.7461 11.6369 23.5118C11.6588 23.4938 11.6795 23.4767 11.6991 23.4609C11.9435 23.2636 12.0755 23.0548 12.1716 22.882C12.1962 22.8377 12.2169 22.7994 12.2355 22.765C12.2916 22.661 12.328 22.5935 12.3932 22.5099C12.582 22.2679 12.7713 22.1131 13.0072 21.9203L13.0077 21.9199L13.0096 21.9183C13.0392 21.8941 13.0695 21.8693 13.1007 21.8436C13.3801 21.6135 13.6975 21.3342 13.9672 20.8694C14.1264 20.5952 14.2002 20.3533 14.2568 20.1679L14.2602 20.1567C14.3169 19.9712 14.357 19.8453 14.4423 19.6981C14.4964 19.6047 14.6002 19.507 14.7899 19.3971C14.9318 19.3149 15.0745 19.2505 15.2404 19.1758C15.3099 19.1444 15.3834 19.1112 15.4627 19.0742C15.6872 18.9691 16.0038 18.8127 16.2249 18.5593C16.3464 18.4199 16.4471 18.2435 16.4887 18.0275C16.53 17.8135 16.5052 17.6017 16.4402 17.4017C16.2168 16.7153 15.6114 16.5467 15.2968 16.4613C14.9047 16.3549 14.7924 16.3215 14.7114 16.22C14.5802 16.0556 14.574 15.8776 14.602 15.4176L14.604 15.3871C14.6286 14.9897 14.6693 14.3341 14.1546 13.7859C13.8078 13.4166 13.4522 13.2821 13.1393 13.1908C13.0802 13.1735 13.025 13.1582 12.9725 13.1436C12.7539 13.0828 12.5809 13.0347 12.3632 12.9153C12.2685 12.8633 12.2566 12.8341 12.1679 12.6174C12.1498 12.5733 12.1286 12.5215 12.1029 12.4601C12.0341 12.2962 11.9254 12.071 11.7114 11.8737C11.4931 11.6724 11.2139 11.5435 10.8711 11.475Z" fill="#412983" fill-opacity="0.25"/>
</svg>
