<svg width="20" height="17" viewBox="0 0 20 17" fill="none" xmlns="http://www.w3.org/2000/svg">
<path d="M18.7891 13.9102C19.3516 14.8945 18.6484 16.125 17.4883 16.125H2.47656C1.31641 16.125 0.613281 14.8945 1.14062 13.9102L8.66406 1.11328C8.98047 0.621094 9.47266 0.375 10 0.375C10.4922 0.375 10.9844 0.621094 11.3008 1.11328L18.7891 13.9102ZM2.82812 14.4375H17.1367L9.96484 2.23828L2.82812 14.4375ZM10 11.1328C10.5977 11.1328 11.0898 11.625 11.0898 12.2227C11.0898 12.8203 10.5977 13.3125 10 13.3125C9.36719 13.3125 8.875 12.8203 8.875 12.2227C8.875 11.625 9.36719 11.1328 10 11.1328ZM9.15625 5.71875C9.15625 5.26172 9.50781 4.875 10 4.875C10.457 4.875 10.8438 5.26172 10.8438 5.71875V9.09375C10.8438 9.58594 10.457 9.9375 10 9.9375C9.50781 9.9375 9.15625 9.58594 9.15625 9.09375V5.71875Z" fill="#D62246"/>
</svg>
