<svg width="46" height="45" viewBox="0 0 46 45" fill="none" xmlns="http://www.w3.org/2000/svg">
<path fill-rule="evenodd" clip-rule="evenodd" d="M23.4094 0.188328C22.6879 0.125549 21.6587 0.0451131 21.1219 0.0270643C20.5852 0.000383179 20.057 -0.00864131 19.9338 0.00940767C19.8106 0.0270643 19.0981 0.0898431 18.3502 0.143598C17.6024 0.197352 16.4759 0.322518 15.8426 0.421004C15.2089 0.519486 14.1617 0.716458 13.5108 0.868696C13.2494 0.929906 12.9273 1.00956 12.5962 1.09588C12.334 1.16415 12.0661 1.23674 11.8181 1.30736C11.5984 1.37014 11.3939 1.43135 11.2229 1.48668L10.9274 1.58045L10.7034 1.65383L10.3738 1.76447L10.0877 1.86296C9.73815 1.98459 9.40229 2.10662 9.15508 2.20275C8.79019 2.34283 8.25459 2.57001 7.76647 2.78542L7.53578 2.88783C7.39098 2.95257 7.25405 3.01495 7.13162 3.07146C6.55093 3.33984 5.67985 3.78752 5.19569 4.0563C4.7119 4.32469 3.80552 4.8799 3.18087 5.28284C2.52091 5.70346 2.0018 6.0974 1.9402 6.23199C1.8786 6.35715 1.74676 6.76013 1.64985 7.12736C1.60315 7.30434 1.53606 7.579 1.46622 7.8823C1.39127 8.20797 1.31319 8.56697 1.25395 8.87304C1.13074 9.46392 0.963593 10.4668 0.875311 11.1115C0.843529 11.3567 0.816455 11.6165 0.794482 11.8998C0.743082 12.5585 0.717186 13.3464 0.717186 14.3795C0.708161 16.3492 0.717186 16.5015 0.892967 16.7969C1.00754 17.0029 1.19235 17.1552 1.4211 17.2356C1.74676 17.3521 1.82563 17.3431 2.77595 17.0743C3.33036 16.9134 5.60924 16.2417 7.83555 15.5794C10.7477 14.7017 11.9358 14.3168 12.0853 14.1735C12.1999 14.066 12.3231 13.86 12.358 13.7078C12.4019 13.5469 12.3847 12.8932 12.314 12.0963C12.2438 11.3622 12.1292 10.2699 12.0676 9.67895C11.9974 9.08804 11.9621 8.57758 11.9974 8.5509C12.0327 8.51519 12.5342 8.40767 13.1149 8.30015C13.6956 8.20167 14.7251 8.05847 15.4024 7.97763C16.08 7.90621 17.5231 7.80772 18.6143 7.76301C19.1201 7.74337 19.722 7.73241 20.3305 7.73004C21.0988 7.72692 21.8773 7.73791 22.4858 7.76301C23.524 7.80772 24.9319 7.90621 25.6095 7.97763C25.9944 8.02353 26.4935 8.08672 26.9592 8.15066C27.1531 8.17733 27.3414 8.20443 27.5132 8.23031C27.6541 8.25152 27.784 8.2719 27.897 8.29112L28.165 8.33667L28.6672 8.42493L28.8909 8.46614C29.0117 8.4889 29.0964 8.50616 29.129 8.51519C29.3048 8.5509 29.3048 8.56855 29.0674 10.7713C28.9352 11.9888 28.8296 13.1797 28.821 13.4213C28.821 13.7615 28.8649 13.8961 29.0584 14.1198C29.2785 14.3615 29.6391 14.4957 32.6046 15.4181C33.3578 15.6524 34.1923 15.907 34.9791 16.1444C35.4005 16.2715 35.8087 16.3939 36.1838 16.5054C36.7923 16.6866 37.3137 16.8397 37.6637 16.9401C39.3091 17.4059 39.4412 17.4325 39.7225 17.325C39.8902 17.2536 40.1011 17.0833 40.2068 16.9492C40.3563 16.7431 40.4003 16.5015 40.4617 15.6955C40.4971 15.1403 40.5058 14.1107 40.4707 13.3947C40.4441 12.6782 40.3653 11.5772 40.2946 10.9326C40.2245 10.2879 40.0744 9.30304 39.9603 8.73884C39.8459 8.1746 39.6611 7.40478 39.5553 7.03752C39.511 6.8841 39.4695 6.75659 39.4254 6.64634C39.4078 6.60198 39.3898 6.56039 39.3714 6.52076L39.3444 6.46582L39.3216 6.42346C39.2914 6.3693 39.2596 6.31986 39.2252 6.27281C39.1683 6.1955 39.1037 6.12485 39.0278 6.05266C38.9677 5.99461 38.862 5.90946 38.7296 5.8094C38.574 5.69247 38.3818 5.55554 38.1809 5.41822C38.0507 5.32954 37.917 5.24086 37.7871 5.15767C37.2857 4.84419 36.2031 4.23521 35.3758 3.80559L35.0736 3.65021C34.8724 3.54738 34.659 3.44067 34.444 3.33472C33.8181 3.02633 33.1795 2.72578 32.7804 2.56098C32.1734 2.31026 31.0908 1.9073 30.3606 1.67462C30.1366 1.59968 29.8773 1.51689 29.6077 1.43371L29.2502 1.32502L28.914 1.22614L28.5989 1.1359L28.3293 1.06056C28.1865 1.02172 28.0551 0.987191 27.9409 0.958548C27.3339 0.81494 26.3659 0.609339 25.7852 0.50183C25.471 0.44847 25.015 0.382159 24.5473 0.321341C24.3531 0.295837 24.1569 0.27151 23.9674 0.249145C23.77 0.225995 23.5805 0.2052 23.4094 0.188328ZM29.2816 6.42857C29.4119 6.4529 29.5336 6.47605 29.6434 6.49761V6.42857H29.2816ZM40.7173 21.9899H36.5994L36.2999 22.1959C36.0273 22.3748 35.7454 23.0014 33.0531 29.2601L30.0966 36.1363L8.40721 36.181C8.12316 36.4645 7.98385 36.6329 7.91597 36.7817C7.87007 36.882 7.85673 36.9736 7.85319 37.0851C7.85162 37.1179 7.85204 37.1523 7.85358 37.1874L7.85711 37.2468C7.86223 37.3066 7.87084 37.3674 7.88222 37.4252C7.90302 37.5313 7.93323 37.6287 7.96737 37.6939C8.03801 37.8283 8.23145 37.9896 8.38095 38.061C8.62735 38.1774 10.2286 38.1954 19.846 38.1954C30.3253 38.1954 31.0383 38.1864 31.2847 38.0433C31.4255 37.9536 31.6099 37.7566 31.6806 37.6136C31.73 37.5239 32.2711 36.2764 33.0528 34.4632L34.6635 30.7193L37.5052 24.0938C43.8142 24.0224 45.1163 23.9686 45.2311 23.9059C45.3275 23.8521 45.4773 23.6551 45.5564 23.4762C45.6444 23.2969 45.7148 23.0913 45.7148 23.0195C45.7148 22.9477 45.6618 22.7507 45.5917 22.5985C45.5123 22.4195 45.3365 22.2406 45.1517 22.1512C44.8614 22.0076 44.4565 21.9899 40.7173 21.9899ZM25.0637 10.3774C24.8349 10.2789 23.9376 10.2608 20.5761 10.2608C18.2623 10.2699 16.2911 10.2965 16.1946 10.3326C16.0976 10.3684 15.9568 10.4311 15.8866 10.4849C15.8367 10.5131 15.7657 10.5802 15.7006 10.6575L15.6763 10.6873L15.6453 10.7274C15.6276 10.7509 15.6111 10.7748 15.5962 10.798C15.464 10.9949 15.4463 11.3441 15.4463 13.9946V16.9758C9.82406 17.0119 9.48075 17.0296 9.26102 17.1728C9.18214 17.223 9.09741 17.3015 9.02914 17.3827C8.97575 17.4463 8.9322 17.5118 8.90905 17.5667C8.83844 17.737 8.80311 19.0801 8.80311 22.2497C8.80311 26.0368 8.82979 26.7442 8.93535 26.9499C9.01461 27.0844 9.17272 27.2633 9.28731 27.3438C9.48075 27.4693 9.868 27.496 12.4812 27.5141L15.4463 27.5407C15.4463 32.8056 15.473 33.4951 15.5695 33.6918C15.6311 33.8262 15.8336 34.0052 16.0098 34.0949C16.3001 34.2382 16.7137 34.2559 20.5938 34.2559C24.1224 34.2559 24.9142 34.2289 25.1516 34.1216C25.3187 34.0412 25.4949 33.8619 25.5918 33.6741C25.7236 33.3874 25.7413 33.0384 25.7413 30.451V27.5407C31.1791 27.496 31.7159 27.4694 31.874 27.3618C31.9211 27.3261 31.9768 27.2724 32.031 27.212C32.0988 27.137 32.1644 27.0515 32.2083 26.9769C32.2554 26.8882 32.2864 26.7266 32.3064 26.2942C32.3347 25.6774 32.3406 24.5089 32.3406 22.2136V17.6923C31.9972 17.2713 31.7598 17.1104 31.575 17.0653C31.3902 17.0119 30.035 16.9758 28.4953 16.9758H25.7413C25.6974 11.0487 25.6883 10.8965 25.5212 10.6995C25.4247 10.5924 25.2222 10.4488 25.0637 10.3774ZM24.0184 25.7143H24.0753L24.0184 25.7731V25.7143ZM24.0255 45C25.6534 45 26.973 43.6571 26.973 42.0004C26.973 40.3441 25.6534 39.0012 24.0255 39.0012C22.3975 39.0012 21.078 40.3441 21.078 42.0004C21.078 43.6571 22.3975 45 24.0255 45ZM16.5905 42.0004C16.5905 43.6571 15.2705 45 13.6426 45C12.0147 45 10.6951 43.6571 10.6951 42.0004C10.6951 40.3441 12.0147 39.0012 13.6426 39.0012C15.2705 39.0012 16.5905 40.3441 16.5905 42.0004Z" fill="#412983" fill-opacity="0.25"/>
</svg>
