<svg width="55" height="44" viewBox="0 0 55 44" fill="none" xmlns="http://www.w3.org/2000/svg">
<path fill-rule="evenodd" clip-rule="evenodd" d="M42.5966 13.9283L31.7826 3.67491C31.784 3.71608 31.7847 3.7574 31.7847 3.79889C31.7847 5.89675 30.0264 7.59742 27.8574 7.59742C25.6884 7.59742 23.9301 5.89675 23.9301 3.79889C23.9301 3.74268 23.9315 3.68678 23.9339 3.63118L12.9668 13.9283H42.5966ZM29.5025 2.03681C28.4549 1.65053 27.2924 1.64247 26.2399 2.01316C25.7269 2.4483 25.4029 3.08701 25.4029 3.79889C25.4029 5.11006 26.5019 6.17297 27.8574 6.17297C29.213 6.17297 30.312 5.11006 30.312 3.79889C30.312 3.09978 29.9996 2.47127 29.5025 2.03681ZM10.5287 13.9283L10.4578 13.8577L23.3363 1.76594C25.8529 -0.596933 29.8585 -0.587439 32.3631 1.78733L45.0965 13.8606L45.0279 13.9283H50.2756C52.8061 13.9283 54.8574 15.9124 54.8574 18.3599V39.5684C54.8574 42.0159 52.8061 44 50.2756 44H5.43924C2.90877 44 0.857422 42.0159 0.857422 39.5684V18.3599C0.857422 15.9124 2.90877 13.9283 5.43924 13.9283H10.5287ZM12.8996 28.9314C12.8996 27.2444 11.4808 25.8641 9.73664 25.8641H9.7283C7.9841 25.8641 6.56537 27.2363 6.56537 28.9314C6.56537 30.6265 7.9841 31.9987 9.7283 31.9987C11.4808 31.9987 12.8996 30.6265 12.8996 28.9314ZM11.7813 28.9314C11.7813 30.0292 10.8633 30.9171 9.7283 30.9171C8.60166 30.9171 7.68366 30.0292 7.68366 28.9314C7.68366 27.8336 8.60166 26.9457 9.7283 26.9457C10.8633 26.9457 11.7813 27.8336 11.7813 28.9314ZM18.2624 26.5502C18.2624 26.2434 18.0121 26.0013 17.7033 26.0013H13.6224C13.3137 26.0013 13.0633 26.2434 13.0633 26.5502C13.0633 26.8488 13.3137 27.091 13.6224 27.091H15.0996V31.2561C15.0996 31.5547 15.3499 31.7969 15.6587 31.7969C15.9675 31.7969 16.2179 31.5547 16.2179 31.2561V27.091H17.7033C18.0121 27.091 18.2624 26.8488 18.2624 26.5502ZM23.7392 31.692C23.9812 31.5063 24.0146 31.1673 23.8226 30.9332L21.8197 28.5762L23.4471 26.9376C23.6641 26.7278 23.6557 26.3807 23.4387 26.1789C23.2134 25.969 22.8629 25.9771 22.6459 26.1869L20.1757 28.6731V26.5663C20.1757 26.2677 19.9253 26.0255 19.6165 26.0255C19.3077 26.0255 19.0574 26.2677 19.0574 26.5663V31.2722C19.0574 31.5709 19.3077 31.813 19.6165 31.813C19.9253 31.813 20.1757 31.5709 20.1757 31.2722V30.2309L21.0353 29.3592L22.9547 31.6193C23.0632 31.7485 23.2301 31.813 23.3887 31.813C23.5139 31.813 23.639 31.7727 23.7392 31.692ZM29.5502 28.0758C29.5502 26.9618 28.6239 26.0578 27.4806 26.0255H27.4221H25.4192C25.3358 26.0255 25.2607 26.0416 25.1939 26.0659C24.9936 26.1466 24.8601 26.3403 24.8601 26.5663V31.2722C24.8601 31.5709 25.1105 31.813 25.4192 31.813C25.728 31.813 25.9784 31.5709 25.9784 31.2722V30.1341H27.4221C27.4388 30.1341 27.4639 30.1341 27.4806 30.126C28.6239 30.1018 29.5502 29.1897 29.5502 28.0758ZM28.4236 28.0758C28.4236 28.6166 27.9813 29.0525 27.4221 29.0525H25.9784V27.1071H27.4221C27.9729 27.1071 28.4236 27.543 28.4236 28.0758ZM36.5917 26.5663C36.5917 26.2677 36.3413 26.0255 36.0325 26.0255C35.7237 26.0255 35.4734 26.2677 35.4734 26.5663V31.2722C35.4734 31.5709 35.7237 31.813 36.0325 31.813C36.3413 31.813 36.5917 31.5709 36.5917 31.2722V26.5663ZM34.9977 29.8516C34.9977 28.7861 34.1214 27.9143 33.0198 27.882H32.9697H31.6345V26.5663C31.6345 26.2677 31.3841 26.0255 31.0753 26.0255C30.7665 26.0255 30.5162 26.2677 30.5162 26.5663V27.6399V29.5045V31.2722C30.5162 31.5709 30.7665 31.813 31.0753 31.813H32.9697H33.0198C34.1214 31.7808 34.9977 30.9171 34.9977 29.8516ZM33.8794 29.8516C33.8794 30.3359 33.4705 30.7314 32.9697 30.7314H31.6345V28.9637H32.9614H32.9697C33.4705 28.9637 33.8794 29.3592 33.8794 29.8516ZM42.5817 26.5502C42.5817 26.2434 42.3314 26.0013 42.0226 26.0013H37.9417C37.6329 26.0013 37.3825 26.2434 37.3825 26.5502C37.3825 26.8488 37.6329 27.091 37.9417 27.091H39.4188V31.2561C39.4188 31.5547 39.6692 31.7969 39.978 31.7969C40.2867 31.7969 40.5371 31.5547 40.5371 31.2561V27.091H42.0226C42.3314 27.091 42.5817 26.8488 42.5817 26.5502ZM49.0768 28.9314C49.0768 27.2444 47.6581 25.8641 45.9139 25.8641H45.9055C44.1613 25.8641 42.7426 27.2363 42.7426 28.9314C42.7426 30.6265 44.1613 31.9987 45.9055 31.9987C47.6581 31.9987 49.0768 30.6265 49.0768 28.9314ZM47.9585 28.9314C47.9585 30.0292 47.0405 30.9171 45.9055 30.9171C44.7789 30.9171 43.8609 30.0292 43.8609 28.9314C43.8609 27.8336 44.7789 26.9457 45.9055 26.9457C47.0405 26.9457 47.9585 27.8336 47.9585 28.9314Z" fill="#146060" fill-opacity="0.25"/>
</svg>
