<svg width="66" height="45" viewBox="0 0 66 45" fill="none" xmlns="http://www.w3.org/2000/svg">
<path fill-rule="evenodd" clip-rule="evenodd" d="M19.8869 1.57764e-05C19.9276 -0.0102888 22.8266 5.02864 26.3258 11.1908C29.8251 17.3529 32.7038 22.4021 32.7343 22.4227C32.7648 22.4433 35.5927 17.4559 39.0309 11.3556C42.469 5.25534 45.3478 0.195803 45.4291 0.113366C45.5207 0.03093 45.6021 -0.0205927 45.6122 0.010321C45.6326 0.03093 49.0504 8.74858 60.7789 38.6936L65.2852 38.7451V44.6187H42.1944V38.7451L45.6224 38.6936L44.0254 34.005C43.1404 31.4289 42.3877 29.3165 42.3571 29.3165C42.3266 29.3165 40.1701 32.8406 37.5661 37.1479C34.962 41.4552 32.7953 44.9897 32.7546 45C32.714 45.0103 30.5371 41.4552 23.1216 29.1825L21.5144 33.8814C20.6396 36.4781 19.9174 38.7451 19.9174 38.7451H23.2742V44.6187H0.285156V38.7451H4.71004L12.0747 19.8054C16.1334 9.39776 19.5309 0.680115 19.6326 0.44311C19.7241 0.195801 19.8462 1.57764e-05 19.8869 1.57764e-05Z" fill="#412983" fill-opacity="0.25"/>
</svg>
