<svg width="61" height="45" viewBox="0 0 61 45" fill="none" xmlns="http://www.w3.org/2000/svg">
<path fill-rule="evenodd" clip-rule="evenodd" d="M16.4411 0.235862C15.5968 0.0483186 14.952 -0.0102885 13.8028 0.00143292C12.7944 0.0131544 11.9385 0.0952044 11.2818 0.235862C10.7307 0.353076 9.8865 0.587504 9.40575 0.763326C8.925 0.927425 8.10421 1.29079 7.58829 1.54866C7.07237 1.81826 6.25158 2.33399 5.77083 2.69736C5.29008 3.04901 4.57482 3.65852 4.19962 4.04533C3.81267 4.42041 3.20295 5.13542 2.85117 5.616C2.48769 6.09658 1.97176 6.91707 1.70207 7.43282C1.43238 7.94856 1.05717 8.85111 0.857836 9.42546C0.658502 10.0115 0.423991 11.0079 0.318461 11.6525C0.224657 12.2973 0.142578 13.2466 0.142578 13.7624C0.142578 14.2782 0.201206 15.0752 0.259833 15.5206C0.330187 15.9777 0.482619 16.7514 0.611599 17.2554C0.740581 17.7477 1.04544 18.615 1.29168 19.1895C1.53791 19.7521 2.03039 20.6664 2.40561 21.2407C2.7691 21.8033 3.4609 22.659 3.92993 23.1513C4.38722 23.6436 5.17283 24.3468 5.65358 24.7102C6.13433 25.0735 7.01374 25.6128 7.58829 25.9175C8.17457 26.2106 8.9719 26.574 9.37057 26.7263L10.0976 27.0077C10.1796 35.0251 10.2265 36.0214 10.3672 36.4434C10.461 36.7364 10.6838 37.2052 10.848 37.4983C11.0121 37.7913 11.4108 38.2719 11.7391 38.5884C11.9685 38.8013 12.3408 39.0655 12.6963 39.2775L12.7462 39.375H12.8653C12.9593 39.4272 13.05 39.4743 13.1344 39.5144C13.58 39.7253 14.2133 39.9129 14.6002 39.9481L15.2802 40.0184C15.5499 40.9327 15.7727 41.4601 15.9603 41.7766C16.1362 42.1048 16.5583 42.6557 16.8866 43.0074C17.2032 43.359 17.7543 43.8279 18.0943 44.0271C18.4462 44.2382 19.1028 44.5429 19.5483 44.7069C20.1815 44.9297 20.6036 45 21.3658 45C21.9403 45 22.5852 44.918 22.8901 44.8242C23.1833 44.7186 23.6288 44.5546 23.8868 44.4491C24.1448 44.3319 24.6607 44.0506 25.0359 43.8045C25.3993 43.5583 25.927 43.0777 26.185 42.7494C26.4547 42.4096 26.7713 41.9173 26.9119 41.6594C27.0409 41.4016 27.2403 40.9327 27.3458 40.6045L27.5452 40.0184L42.7649 39.9481C43.0111 40.7334 43.2691 41.3194 43.5035 41.7648C43.785 42.2806 44.1954 42.8199 44.6644 43.2653C45.0749 43.6403 45.6845 44.0857 46.0128 44.2498C46.3529 44.4257 46.9275 44.66 47.2793 44.7772C47.7014 44.918 48.2642 45 48.9209 45C49.5774 45 50.1402 44.918 50.5623 44.7772C50.9141 44.66 51.4887 44.4257 51.817 44.2498C52.157 44.0857 52.7667 43.6403 53.1654 43.2653C53.6462 42.8199 54.0566 42.2806 54.338 41.7648C54.5725 41.3194 54.8305 40.7334 54.9243 40.4521L55.0767 39.9598H59.3565L60.1187 39.2799C60.1655 26.2692 60.1421 23.5146 60.0601 23.3154C59.9897 23.1513 57.5977 20.6781 54.7249 17.8063L49.5071 12.5902L40.1853 12.473L40.068 8.19471L39.4231 7.55003L26.1146 7.49143C25.6574 6.62404 25.2353 5.97936 24.8717 5.49879C24.5082 5.01821 23.8047 4.23287 23.3123 3.77574C22.8198 3.30688 21.9872 2.63876 21.4595 2.28711C20.9202 1.93547 20.1463 1.49005 19.7243 1.30251C19.3021 1.10325 18.6454 0.845376 18.2585 0.716439C17.8715 0.587504 17.0508 0.364797 16.4411 0.235862ZM10.4024 3.06073C10.7894 2.93179 11.446 2.76769 11.8681 2.69736C12.2903 2.62703 12.8413 2.55671 13.0993 2.53326C13.3572 2.50982 13.5918 2.48637 13.6269 2.47465C13.6621 2.46293 14.2367 2.50982 14.9168 2.56843C15.5968 2.63876 16.5935 2.82629 17.1446 2.9904C17.6957 3.1545 18.5634 3.51786 19.0793 3.78746C19.5953 4.05704 20.334 4.51419 20.7208 4.80721C21.1078 5.11198 21.741 5.68632 22.128 6.09658C22.5149 6.50683 23.1011 7.26871 23.4177 7.78446C23.7344 8.30021 24.133 9.0621 24.3088 9.48407C24.473 9.90604 24.7076 10.6445 24.8365 11.1251C25.0125 11.8167 25.0593 12.391 25.0477 13.8796C25.0359 15.5675 25.0007 15.8605 24.7193 16.81C24.5434 17.396 24.1564 18.3455 23.8516 18.9198C23.5467 19.5059 22.9839 20.3616 22.597 20.8421C22.21 21.3227 21.5299 22.0142 21.0727 22.3894C20.627 22.7645 19.7477 23.3388 19.1379 23.6553C18.5282 23.9717 17.5433 24.382 16.9688 24.5578C16.0189 24.8391 15.7258 24.8743 14.0373 24.886C12.5482 24.8977 11.9737 24.8509 11.2818 24.6751C10.8011 24.5461 10.0624 24.3117 9.64026 24.1476C9.21814 23.9717 8.45598 23.5733 7.94005 23.2568C7.42413 22.9403 6.66197 22.3542 6.25158 21.9674C5.84118 21.5805 5.26664 20.9476 4.96177 20.5608C4.66863 20.1741 4.21134 19.4356 3.94165 18.9198C3.67196 18.4041 3.30847 17.5367 3.14431 16.9858C2.98015 16.4349 2.79255 15.462 2.73392 14.8174C2.66357 14.0671 2.66357 13.2701 2.73392 12.5902C2.79255 12.0159 2.89808 11.3244 2.96843 11.0665C3.03879 10.8086 3.19121 10.3163 3.3202 9.98809C3.43746 9.64817 3.71887 9.01521 3.94165 8.58152C4.16444 8.1361 4.52793 7.52659 4.76244 7.19839C4.99695 6.88192 5.51287 6.27239 5.92327 5.86215C6.32193 5.4519 6.96684 4.90099 7.35378 4.61968C7.74073 4.35008 8.43252 3.93983 8.87811 3.71712C9.3354 3.4827 10.0155 3.20138 10.4024 3.06073ZM18.5282 36.3848C18.6924 36.1972 19.009 35.8924 19.2435 35.7166C19.4779 35.5408 19.8767 35.3181 20.1346 35.2243C20.463 35.0954 20.8968 35.0485 21.5417 35.072C22.2686 35.1071 22.6087 35.1774 23.066 35.4118C23.3825 35.5877 23.8399 35.9277 24.0744 36.1738C24.3088 36.42 24.6255 36.8536 24.7779 37.1466C25.0125 37.5803 25.0593 37.8499 25.0593 38.729C25.0593 39.573 25.0125 39.8895 24.8014 40.3115C24.6607 40.6045 24.3206 41.0733 24.0392 41.3547C23.7578 41.6359 23.3475 41.9524 23.1247 42.0696C22.9018 42.1868 22.421 42.3276 22.0693 42.3979C21.7059 42.4682 21.1665 42.4799 20.8382 42.4213C20.5098 42.3744 20.0291 42.222 19.7477 42.0814C19.4779 41.9524 19.0793 41.6828 18.8682 41.4953C18.669 41.3195 18.3524 40.9092 18.1765 40.5927C18.0005 40.2762 17.8013 39.7253 17.7427 39.3738C17.6723 38.9635 17.6839 38.4946 17.7543 38.0844C17.8129 37.7327 17.9537 37.2755 18.0475 37.088C18.153 36.9004 18.364 36.5723 18.5282 36.3848ZM45.8252 36.7129C46.048 36.3731 46.3998 35.9628 46.5991 35.7986C46.8102 35.6463 47.2441 35.4118 47.5724 35.2829C47.9242 35.1423 48.4518 35.0485 48.8857 35.0368C49.3547 35.0368 49.8472 35.1188 50.234 35.2712C50.5741 35.4002 51.0314 35.6463 51.2307 35.7986C51.4418 35.9628 51.7936 36.3731 52.0164 36.7129C52.2391 37.0412 52.4853 37.6155 52.5557 37.9672C52.6377 38.3187 52.6729 38.8463 52.6377 39.1393C52.6027 39.4324 52.4737 39.9364 52.3329 40.2528C52.2039 40.581 51.8639 41.0616 51.5942 41.3312C51.3128 41.6008 50.8789 41.929 50.621 42.0579C50.363 42.1868 49.8706 42.351 49.5305 42.4213C49.1201 42.5033 48.7215 42.5033 48.2994 42.4213C47.971 42.351 47.4785 42.1868 47.2205 42.0579C46.9627 41.929 46.5288 41.6008 46.2474 41.3312C45.9777 41.0616 45.6377 40.581 45.5087 40.2528C45.3679 39.9364 45.2389 39.4324 45.2039 39.1393C45.1687 38.8463 45.2038 38.3187 45.2859 37.9672C45.3563 37.6155 45.6025 37.0412 45.8252 36.7129ZM15.0926 5.70977C14.4243 5.11198 14.2133 5.02993 13.8732 5.02993C13.5097 5.02993 13.322 5.11198 13.0406 5.3933L12.6655 5.75666L12.6772 14.114C13.2048 14.8408 14.1781 15.8488 15.163 16.8217C16.5818 18.2166 17.0626 18.615 17.3791 18.6853C17.6605 18.744 17.9067 18.7089 18.1765 18.5799C18.3758 18.4744 18.6338 18.2166 18.7392 18.0173C18.8682 17.7477 18.9034 17.5015 18.8448 17.2203C18.7744 16.892 18.3758 16.4232 16.957 14.9931L15.163 13.1763L15.0926 5.70977ZM45.126 19.3659C45.1519 20.328 45.1687 22.0537 45.1687 24.9563H49.4719C50.2351 24.9563 50.954 24.9608 51.5911 24.9689L45.126 19.3659Z" fill="#146060" fill-opacity="0.25"/>
</svg>
