<svg width="71" height="45" viewBox="0 0 71 45" fill="none" xmlns="http://www.w3.org/2000/svg">
<path d="M23.7107 28.8C27.5805 28.8 31.2919 27.2829 34.0283 24.5823C36.7646 21.8818 38.3019 18.2191 38.3019 14.4C38.3019 10.5809 36.7646 6.91819 34.0283 4.21766C31.2919 1.51714 27.5805 0 23.7107 0H10.0315C9.30586 0 8.60999 0.284464 8.09692 0.790812C7.58385 1.29716 7.2956 1.98392 7.2956 2.7V23.4H2.73585C2.01026 23.4 1.31438 23.6845 0.801312 24.1908C0.28824 24.6972 0 25.3839 0 26.1C0 26.8161 0.28824 27.5028 0.801312 28.0092C1.31438 28.5155 2.01026 28.8 2.73585 28.8H7.2956V32.4H2.73585C2.01026 32.4 1.31438 32.6845 0.801312 33.1908C0.28824 33.6972 0 34.3839 0 35.1C0 35.8161 0.28824 36.5028 0.801312 37.0092C1.31438 37.5155 2.01026 37.8 2.73585 37.8H7.2956V42.3C7.2956 43.0161 7.58385 43.7028 8.09692 44.2092C8.60999 44.7155 9.30586 45 10.0315 45C10.757 45 11.4529 44.7155 11.966 44.2092C12.4791 43.7028 12.7673 43.0161 12.7673 42.3V37.8H22.7988C23.5244 37.8 24.2202 37.5155 24.7333 37.0092C25.2464 36.5028 25.5346 35.8161 25.5346 35.1C25.5346 34.3839 25.2464 33.6972 24.7333 33.1908C24.2202 32.6845 23.5244 32.4 22.7988 32.4H12.7673V28.8H23.7107ZM12.7673 5.4H23.7107C26.1294 5.4 28.4489 6.34821 30.1592 8.03604C31.8694 9.72387 32.8302 12.0131 32.8302 14.4C32.8302 16.7869 31.8694 19.0761 30.1592 20.764C28.4489 22.4518 26.1294 23.4 23.7107 23.4H12.7673V5.4Z" fill="#146060" fill-opacity="0.25"/>
<path d="M54.8673 44.1153C55.4194 44.6581 56.1678 44.9631 56.9481 44.9631C57.7284 44.9631 58.4768 44.6581 59.0288 44.1153L70.1373 33.1844C70.6897 32.6406 71 31.903 71 31.1339C71 30.3648 70.6897 29.6272 70.1373 29.0834C69.5849 28.5396 68.8358 28.2341 68.0546 28.2341C67.2734 28.2341 66.5243 28.5396 65.9719 29.0834L59.8926 35.0668V3.15031C59.8926 2.38147 59.5823 1.64412 59.0301 1.10047C58.478 0.556817 57.729 0.251396 56.9481 0.251395C56.1672 0.251395 55.4182 0.556816 54.866 1.10047C54.3139 1.64412 54.0036 2.38147 54.0036 3.15031V35.0668L47.9263 29.0834C47.6528 28.8141 47.3281 28.6005 46.9707 28.4548C46.6134 28.3091 46.2304 28.2341 45.8436 28.2341C45.4568 28.2341 45.0738 28.3091 44.7164 28.4548C44.3591 28.6005 44.0343 28.8141 43.7608 29.0834C43.4873 29.3527 43.2704 29.6723 43.1224 30.0242C42.9743 30.376 42.8982 30.7531 42.8982 31.1339C42.8982 31.5147 42.9743 31.8918 43.1224 32.2436C43.2704 32.5954 43.4873 32.9151 43.7608 33.1844L54.8673 44.1153Z" fill="#146060" fill-opacity="0.25"/>
</svg>
