<svg width="30" height="44" viewBox="0 0 30 44" fill="none" xmlns="http://www.w3.org/2000/svg">
<path fill-rule="evenodd" clip-rule="evenodd" d="M14.919 1.22149C11.6998 1.22149 8.61249 2.5075 6.33623 4.79656C4.05992 7.08561 2.78114 10.1903 2.78114 13.4276C2.78114 15.0575 3.52566 17.3525 4.71663 19.9462C5.89685 22.5164 7.47578 25.2974 9.06252 27.8699C10.648 30.4403 12.2344 32.7918 13.425 34.5013C14.0201 35.3557 14.5158 36.0491 14.8625 36.5285L14.919 36.6065L14.9754 36.5285C15.3221 36.0491 15.8179 35.3557 16.413 34.5013C17.6036 32.7918 19.1901 30.4403 20.7754 27.8699C22.3622 25.2974 23.9411 22.5164 25.1213 19.9462C26.3123 17.3525 27.0568 15.0575 27.0568 13.4276C27.0568 10.1903 25.778 7.08561 23.5017 4.79656C21.2254 2.5075 18.1382 1.22149 14.919 1.22149ZM14.919 37.6371C14.4328 38.0031 14.4327 38.003 14.4326 38.0028L14.4321 38.0021L14.4302 37.9996L14.423 37.9899L14.3951 37.9522L14.3635 37.9095C14.3426 37.8812 14.3171 37.8465 14.2873 37.8059C14.2449 37.7483 14.1939 37.6784 14.1344 37.597C14.0617 37.4973 13.9766 37.3802 13.8802 37.2469C13.5298 36.7625 13.0298 36.0631 12.4301 35.202C11.231 33.4803 9.63113 31.1091 8.03029 28.5137C6.43071 25.9203 4.82335 23.0921 3.61385 20.4582C2.41512 17.8477 1.56648 15.3436 1.56648 13.4276C1.56648 9.86633 2.97327 6.45098 5.47735 3.93285C7.9814 1.4147 11.3777 0 14.919 0C18.4603 0 21.8565 1.4147 24.3606 3.93285C26.8647 6.45098 28.2715 9.86633 28.2715 13.4276C28.2715 15.3436 27.4229 17.8477 26.2241 20.4582C25.0146 23.0921 23.4072 25.9203 21.8076 28.5137C20.2068 31.1091 18.6069 33.4803 17.4078 35.202C16.8081 36.0631 16.3081 36.7625 15.9578 37.2469C15.8839 37.349 15.8167 37.4416 15.7566 37.5241C15.6742 37.6374 15.6051 37.7317 15.5506 37.8059C15.5036 37.87 15.4673 37.9191 15.4428 37.9522L15.4271 37.9735L15.4149 37.9899L15.4078 37.9996L15.4059 38.0021L15.4054 38.0028C15.4054 38.0028 15.4053 38.0029 15.3971 37.9968L15.4052 38.0031L14.919 38.6561L14.4328 38.0031L14.919 37.6371ZM14.935 34.3543C14.935 34.3543 25.9458 19.5662 25.9458 13.4393C25.9458 10.5026 24.7858 7.68628 22.7208 5.60971C20.6559 3.53321 17.8553 2.36663 14.935 2.36663C12.0148 2.36663 9.21413 3.53321 7.14925 5.60971C5.08431 7.68628 3.92425 10.5026 3.92425 13.4393C3.92425 19.5662 14.935 34.3543 14.935 34.3543ZM11.6823 13.4393C11.6823 11.6327 13.1386 10.1683 14.935 10.1683C16.7314 10.1683 18.1877 11.6327 18.1877 13.4393C18.1877 15.2458 16.7314 16.7103 14.935 16.7103C13.1386 16.7103 11.6823 15.2458 11.6823 13.4393ZM14.935 9.32849C12.6774 9.32849 10.8472 11.169 10.8472 13.4393C10.8472 15.7096 12.6774 17.5501 14.935 17.5501C17.1927 17.5501 19.0228 15.7096 19.0228 13.4393C19.0228 11.169 17.1927 9.32849 14.935 9.32849ZM14.9277 41.2517C20.1687 41.2517 24.4173 39.4572 24.4173 37.2437C24.4173 36.1475 23.3755 35.1542 21.6874 34.4306C26.2904 35.2815 29.4277 36.974 29.4277 38.9232C29.4277 41.727 22.9358 44 14.9277 44C6.91961 44 0.427734 41.727 0.427734 38.9232C0.427734 36.974 3.56503 35.2815 8.16808 34.4306C6.47994 35.1542 5.43821 36.1475 5.43821 37.2437C5.43821 39.4572 9.68678 41.2517 14.9277 41.2517Z" fill="#412983" fill-opacity="0.25"/>
</svg>
