<svg width="18" height="15" viewBox="0 0 18 15" fill="none" xmlns="http://www.w3.org/2000/svg">
<path d="M16.875 10.5938C17.2305 10.5938 17.5312 10.8672 17.5312 11.25C17.5312 11.6055 17.2305 11.9062 16.875 11.9062C16.4922 11.9062 16.2188 11.6055 16.2188 11.25C16.2188 10.8672 16.4922 10.5938 16.875 10.5938ZM13.293 8.26953C13.5391 8.87109 13.1289 9.5 12.4727 9.5H11.5977V10.375H9C8.50781 10.375 8.125 10.7852 8.125 11.25C8.125 11.7422 8.50781 12.125 9 12.125L11.5977 12.1523C11.5977 13.1094 10.8047 13.875 9.84766 13.875H8.09766V14.75H2V9.91016C0.90625 8.95312 0.25 7.55859 0.25 6C0.25 3.10156 2.60156 0.75 5.5 0.75H6.64844C8.50781 0.75 10.2305 1.67969 11.2969 3.18359C11.9531 4.14062 12.7188 6.98438 13.293 8.26953ZM9.4375 6.875C9.90234 6.875 10.3125 6.49219 10.3125 6C10.3125 5.53516 9.90234 5.125 9.4375 5.125C8.94531 5.125 8.5625 5.53516 8.5625 6C8.5625 6.49219 8.94531 6.875 9.4375 6.875ZM13.375 10.5938C13.7305 10.5938 14.0312 10.8672 14.0312 11.25C14.0312 11.6055 13.7031 11.9062 13.375 11.9062C13.0195 11.9062 12.7188 11.6055 12.7188 11.25C12.7188 10.8672 12.9922 10.5938 13.375 10.5938ZM16.875 9.28125C16.4922 9.28125 16.2188 8.98047 16.2188 8.625C16.2188 8.24219 16.4922 7.96875 16.875 7.96875C17.2305 7.96875 17.5312 8.24219 17.5312 8.625C17.5312 8.98047 17.2305 9.28125 16.875 9.28125ZM15.125 9.28125C15.4805 9.28125 15.7812 9.55469 15.7812 9.9375C15.7812 10.293 15.4531 10.5938 15.125 10.5938C14.7695 10.5938 14.4688 10.293 14.4688 9.9375C14.4688 9.55469 14.7422 9.28125 15.125 9.28125ZM15.125 11.9062C15.4805 11.9062 15.7812 12.1797 15.7812 12.5625C15.7812 12.918 15.4531 13.2188 15.125 13.2188C14.7695 13.2188 14.4688 12.918 14.4688 12.5625C14.4688 12.1797 14.7422 11.9062 15.125 11.9062ZM16.875 13.2188C17.2305 13.2188 17.5312 13.4922 17.5312 13.875C17.5312 14.2305 17.2305 14.5312 16.875 14.5312C16.4922 14.5312 16.2188 14.2305 16.2188 13.875C16.2188 13.4922 16.4922 13.2188 16.875 13.2188Z" fill="#6851AA" fill-opacity="0.6"/>
</svg>
