<svg width="17" height="14" viewBox="0 0 17 14" fill="none" xmlns="http://www.w3.org/2000/svg">
<path d="M8.125 9.8125C8.125 10.7969 8.39844 11.6992 8.89062 12.4648L8.75391 12.6289C8.39844 12.9844 7.82422 12.9844 7.49609 12.6289L2.19141 7.16016C0.660156 5.57422 0.742188 2.94922 2.46484 1.47266C3.94141 0.1875 6.21094 0.433594 7.57812 1.82812L8.125 2.40234L8.64453 1.82812C10.0117 0.433594 12.2539 0.1875 13.7852 1.47266C14.9609 2.51172 15.3438 4.07031 14.9883 5.46484C14.3594 5.16406 13.6484 5 12.9375 5C10.2578 5 8.125 7.16016 8.125 9.8125ZM16.875 9.8125C16.875 12 15.0977 13.75 12.9375 13.75C10.75 13.75 9 12 9 9.8125C9 7.65234 10.75 5.875 12.9375 5.875C15.0977 5.875 16.875 7.65234 16.875 9.8125ZM14.1406 8.63672L12.5 10.3047L11.707 9.51172C11.543 9.34766 11.2422 9.34766 11.0781 9.51172C10.9141 9.67578 10.9141 9.97656 11.0781 10.1406L12.1719 11.2344C12.3359 11.3984 12.6367 11.3984 12.8008 11.2344L14.7695 9.26562C14.9336 9.10156 14.9336 8.80078 14.7695 8.63672C14.6055 8.47266 14.3047 8.47266 14.1406 8.63672Z" fill="#6851AA" fill-opacity="0.6"/>
</svg>
