<svg width="18" height="15" viewBox="0 0 18 15" fill="none" xmlns="http://www.w3.org/2000/svg">
<path d="M4.625 12.8633C4.32422 12.9727 4.05078 13 3.75 13C2.27344 13 1.125 11.8242 1.125 10.375V2.5C0.632812 2.5 0.25 2.11719 0.25 1.625C0.25 1.16016 0.632812 0.75 1.125 0.75H6.375C6.83984 0.75 7.25 1.16016 7.25 1.625C7.25 2.11719 6.83984 2.5 6.375 2.5V9.22656L5.03516 11.4141C4.76172 11.8516 4.625 12.3438 4.625 12.8633ZM2.875 5.125H4.625V2.5H2.875V5.125ZM14.25 0.75C14.7148 0.75 15.125 1.16016 15.125 1.625C15.125 2.11719 14.7148 2.5 14.25 2.5V6.62891L17.4492 11.8789C17.6406 12.1797 17.75 12.5078 17.75 12.8633C17.75 13.9023 16.875 14.75 15.8359 14.75H7.38672C6.34766 14.75 5.47266 13.9023 5.47266 12.8633C5.47266 12.5078 5.58203 12.1797 5.77344 11.8789L8.97266 6.62891V2.5C8.50781 2.5 8.09766 2.11719 8.09766 1.625C8.09766 1.16016 8.50781 0.75 8.97266 0.75H14.25ZM10.75 2.5V6.875C10.75 7.03906 10.6953 7.20312 10.6133 7.33984L9.27344 9.5H13.9492L12.6094 7.33984C12.5273 7.20312 12.5 7.03906 12.5 6.875V2.5H10.75Z" fill="#6851AA" fill-opacity="0.6"/>
</svg>
