<svg width="12" height="15" viewBox="0 0 12 15" fill="none" xmlns="http://www.w3.org/2000/svg">
<path d="M1.10547 0.832031C1.35156 0.722656 1.625 0.75 1.81641 0.914062L2.9375 1.87109L4.03125 0.914062C4.27734 0.722656 4.63281 0.722656 4.87891 0.914062L6 1.87109L7.09375 0.914062C7.33984 0.722656 7.69531 0.722656 7.94141 0.914062L9.0625 1.87109L10.1562 0.914062C10.3477 0.75 10.6211 0.722656 10.8672 0.832031C11.0859 0.941406 11.25 1.16016 11.25 1.40625V14.0938C11.25 14.3672 11.0859 14.5859 10.8672 14.6953C10.6211 14.8047 10.3477 14.7773 10.1562 14.6133L9.0625 13.6562L7.94141 14.6133C7.69531 14.8047 7.33984 14.8047 7.09375 14.6133L6 13.6562L4.87891 14.6133C4.63281 14.8047 4.27734 14.8047 4.03125 14.6133L2.9375 13.6562L1.81641 14.6133C1.625 14.7773 1.35156 14.8047 1.10547 14.6953C0.886719 14.5859 0.75 14.3672 0.75 14.0938V1.40625C0.75 1.16016 0.886719 0.941406 1.10547 0.832031ZM3.375 4.6875C3.12891 4.6875 2.9375 4.90625 2.9375 5.125C2.9375 5.37109 3.12891 5.5625 3.375 5.5625H8.625C8.84375 5.5625 9.0625 5.37109 9.0625 5.125C9.0625 4.90625 8.84375 4.6875 8.625 4.6875H3.375ZM3.375 10.8125H8.625C8.84375 10.8125 9.0625 10.6211 9.0625 10.375C9.0625 10.1562 8.84375 9.9375 8.625 9.9375H3.375C3.12891 9.9375 2.9375 10.1562 2.9375 10.375C2.9375 10.6211 3.12891 10.8125 3.375 10.8125ZM3.375 7.3125C3.12891 7.3125 2.9375 7.53125 2.9375 7.75C2.9375 7.99609 3.12891 8.1875 3.375 8.1875H8.625C8.84375 8.1875 9.0625 7.99609 9.0625 7.75C9.0625 7.53125 8.84375 7.3125 8.625 7.3125H3.375Z" fill="#ED6A5A"/>
</svg>
