<svg width="15" height="15" viewBox="0 0 15 15" fill="none" xmlns="http://www.w3.org/2000/svg">
<path d="M5.6875 5.5625C5.90625 5.5625 6.125 5.78125 6.09766 5.97266C6.09766 6.21875 5.87891 6.41016 5.66016 6.41016C5.44141 6.41016 5.25 6.21875 5.25 6C5.25 5.75391 5.44141 5.5625 5.6875 5.5625ZM7.4375 7.3125C7.65625 7.3125 7.875 7.53125 7.875 7.75C7.875 7.96875 7.68359 8.1875 7.4375 8.1875C7.21875 8.1875 7 7.96875 7 7.75C7 7.50391 7.19141 7.3125 7.4375 7.3125ZM13.918 8.26953C14.1641 8.87109 13.7539 9.5 13.0977 9.5H12.2227V11.2773C12.2227 12.2344 11.457 13 10.4727 13H8.72266L8.75 14.75H1.75V9.91016C0.65625 8.95312 0 7.55859 0 6C0 3.10156 2.32422 0.75 5.25 0.75H7.27344C9.13281 0.75 10.8555 1.67969 11.9219 3.18359C12.5781 4.14062 13.3438 6.98438 13.918 8.26953ZM10.0625 7.3125C10.2812 7.3125 10.4727 7.12109 10.4727 6.875C10.4727 6.65625 10.2812 6.4375 10.0625 6.4375H9.70703C8.94141 6.4375 8.55859 5.50781 9.10547 4.96094L9.32422 4.71484C9.51562 4.55078 9.51562 4.27734 9.32422 4.11328C9.16016 3.92188 8.88672 3.92188 8.72266 4.11328L8.47656 4.33203C7.92969 4.87891 7 4.49609 7 3.73047V3.375C7 3.15625 6.78125 2.9375 6.5625 2.9375C6.31641 2.9375 6.125 3.15625 6.125 3.375V3.73047C6.125 4.49609 5.16797 4.87891 4.62109 4.33203L4.375 4.11328C4.21094 3.92188 3.9375 3.92188 3.77344 4.11328C3.58203 4.27734 3.58203 4.55078 3.77344 4.71484L3.99219 4.96094C4.53906 5.50781 4.15625 6.4375 3.39062 6.4375H3.0625C2.81641 6.4375 2.625 6.65625 2.625 6.875C2.625 7.12109 2.81641 7.3125 3.0625 7.3125H3.39062C4.15625 7.3125 4.53906 8.26953 3.99219 8.81641L3.77344 9.0625C3.58203 9.22656 3.58203 9.5 3.77344 9.66406C3.85547 9.74609 3.96484 9.80078 4.07422 9.80078C4.18359 9.80078 4.29297 9.74609 4.375 9.66406L4.62109 9.44531C5.16797 8.89844 6.125 9.28125 6.125 10.0469V10.375C6.125 10.6211 6.31641 10.8125 6.5625 10.8125C6.78125 10.8125 7 10.6211 7 10.375V10.0469C7 9.28125 7.92969 8.89844 8.47656 9.44531L8.72266 9.66406C8.80469 9.74609 8.91406 9.80078 9.02344 9.80078C9.13281 9.80078 9.24219 9.74609 9.32422 9.66406C9.51562 9.5 9.51562 9.22656 9.32422 9.0625L9.10547 8.81641C8.55859 8.26953 8.94141 7.3125 9.70703 7.3125H10.0625Z" fill="#6851AA" fill-opacity="0.6"/>
</svg>
