<svg width="18" height="16" viewBox="0 0 18 16" fill="none" xmlns="http://www.w3.org/2000/svg">
<path d="M17.75 12.2344C17.75 13.9297 16.0273 15.1328 14.3047 14.668L12.6914 14.2305C11.543 13.9297 10.7227 12.9453 10.7227 11.7969L10.75 9.41797L13.0742 10.9766C13.1836 11.0586 13.3203 11.0312 13.375 10.9219L13.6211 10.5664C13.7031 10.457 13.6758 10.3203 13.5664 10.2656L9 7.20312L4.40625 10.2656C4.35156 10.293 4.32422 10.3477 4.32422 10.4023C4.29688 10.457 4.32422 10.5117 4.35156 10.5664L4.59766 10.9219C4.625 10.9766 4.67969 11.0039 4.73438 11.0039C4.78906 11.0312 4.84375 11.0039 4.89844 10.9766L7.25 9.41797V11.7969C7.25 12.9453 6.42969 13.9297 5.28125 14.2305L3.66797 14.668C1.94531 15.1328 0.25 13.9023 0.25 12.2344C0.25 11.9609 0.277344 11.6875 0.332031 11.4414C0.933594 9.19922 1.86328 7.06641 3.12109 5.125C3.75 4.16797 4.13281 3.375 5.33594 3.375C6.375 3.375 7.25 4.19531 7.25 5.17969V6.82031L8.125 6.21875C8.26172 6.13672 8.34375 6 8.34375 5.86328V1.1875C8.34375 0.96875 8.53516 0.75 8.78125 0.75H9.21875C9.4375 0.75 9.65625 0.96875 9.65625 1.1875V5.86328C9.65625 6 9.71094 6.13672 9.84766 6.21875L10.75 6.82031V5.17969C10.75 4.19531 11.5977 3.375 12.6367 3.375C13.8398 3.375 14.2227 4.16797 14.8516 5.125C16.1094 7.06641 17.0391 9.19922 17.6406 11.4414C17.6953 11.6875 17.75 11.9609 17.75 12.2344Z" fill="#6851AA" fill-opacity="0.6"/>
</svg>
