<svg width="20" height="20" viewBox="0 0 20 20" fill="none" xmlns="http://www.w3.org/2000/svg">
<path fill-rule="evenodd" clip-rule="evenodd" d="M10.3445 4.14272C10.1543 3.95243 9.84574 3.95243 9.65545 4.14272L7.58817 6.21C7.39788 6.40028 7.39788 6.7088 7.58817 6.89909L9.65545 8.96637C9.84574 9.15666 10.1543 9.15666 10.3445 8.96637L12.4118 6.89909C12.6021 6.7088 12.6021 6.40028 12.4118 6.21L10.3445 4.14272ZM6.89909 7.58817C6.7088 7.39788 6.40028 7.39788 6.21 7.58817L4.14272 9.65545C3.95243 9.84574 3.95243 10.1543 4.14272 10.3445L6.21 12.4118C6.40028 12.6021 6.7088 12.6021 6.89909 12.4118L8.96637 10.3445C9.15666 10.1543 9.15666 9.84574 8.96637 9.65545L6.89909 7.58817ZM13.1009 7.58817C13.2912 7.39788 13.5997 7.39788 13.79 7.58817L15.8573 9.65545C16.0476 9.84574 16.0476 10.1543 15.8573 10.3445L13.79 12.4118C13.5997 12.6021 13.2912 12.6021 13.1009 12.4118L11.0336 10.3445C10.8433 10.1543 10.8433 9.84574 11.0336 9.65545L13.1009 7.58817ZM10.3445 11.0336C10.1543 10.8433 9.84574 10.8433 9.65545 11.0336L7.58817 13.1009C7.39788 13.2912 7.39788 13.5997 7.58817 13.79L9.65545 15.8573C9.84574 16.0476 10.1543 16.0476 10.3445 15.8573L12.4118 13.79C12.6021 13.5997 12.6021 13.2912 12.4118 13.1009L10.3445 11.0336Z" fill="#48A4A3"/>
</svg>
