<svg width="14" height="13" viewBox="0 0 14 13" fill="none" xmlns="http://www.w3.org/2000/svg">
<path d="M9.625 12.875V9.375H13.125L9.625 12.875ZM11.8125 0.625C12.5234 0.625 13.125 1.22656 13.125 1.9375V8.5H9.625C9.13281 8.5 8.75 8.91016 8.75 9.375V12.875H2.1875C1.44922 12.875 0.875 12.3008 0.875 11.5625V1.9375C0.875 1.19922 1.44922 0.625 2.1875 0.625H11.8125ZM9.625 6.53125V5.21875C9.625 5.10938 9.51562 5 9.40625 5H7.875V3.46875C7.875 3.35938 7.76562 3.25 7.65625 3.25H6.34375C6.20703 3.25 6.125 3.35938 6.125 3.46875V5H4.59375C4.45703 5 4.375 5.10938 4.375 5.21875V6.53125C4.375 6.66797 4.45703 6.75 4.59375 6.75H6.125V8.28125C6.125 8.41797 6.20703 8.5 6.34375 8.5H7.65625C7.76562 8.5 7.875 8.41797 7.875 8.28125V6.75H9.40625C9.51562 6.75 9.625 6.66797 9.625 6.53125Z" fill="#6851AA" fill-opacity="0.6"/>
</svg>
