<svg width="17" height="14" viewBox="0 0 17 14" fill="none" xmlns="http://www.w3.org/2000/svg">
<path d="M3.1875 0.625C4.85547 0.625 6.25 2.01953 6.25 3.6875V9.78516C6.25 11.4531 4.85547 12.8203 3.1875 12.8203C1.49219 12.8203 0.125 11.4805 0.125 9.78516V3.6875C0.125 2.01953 1.49219 0.625 3.1875 0.625ZM4.5 6.75V3.6875C4.5 2.97656 3.89844 2.375 3.1875 2.375C2.44922 2.375 1.875 2.97656 1.875 3.6875V6.75H4.5ZM8.30078 5.95703L14.0703 11.7266C14.1797 11.8086 14.1523 11.9727 14.043 12.0547C12.3477 13.2852 9.94141 13.1484 8.41016 11.6172C6.87891 10.0859 6.74219 7.67969 7.97266 5.98438C8.05469 5.875 8.21875 5.84766 8.30078 5.95703ZM14.5898 5.4375C16.1211 6.96875 16.2578 9.375 15.0273 11.0703C14.9453 11.1797 14.7812 11.1797 14.6992 11.0977L8.92969 5.32812C8.82031 5.24609 8.84766 5.08203 8.95703 5C10.6523 3.76953 13.0586 3.87891 14.5898 5.4375Z" fill="#FEB84C"/>
</svg>
