<svg width="45" height="45" viewBox="0 0 45 45" fill="none" xmlns="http://www.w3.org/2000/svg">
<path fill-rule="evenodd" clip-rule="evenodd" d="M0.922852 0.0175781L44.0332 0L44.3496 0.202148C44.5254 0.307617 44.7451 0.544922 44.833 0.729492C44.9912 1.03711 45 1.38867 45 7.03125C45 12.542 44.9912 13.0342 44.8418 13.3242C44.7275 13.5791 44.1475 14.0449 42.1611 15.5039C40.7725 16.5234 39.6299 17.376 39.6387 17.4023C39.6387 17.4287 39.8848 17.6045 40.1924 17.7979C40.4912 17.9912 41.1328 18.5449 41.625 19.0283C42.1172 19.5117 42.7236 20.2236 42.9785 20.6104C43.2422 20.9971 43.6377 21.709 43.8662 22.1924C44.0947 22.6758 44.3848 23.4492 44.5078 23.9062C44.6309 24.3633 44.7715 25.0488 44.8154 25.4268C44.8682 25.7959 44.9121 26.4287 44.9121 26.8242C44.9121 27.2285 44.8506 27.9316 44.7803 28.3887C44.71 28.8457 44.5693 29.5225 44.4727 29.8828C44.3672 30.2432 44.0947 30.9375 43.8662 31.4209C43.6377 31.9043 43.251 32.5986 43.0049 32.959C42.7676 33.3193 42.249 33.9521 41.8711 34.3564C41.4932 34.7607 40.8604 35.3232 40.4736 35.6133C40.0869 35.9033 39.2959 36.3691 38.7158 36.6592C38.1357 36.9404 37.3623 37.2568 37.002 37.3535C36.6416 37.4502 35.9648 37.5908 35.5078 37.6611C35.0508 37.7314 34.3477 37.793 33.9434 37.793C33.5479 37.793 32.915 37.749 32.5459 37.6963C32.168 37.6523 31.4824 37.5117 31.0254 37.3887C30.5684 37.2656 29.7422 36.9492 28.2129 36.2109V40.0781C28.2129 43.6729 28.2041 43.9717 28.0459 44.2793C27.958 44.4551 27.7383 44.6924 27.5625 44.8066C27.3867 44.9121 27.1055 45 26.9385 45C26.7451 45 25.0137 44.3496 22.21 43.2334C19.7842 42.2578 17.6484 41.3877 17.4639 41.2998C17.2529 41.1943 17.0771 41.0098 16.9629 40.7812C16.7871 40.4385 16.7871 40.2539 16.7871 25.708L8.54297 19.6699C1.81055 14.7393 0.28125 13.5791 0.149414 13.3242C0.00878906 13.0342 0 12.542 0 7.03125C0 1.38867 0.00878906 1.03711 0.166992 0.720703C0.254883 0.544922 0.457031 0.307617 0.624023 0.202148L0.922852 0.0175781ZM2.63672 6.16113H42.3633V2.64551H2.63672V6.16113ZM2.64551 12.0938C12.0762 18.9932 15.7764 21.709 16.9629 22.5791C18.6504 23.8096 19.1514 24.2227 19.2744 24.4688C19.415 24.7676 19.4238 25.3213 19.4238 32.0449V39.2959L25.5762 41.7568V33.9346C25.2598 33.5566 24.9961 33.1875 24.7852 32.8799C24.5742 32.5635 24.2139 31.9131 23.9854 31.4297C23.7568 30.9463 23.4844 30.252 23.3789 29.8916C23.2822 29.5225 23.1416 28.8545 23.0713 28.3975C23.001 27.9316 22.9395 27.2197 22.9395 26.8154C22.9395 26.4023 23.001 25.6904 23.0713 25.2334C23.1416 24.7676 23.2822 24.0996 23.3789 23.7393C23.4756 23.3701 23.792 22.6055 24.0732 22.0254C24.3633 21.4453 24.8291 20.6543 25.1191 20.2676C25.4092 19.8809 25.9541 19.2656 26.332 18.8965C26.7188 18.5361 27.3252 18.0352 27.6855 17.7891C28.0459 17.543 28.6611 17.1826 29.0479 16.9893C29.4346 16.7871 30.0498 16.5322 30.4102 16.4092C30.7705 16.2861 31.3857 16.1279 31.7725 16.0488C32.1592 15.9609 32.9502 15.8818 33.5303 15.8555C34.2949 15.8203 34.8398 15.8467 35.5078 15.9609C36.0176 16.04 36.5186 16.1191 36.6328 16.1191C36.7559 16.1279 37.7754 15.4424 39.5947 14.1152L42.3633 12.0938V8.79785H2.63672L2.64551 12.0938ZM31.5088 18.8262C31.1748 18.9316 30.6211 19.1514 30.2783 19.3184C29.9443 19.4941 29.4258 19.793 29.1357 19.9863C28.8457 20.1885 28.3535 20.6016 28.0371 20.918C27.7207 21.2344 27.29 21.7529 27.0791 22.0693C26.8682 22.377 26.543 22.957 26.3584 23.3438C26.1738 23.7305 25.9365 24.3633 25.8311 24.75C25.6816 25.3125 25.6377 25.708 25.6377 26.7715C25.6289 27.8877 25.6553 28.2041 25.8311 28.8369C25.9365 29.2412 26.1826 29.9004 26.3584 30.2871C26.543 30.6738 26.8242 31.1836 26.9824 31.4297C27.1494 31.667 27.4834 32.0977 27.7295 32.3877C27.9756 32.6689 28.4854 33.1436 28.8721 33.4336C29.2588 33.7236 29.9355 34.1279 30.3662 34.3389C30.8057 34.541 31.5 34.7959 31.9043 34.9102C32.5195 35.0771 32.8799 35.1123 33.9258 35.1123C34.9805 35.1123 35.332 35.0771 35.9473 34.9102C36.3604 34.7959 37.0107 34.5586 37.3975 34.3828C37.7842 34.1982 38.3643 33.8818 38.6719 33.6621C38.9883 33.4512 39.5068 33.0205 39.8232 32.7041C40.1396 32.3877 40.5703 31.8691 40.7812 31.5615C41.001 31.2451 41.3174 30.6738 41.502 30.2871C41.6777 29.9004 41.915 29.2412 42.0293 28.8369C42.1963 28.2129 42.2314 27.8701 42.2314 26.8154C42.2314 25.7607 42.1963 25.4092 42.0293 24.7939C41.915 24.3809 41.6777 23.7305 41.502 23.3438C41.3174 22.957 41.001 22.377 40.7812 22.0693C40.5703 21.7529 40.1396 21.2344 39.8232 20.918C39.5068 20.6016 38.9883 20.1709 38.6719 19.96C38.3643 19.749 37.7842 19.4238 37.3975 19.2393C37.0107 19.0547 36.3779 18.8174 35.9912 18.7207C35.5254 18.5977 34.9277 18.5273 34.1895 18.501C33.5918 18.4834 32.8799 18.5098 32.6074 18.5537C32.3438 18.6064 31.8516 18.7295 31.5088 18.8262ZM30.8496 22.4209C31.0781 22.4209 31.3418 22.4824 31.4648 22.5615C31.5879 22.6406 32.1943 23.2031 33.9258 24.9258L35.1387 23.7217C35.9297 22.9307 36.4395 22.5 36.6064 22.4561C36.7559 22.4209 37.0547 22.4209 37.2656 22.4473C37.5117 22.4824 37.749 22.5791 37.8721 22.7021C37.9863 22.8076 38.1357 23.0098 38.1973 23.1416C38.2676 23.2734 38.3203 23.5195 38.3203 23.6953C38.3203 23.8623 38.2852 24.1084 38.2324 24.2402C38.1797 24.3721 37.6172 25.0049 35.8154 26.8154L36.9756 27.9756C37.6172 28.6172 38.1797 29.25 38.2324 29.3818C38.2852 29.5137 38.3203 29.7773 38.3203 29.9531C38.3203 30.1377 38.2412 30.4102 38.1445 30.5684C38.0479 30.7266 37.8457 30.9375 37.6875 31.0342C37.5293 31.1309 37.2568 31.21 37.0723 31.21C36.8877 31.21 36.6328 31.166 36.501 31.1133C36.3691 31.0605 35.7363 30.498 33.9258 28.7051L32.7656 29.8564C32.124 30.498 31.4912 31.0605 31.3594 31.1133C31.2275 31.166 30.9727 31.21 30.7881 31.21C30.6035 31.21 30.3311 31.1309 30.1728 31.0342C30.0146 30.9375 29.8037 30.7266 29.707 30.5684C29.6016 30.3926 29.5312 30.1289 29.5312 29.8916C29.5312 29.6719 29.6016 29.3994 29.6807 29.2764C29.7598 29.1533 30.3223 28.5469 32.0361 26.8154L30.8848 25.6465C30.2432 25.0049 29.6807 24.3721 29.6279 24.2402C29.5752 24.1084 29.5312 23.8535 29.5312 23.6689C29.54 23.4932 29.6191 23.2119 29.707 23.0537C29.8037 22.8955 30.0146 22.6934 30.1728 22.5967C30.3486 22.4912 30.6123 22.4209 30.8496 22.4209Z" fill="#601414" fill-opacity="0.25"/>
</svg>
