<svg width="10" height="10" viewBox="0 0 10 10" fill="none" xmlns="http://www.w3.org/2000/svg">
<path d="M9.53125 8.50391C9.77734 8.77734 9.77734 9.1875 9.53125 9.43359C9.25781 9.70703 8.84766 9.70703 8.60156 9.43359L5.375 6.17969L2.12109 9.43359C1.84766 9.70703 1.4375 9.70703 1.19141 9.43359C0.917969 9.1875 0.917969 8.77734 1.19141 8.50391L4.44531 5.25L1.19141 1.99609C0.917969 1.72266 0.917969 1.3125 1.19141 1.06641C1.4375 0.792969 1.84766 0.792969 2.09375 1.06641L5.375 4.34766L8.62891 1.09375C8.875 0.820312 9.28516 0.820312 9.53125 1.09375C9.80469 1.33984 9.80469 1.75 9.53125 2.02344L6.27734 5.25L9.53125 8.50391Z" fill="#8692A3"/>
</svg>
