<svg width="29" height="20" viewBox="0 0 29 20" fill="none" xmlns="http://www.w3.org/2000/svg">
<path fill-rule="evenodd" clip-rule="evenodd" d="M8.10599 0.104828C7.71199 0.021475 7.41105 -0.00457268 6.87479 0.000636852C6.40418 0.00584639 6.00475 0.0423131 5.69832 0.104828C5.44114 0.156923 5.04716 0.261113 4.82281 0.339256C4.59846 0.412189 4.21543 0.573684 3.97467 0.688294C3.7339 0.808114 3.35087 1.03733 3.12652 1.19883C2.90217 1.35512 2.56838 1.62601 2.39328 1.79793C2.21271 1.96463 1.92817 2.28241 1.76401 2.496C1.59439 2.70959 1.35362 3.07426 1.22776 3.30348C1.10191 3.5327 0.926809 3.93383 0.833787 4.1891C0.740764 4.44957 0.631326 4.89238 0.582079 5.17893C0.538303 5.46543 0.5 5.88738 0.5 6.11664C0.5 6.34584 0.52736 6.70009 0.554719 6.89804C0.587551 7.10124 0.658686 7.44504 0.718877 7.66909C0.779068 7.88789 0.921338 8.27339 1.03625 8.52864C1.15116 8.77869 1.38098 9.18504 1.55608 9.44029C1.72571 9.69034 2.04855 10.0706 2.26743 10.2894C2.48083 10.5082 2.84745 10.8208 3.0718 10.9823C3.29615 11.1438 3.70654 11.3834 3.97467 11.5189C4.24826 11.6491 4.62035 11.8106 4.8064 11.8783L5.14566 12.0034C5.18396 15.5667 5.20585 16.0095 5.27151 16.197C5.31528 16.3273 5.41925 16.5357 5.49586 16.6659C5.57246 16.7961 5.75851 17.0097 5.9117 17.1504C6.01875 17.245 6.19251 17.3625 6.35841 17.4567L6.38167 17.5H6.43729C6.48112 17.5232 6.52345 17.5442 6.56286 17.5619C6.77082 17.6557 7.06632 17.7391 7.24687 17.7547L7.56424 17.7859C7.69008 18.1923 7.79405 18.4267 7.88161 18.5674C7.96367 18.7132 8.16069 18.9581 8.31389 19.1144C8.46164 19.2707 8.71881 19.479 8.87749 19.5676C9.04167 19.6614 9.34811 19.7969 9.55601 19.8698C9.85152 19.9688 10.0485 20 10.4042 20C10.6723 20 10.9732 19.9636 11.1155 19.9219C11.2523 19.875 11.4602 19.802 11.5806 19.7551C11.701 19.7031 11.9418 19.5781 12.1169 19.4687C12.2865 19.3593 12.5327 19.1456 12.6531 18.9998C12.779 18.8487 12.9267 18.6299 12.9924 18.5153C13.0526 18.4007 13.1456 18.1923 13.1948 18.0464L13.2879 17.7859L20.3904 17.7547C20.5053 18.1037 20.6257 18.3643 20.7351 18.5622C20.8664 18.7914 21.058 19.031 21.2769 19.229C21.4684 19.3957 21.7529 19.5937 21.9061 19.6666C22.0648 19.7447 22.3329 19.849 22.4971 19.9011C22.6941 19.9636 22.9568 20 23.2632 20C23.5696 20 23.8322 19.9636 24.0292 19.9011C24.1934 19.849 24.4615 19.7447 24.6147 19.6666C24.7734 19.5937 25.0579 19.3957 25.244 19.229C25.4684 19.031 25.6599 18.7914 25.7912 18.5622C25.9006 18.3643 26.021 18.1037 26.0648 17.9787L26.1359 17.7599H28.1332L28.4889 17.4578C28.5107 11.6752 28.4998 10.4509 28.4615 10.3624C28.4287 10.2894 27.3124 9.19024 25.9718 7.91394L23.5368 5.59568L19.1866 5.54358L19.1318 3.6421L18.8309 3.35557L12.6203 3.32953C12.4069 2.94402 12.2099 2.6575 12.0403 2.44391C11.8706 2.23032 11.5423 1.88128 11.3125 1.67811C11.0827 1.46973 10.6942 1.17278 10.4479 1.01649C10.1962 0.860209 9.83509 0.662249 9.63812 0.578894C9.4411 0.490333 9.13466 0.375723 8.95412 0.318418C8.77352 0.261113 8.39051 0.162132 8.10599 0.104828ZM5.28793 1.36032C5.4685 1.30302 5.77493 1.23008 5.9719 1.19883C6.16892 1.16757 6.42609 1.13631 6.54649 1.12589C6.66684 1.11547 6.77631 1.10505 6.79268 1.09985C6.8091 1.09464 7.07726 1.11547 7.39462 1.14152C7.71199 1.17278 8.17712 1.25613 8.43429 1.32906C8.69145 1.402 9.09638 1.5635 9.33712 1.68332C9.57792 1.80314 9.92265 2.00631 10.1032 2.13655C10.2838 2.27199 10.5792 2.52726 10.7598 2.70959C10.9404 2.89193 11.214 3.23055 11.3617 3.45976C11.5095 3.68898 11.6955 4.0276 11.7776 4.21515C11.8542 4.40269 11.9637 4.73089 12.0238 4.94448C12.1059 5.25183 12.1278 5.50708 12.1224 6.16874C12.1169 6.91889 12.1005 7.04914 11.9691 7.47109C11.8871 7.73159 11.7065 8.15354 11.5642 8.40884C11.4219 8.66929 11.1593 9.04959 10.9787 9.26319C10.7981 9.47679 10.4808 9.78414 10.2674 9.95084C10.0594 10.1175 9.64906 10.3728 9.36448 10.5135C9.07996 10.6541 8.62032 10.8364 8.35222 10.9146C7.90896 11.0396 7.77219 11.0552 6.98421 11.0605C6.28927 11.0657 6.02117 11.0448 5.69832 10.9667C5.47397 10.9094 5.12924 10.8052 4.93225 10.7323C4.73526 10.6541 4.37959 10.477 4.13882 10.3363C3.89806 10.1957 3.54238 9.93519 3.35087 9.76329C3.15935 9.59139 2.89123 9.31009 2.74896 9.13814C2.61216 8.96624 2.39876 8.63804 2.2729 8.40884C2.14705 8.17959 1.97741 7.79409 1.90081 7.54924C1.8242 7.30439 1.73665 6.87199 1.70929 6.58549C1.67646 6.25209 1.67646 5.89783 1.70929 5.59568C1.73665 5.34038 1.7859 5.03303 1.81873 4.91843C1.85157 4.80382 1.9227 4.58502 1.98289 4.43916C2.03761 4.28808 2.16893 4.00676 2.2729 3.81401C2.37687 3.61605 2.5465 3.34516 2.65594 3.19929C2.76537 3.05863 3.00613 2.78774 3.19766 2.6054C3.3837 2.42307 3.68466 2.17822 3.86523 2.05319C4.0458 1.93337 4.36864 1.75104 4.57658 1.65206C4.78998 1.54787 5.10735 1.42284 5.28793 1.36032ZM9.07996 16.171C9.15658 16.0876 9.30433 15.9522 9.41375 15.8741C9.52316 15.7959 9.70926 15.6969 9.8296 15.6553C9.98285 15.5979 10.1853 15.5771 10.4863 15.5875C10.8255 15.6032 10.9842 15.6344 11.1976 15.7386C11.3453 15.8167 11.5588 15.9678 11.6682 16.0772C11.7776 16.1866 11.9253 16.3794 11.9965 16.5096C12.1059 16.7024 12.1278 16.8222 12.1278 17.2129C12.1278 17.588 12.1059 17.7286 12.0075 17.9162C11.9418 18.0464 11.7831 18.2548 11.6518 18.3798C11.5204 18.5049 11.3289 18.6455 11.225 18.6977C11.121 18.7498 10.8966 18.8123 10.7325 18.8435C10.5629 18.8748 10.3111 18.8799 10.158 18.854C10.0047 18.8331 9.78039 18.7654 9.64906 18.7029C9.52316 18.6455 9.33712 18.5257 9.23864 18.4423C9.14565 18.3642 8.99789 18.1819 8.91583 18.0412C8.83372 17.9006 8.74072 17.6557 8.71337 17.4994C8.68052 17.3171 8.68596 17.1087 8.71881 16.9264C8.74616 16.7701 8.81186 16.5669 8.85563 16.4836C8.90485 16.4002 9.00333 16.2543 9.07996 16.171ZM21.8186 16.3169C21.9225 16.1658 22.0867 15.9835 22.1797 15.9105C22.2782 15.8428 22.4807 15.7386 22.6339 15.6813C22.7981 15.6188 23.0443 15.5771 23.2468 15.5719C23.4657 15.5719 23.6955 15.6084 23.876 15.6761C24.0347 15.7334 24.2481 15.8428 24.3411 15.9105C24.4396 15.9835 24.6038 16.1658 24.7078 16.3169C24.8117 16.4627 24.9266 16.718 24.9595 16.8743C24.9977 17.0306 25.0142 17.265 24.9977 17.3952C24.9814 17.5255 24.9212 17.7495 24.8555 17.8901C24.7953 18.036 24.6366 18.2496 24.5108 18.3694C24.3794 18.4892 24.177 18.6351 24.0566 18.6924C23.9362 18.7497 23.7064 18.8226 23.5477 18.854C23.3562 18.8904 23.1702 18.8904 22.9732 18.854C22.8199 18.8226 22.5901 18.7497 22.4697 18.6924C22.3494 18.6351 22.1469 18.4892 22.0156 18.3694C21.8897 18.2496 21.7311 18.036 21.6709 17.8901C21.6052 17.7495 21.545 17.5255 21.5286 17.3952C21.5122 17.265 21.5286 17.0306 21.5669 16.8743C21.5997 16.718 21.7146 16.4627 21.8186 16.3169ZM7.47669 2.53768C7.16481 2.27199 7.06632 2.23553 6.90764 2.23553C6.73797 2.23553 6.65042 2.27199 6.51909 2.39702L6.34403 2.55852L6.34947 6.27289C6.59571 6.59589 7.0499 7.04394 7.50953 7.47634C8.17162 8.09624 8.396 8.27339 8.5437 8.30464C8.67503 8.33069 8.78994 8.31504 8.91583 8.25774C9.00882 8.21084 9.12922 8.09624 9.17844 8.00769C9.23864 7.88789 9.25506 7.77849 9.22771 7.65344C9.19486 7.50759 9.00882 7.29919 8.34673 6.66364L7.50953 5.85613L7.47669 2.53768ZM21.4922 8.60704C21.5044 9.03464 21.5122 9.80164 21.5122 11.0917H23.5204C23.8765 11.0917 24.212 11.0937 24.5093 11.0973L21.4922 8.60704Z" fill="#6951AB"/>
</svg>
