<svg width="25" height="25" viewBox="0 0 25 25" fill="none" xmlns="http://www.w3.org/2000/svg">
<circle cx="12.5" cy="12.5" r="12.5" fill="#3F8B8B"/>
<path d="M13.7536 13.7536C12.7321 14.8075 12.6579 16.1214 12.5696 19C15.2532 19 17.1057 18.9907 18.0621 18.0621C18.9907 17.1057 19 15.165 19 12.5696C16.1214 12.6625 14.8075 12.7321 13.7536 13.7536ZM6 12.5696C6 15.165 6.00929 17.1057 6.93786 18.0621C7.89429 18.9907 9.74679 19 12.4304 19C12.3375 16.1214 12.2679 14.8075 11.2464 13.7536C10.1925 12.7321 8.87857 12.6579 6 12.5696ZM12.4304 6C9.75143 6 7.89429 6.00929 6.93786 6.93786C6.00929 7.89429 6 9.835 6 12.4304C8.87857 12.3375 10.1925 12.2679 11.2464 11.2464C12.2679 10.1925 12.3421 8.87857 12.4304 6ZM13.7536 11.2464C12.7321 10.1925 12.6579 8.87857 12.5696 6C15.2532 6 17.1057 6.00929 18.0621 6.93786C18.9907 7.89429 19 9.835 19 12.4304C16.1214 12.3375 14.8075 12.2679 13.7536 11.2464Z" fill="white"/>
</svg>
