<svg width="25" height="25" viewBox="0 0 25 25" fill="none" xmlns="http://www.w3.org/2000/svg">
<circle cx="12.5" cy="12.5" r="12.5" fill="#3F8B8B"/>
<path d="M9.98 6.5H15.02C16.94 6.5 18.5 8.06 18.5 9.98V15.02C18.5 15.943 18.1334 16.8281 17.4807 17.4807C16.8281 18.1334 15.943 18.5 15.02 18.5H9.98C8.06 18.5 6.5 16.94 6.5 15.02V9.98C6.5 9.05705 6.86664 8.1719 7.51927 7.51927C8.1719 6.86664 9.05705 6.5 9.98 6.5ZM9.86 7.7C9.28713 7.7 8.73773 7.92757 8.33265 8.33265C7.92757 8.73773 7.7 9.28713 7.7 9.86V15.14C7.7 16.334 8.666 17.3 9.86 17.3H15.14C15.7129 17.3 16.2623 17.0724 16.6674 16.6674C17.0724 16.2623 17.3 15.7129 17.3 15.14V9.86C17.3 8.666 16.334 7.7 15.14 7.7H9.86ZM15.65 8.6C15.8489 8.6 16.0397 8.67902 16.1803 8.81967C16.321 8.96032 16.4 9.15109 16.4 9.35C16.4 9.54891 16.321 9.73968 16.1803 9.88033C16.0397 10.021 15.8489 10.1 15.65 10.1C15.4511 10.1 15.2603 10.021 15.1197 9.88033C14.979 9.73968 14.9 9.54891 14.9 9.35C14.9 9.15109 14.979 8.96032 15.1197 8.81967C15.2603 8.67902 15.4511 8.6 15.65 8.6ZM12.5 9.5C13.2956 9.5 14.0587 9.81607 14.6213 10.3787C15.1839 10.9413 15.5 11.7044 15.5 12.5C15.5 13.2956 15.1839 14.0587 14.6213 14.6213C14.0587 15.1839 13.2956 15.5 12.5 15.5C11.7044 15.5 10.9413 15.1839 10.3787 14.6213C9.81607 14.0587 9.5 13.2956 9.5 12.5C9.5 11.7044 9.81607 10.9413 10.3787 10.3787C10.9413 9.81607 11.7044 9.5 12.5 9.5ZM12.5 10.7C12.0226 10.7 11.5648 10.8896 11.2272 11.2272C10.8896 11.5648 10.7 12.0226 10.7 12.5C10.7 12.9774 10.8896 13.4352 11.2272 13.7728C11.5648 14.1104 12.0226 14.3 12.5 14.3C12.9774 14.3 13.4352 14.1104 13.7728 13.7728C14.1104 13.4352 14.3 12.9774 14.3 12.5C14.3 12.0226 14.1104 11.5648 13.7728 11.2272C13.4352 10.8896 12.9774 10.7 12.5 10.7Z" fill="#F2F5FA"/>
</svg>
