<svg width="30" height="20" viewBox="0 0 30 20" fill="none" xmlns="http://www.w3.org/2000/svg">
<path d="M18 17C17.7188 17 17.4688 16.9062 17.2812 16.7188C16.875 16.3438 16.875 15.6875 17.2812 15.3125L22.5625 10L17.2812 4.71875C16.875 4.34375 16.875 3.6875 17.2812 3.3125C17.6562 2.90625 18.3125 2.90625 18.6875 3.3125L24.6875 9.3125C25.0938 9.6875 25.0938 10.3438 24.6875 10.7188L18.6875 16.7188C18.5 16.9062 18.25 17 18 17Z" fill="#3F8B8B"/>
<path d="M8 17C7.71875 17 7.46875 16.9062 7.28125 16.7188C6.875 16.3438 6.875 15.6875 7.28125 15.3125L12.5625 10L7.28125 4.71875C6.875 4.34375 6.875 3.6875 7.28125 3.3125C7.65625 2.90625 8.3125 2.90625 8.6875 3.3125L14.6875 9.3125C15.0938 9.6875 15.0938 10.3438 14.6875 10.7188L8.6875 16.7188C8.5 16.9062 8.25 17 8 17Z" fill="#3F8B8B"/>
</svg>
