<svg width="16" height="16" viewBox="0 0 16 16" fill="none" xmlns="http://www.w3.org/2000/svg">
<path d="M5 3.625C5 3.01562 5.49219 2.5 6.125 2.5H9.875C10.4844 2.5 11 3.01562 11 3.625V14.5H9.125V12.625C9.125 12.0156 8.60938 11.5 8 11.5C7.36719 11.5 6.875 12.0156 6.875 12.625V14.5H5V3.625ZM7.8125 4C7.60156 4 7.4375 4.1875 7.4375 4.375V4.9375H6.875C6.66406 4.9375 6.5 5.125 6.5 5.3125V5.6875C6.5 5.89844 6.66406 6.0625 6.875 6.0625H7.4375V6.625C7.4375 6.83594 7.60156 7 7.8125 7H8.1875C8.375 7 8.5625 6.83594 8.5625 6.625V6.0625H9.125C9.3125 6.0625 9.5 5.89844 9.5 5.6875V5.3125C9.5 5.125 9.3125 4.9375 9.125 4.9375H8.5625V4.375C8.5625 4.1875 8.375 4 8.1875 4H7.8125ZM4.25 4.75V14.5H1.625C0.992188 14.5 0.5 14.0078 0.5 13.375V10H2.375C2.5625 10 2.75 9.83594 2.75 9.625C2.75 9.4375 2.5625 9.25 2.375 9.25H0.5V7.75H2.375C2.5625 7.75 2.75 7.58594 2.75 7.375C2.75 7.1875 2.5625 7 2.375 7H0.5V5.875C0.5 5.26562 0.992188 4.75 1.625 4.75H4.25ZM14.375 4.75C14.9844 4.75 15.5 5.26562 15.5 5.875V7H13.625C13.4141 7 13.25 7.1875 13.25 7.375C13.25 7.58594 13.4141 7.75 13.625 7.75H15.5V9.25H13.625C13.4141 9.25 13.25 9.4375 13.25 9.625C13.25 9.83594 13.4141 10 13.625 10H15.5V13.375C15.5 14.0078 14.9844 14.5 14.375 14.5H11.75V4.75H14.375Z" fill="white"/>
</svg>
