<svg width="25" height="25" viewBox="0 0 25 25" fill="none" xmlns="http://www.w3.org/2000/svg">
<circle cx="12.5" cy="12.5" r="12.5" fill="#3F8B8B"/>
<path fill-rule="evenodd" clip-rule="evenodd" d="M18 13.6198V18H15.6942V13.9256C15.6942 13.6187 15.5724 13.3245 15.3553 13.1075C15.1384 12.8905 14.844 12.7687 14.5372 12.7687C13.9008 12.7687 13.3884 13.2893 13.3884 13.9256V18H11.0826V11.0826H13.3884V12C13.7851 11.3553 14.6033 10.9257 15.3058 10.9257C16.0204 10.9257 16.7057 11.2095 17.2109 11.7147C17.7162 12.2201 18 12.9052 18 13.6198ZM9.3785 9.3785C9.11809 9.6389 8.7649 9.78506 8.39672 9.78506C7.62813 9.78506 7 9.16532 7 8.39663C7 8.02618 7.14718 7.67099 7.40904 7.40913C7.67099 7.14709 8.02627 7 8.39672 7C9.16532 7 9.78506 7.62813 9.78506 8.39663C9.78506 8.7649 9.63883 9.11809 9.3785 9.3785ZM9.54548 11.0826V18H7.25623V11.0826H9.54548Z" fill="#F2F5FA"/>
</svg>
