<svg width="239" height="40" viewBox="0 0 239 40" fill="none" xmlns="http://www.w3.org/2000/svg">
<g clip-path="url(#clip0_701_9554)">
<path fill-rule="evenodd" clip-rule="evenodd" d="M36.5499 20.313C36.0245 22.2059 35.207 27.4914 33.2825 26.3178C32.8751 26.0693 32.2861 25.216 32.1113 25.1282C31.9131 25.1295 31.4867 26.7455 29.9427 26.702C28.453 26.6597 27.7713 24.6822 27.5153 22.7619C25.4034 28.3727 22.5684 28.4984 21.4589 25.4136C21.3759 25.1831 21.1274 24.225 20.9677 23.7837C20.4011 24.5949 19.9913 27.0575 18.4325 27.1184C16.7649 27.1835 16.9015 25.0869 16.5305 24.688C16.1079 24.9173 15.6709 27.0134 14.4798 26.9647C13.2951 26.9162 13.3326 25.0805 13.029 24.3197C12.6006 24.8995 12.334 25.259 11.3576 25.2188L0.490968 24.77C-0.164501 24.7429 -0.163618 23.3067 0.493396 23.2831L11.1338 22.9C12.4064 22.8539 11.7494 21.6457 13.4377 21.6023C14.618 21.5719 14.6275 23.0769 14.797 23.9456C16.8113 20.4237 17.8779 23.3219 18.3837 24.3219C19.0149 23.1274 19.7567 20.6954 21.1727 20.6936C23.9568 20.6906 22.0334 32.1813 26.107 17.3347C26.4506 16.0811 27.8408 9.83413 29.1939 9.90912C31.2495 10.0231 29.2462 21.5134 30.2102 24.1097C31.2078 23.1437 31.5772 19.9744 33.3265 23.0861C33.8056 21.5664 36.8386 11.3341 38.4109 11.2946C40.3899 11.245 37.8721 21.4543 38.9661 22.4997C40.1888 21.829 40.8264 11.3619 43.1318 11.879C44.9415 12.2851 42.5339 19.6988 43.0528 23.093C43.4465 22.4448 43.7903 21.3061 44.7559 21.2058C45.8993 21.0875 45.9419 22.4099 46.0629 23.2553C48.4863 19.4204 49.2603 22.6102 51.4532 22.6689L61.5928 22.9454C62.2538 22.964 62.2558 24.4057 61.5993 24.4332L51.4938 24.8507C49.0862 24.9498 49.449 23.769 48.4038 23.6957C48.2294 23.6834 45.1642 28.7044 44.5548 24.2928C42.7288 27.215 41.4377 25.8033 41.1098 23.0584C39.6812 25.3406 36.8128 26.0684 36.5499 20.3128V20.313Z" fill="#05839E"/>
<path fill-rule="evenodd" clip-rule="evenodd" d="M52.6114 26.458C49.9233 34.3346 42.4562 39.9998 33.6646 39.9998C25.6533 39.9998 18.7428 35.2946 15.5449 28.4998C15.8802 28.4034 16.1615 28.249 16.4061 28.0525C16.9525 28.5267 17.6656 28.8013 18.6168 28.764C19.6185 28.7247 20.3468 28.3099 20.9154 27.7076C21.7019 28.6528 22.7761 29.2624 24.1867 29.0624C25.4663 28.8809 26.5197 28.0494 27.3526 27.0109C27.7567 27.4921 28.248 27.888 28.8399 28.1357C30.1032 28.6648 31.2923 28.3366 32.2651 27.6059C32.3631 27.6699 32.4735 27.7336 32.6001 27.7993C34.5721 28.8185 36.1445 27.5512 36.9591 25.8014C37.2284 25.986 37.5296 26.1353 37.8644 26.2398C38.7163 26.5058 39.5492 26.4064 40.3044 26.0813C40.7472 26.7411 41.3629 27.2583 42.1987 27.4637C42.9433 27.6463 43.6601 27.5217 44.2896 27.1975C44.6881 27.4592 45.1554 27.6284 45.6822 27.6798C46.9156 27.8009 47.9156 27.2374 48.6596 26.2983C48.7512 26.1829 48.8364 26.057 48.9182 25.928C49.6902 26.396 50.4781 26.5457 51.682 26.4963L52.6114 26.458Z" fill="#7654FF"/>
<path fill-rule="evenodd" clip-rule="evenodd" d="M33.6654 -2.35936e-05C44.7184 -2.35936e-05 53.6791 8.95463 53.6791 19.9998C53.6791 20.1789 53.6767 20.3571 53.6718 20.5349L51.3761 20.4637C50.7674 20.0104 50.3364 19.6456 49.4746 19.3942C48.479 19.104 47.5636 19.2409 46.766 19.6646C46.3175 19.276 45.7848 19.0583 45.2295 19.0111C45.3838 17.8365 45.5813 16.6526 45.6976 15.5276C45.8951 13.6166 46.1527 10.322 43.6595 9.76271C42.4251 9.48593 41.5244 10.0064 40.8571 10.8471C40.4956 9.84145 39.7929 9.09931 38.4733 9.13239C36.1399 9.19128 34.655 13.3755 33.97 15.1701C33.4107 16.6347 32.9232 18.1084 32.4523 19.5932C32.2969 19.5821 32.1387 19.5868 31.9784 19.6097C32.0232 17.9452 32.1543 16.2329 32.181 14.7067C32.217 12.6234 32.4094 7.91519 29.4097 7.74912C26.482 7.58702 25.3213 12.9807 24.7526 15.1066C24.4558 16.2166 24.0475 18.0365 23.5716 19.7447C22.7127 18.5947 21.3865 18.0643 20.0348 18.7412C19.3065 19.1064 18.6967 19.7899 18.193 20.5521C17.4169 20.124 16.5347 20.0349 15.6978 20.3221C15.2247 19.7883 14.5644 19.4533 13.6602 19.4392C13.9574 8.65292 22.8001 -0.000244141 33.6657 -0.000244141L33.6654 -2.35936e-05Z" fill="#FF00FF"/>
<path fill-rule="evenodd" clip-rule="evenodd" d="M199.988 9.12537C207.655 9.12537 213.868 15.3349 213.868 22.9947C213.868 31.1499 207.195 34.0445 201.516 39.3935C200.657 40.202 199.321 40.202 198.462 39.3935C192.783 34.0445 186.109 31.1499 186.109 22.9947C186.109 15.3349 192.323 9.12537 199.988 9.12537ZM201.185 26.3002H198.793C198.67 26.3002 198.569 26.2006 198.569 26.0775V24.6369C198.569 24.514 198.469 24.4137 198.346 24.4137H196.905C196.782 24.4137 196.681 24.3136 196.681 24.1905V21.8C196.681 21.6771 196.781 21.5766 196.905 21.5766H198.346C198.469 21.5766 198.569 21.4767 198.569 21.3536V19.913C198.569 19.7901 198.67 19.69 198.793 19.69H201.185C201.308 19.69 201.408 19.7899 201.408 19.913V21.3536C201.408 21.4764 201.508 21.5766 201.632 21.5766H203.073C203.196 21.5766 203.296 21.6769 203.296 21.8V24.1905C203.296 24.3133 203.196 24.4137 203.073 24.4137H201.632C201.509 24.4137 201.408 24.5138 201.408 24.6369V26.0775C201.408 26.2003 201.308 26.3002 201.185 26.3002ZM199.989 14.409C195.244 14.409 191.396 18.254 191.396 22.9949C191.396 27.1017 194.283 30.5352 198.139 31.381C198.26 31.4077 198.345 31.5127 198.344 31.637C198.331 35.8385 197.96 35.3433 199.989 35.3433C202.018 35.3433 201.646 35.8385 201.633 31.637C201.633 31.5127 201.717 31.4075 201.839 31.381C205.694 30.5352 208.581 27.1019 208.581 22.9949C208.581 18.254 204.734 14.409 199.989 14.409ZM199.989 28.2792C202.909 28.2792 205.276 25.913 205.276 22.9949C205.276 20.0777 202.909 17.7115 199.988 17.7115C197.069 17.7115 194.701 20.078 194.701 22.9949C194.701 25.9132 197.069 28.2792 199.989 28.2792Z" fill="#FF00FF"/>
<path d="M61.1707 32.6095L66.2368 13.4686C67.5985 8.30408 72.0041 5.71817 79.4599 5.70471H89.4353C89.8981 5.70471 90.2932 5.89526 90.6201 6.28321C90.9469 6.67115 91.1102 7.10651 91.1102 7.59634V32.4121C91.1102 32.9293 90.9332 33.3715 90.5792 33.7323C90.2318 34.0997 89.7962 34.2834 89.2787 34.2834H85.4657C84.9481 34.2834 84.5056 34.0997 84.1448 33.7323C83.7771 33.3715 83.5931 32.9293 83.5931 32.4121V11.3388H78.745C77.4718 11.3388 76.3619 11.6996 75.4156 12.4276C74.4692 13.1559 73.829 14.1287 73.5021 15.3536L68.9399 32.4191C68.8037 32.9637 68.5042 33.4059 68.0344 33.7596C67.5714 34.1068 67.0744 34.2836 66.5568 34.2836H62.485C62.0151 34.2836 61.6611 34.1136 61.4022 33.7665C61.2182 33.5283 61.123 33.2698 61.123 32.9908C61.1367 32.8684 61.1504 32.7392 61.1707 32.6097V32.6095Z" fill="#7654FF"/>
<path d="M98.2644 31.8203C96.2147 29.9082 95.1934 27.1117 95.1934 23.4371C95.1934 19.756 96.2216 16.9389 98.2847 14.9725C100.348 13.013 103.201 12.0331 106.844 12.0331C110.514 12.0331 113.374 13.0061 115.416 14.9591C117.466 16.912 118.494 19.7156 118.494 23.3626V24.5262C118.494 24.8936 118.372 25.1931 118.14 25.4313C117.908 25.6695 117.616 25.7919 117.255 25.7919H102.234C102.363 27.3161 102.833 28.4252 103.637 29.1193C104.447 29.8134 105.68 30.1605 107.341 30.1605C109.214 30.1605 110.521 29.7251 111.249 28.8471C111.822 28.1599 112.584 27.8062 113.544 27.7925H116.519C116.874 27.7925 117.173 27.9149 117.405 28.1531C117.636 28.3915 117.752 28.6976 117.752 29.0651C117.752 32.828 114.116 34.7058 106.844 34.6923C103.174 34.6923 100.314 33.7329 98.2646 31.8208L98.2644 31.8203ZM102.193 21.2597H111.467C111.338 18.1299 109.799 16.5647 106.851 16.5647C103.909 16.5647 102.35 18.1299 102.193 21.2597H102.193Z" fill="#7654FF"/>
<path d="M122.16 33.0655V13.6797C122.16 13.3191 122.276 13.0198 122.507 12.7882C122.739 12.5569 123.032 12.4413 123.379 12.4413H127.846C128.207 12.4413 128.499 12.5569 128.724 12.7882C128.949 13.0198 129.064 13.3191 129.064 13.6797V21.0967C131.38 21.0967 132.959 20.1984 133.811 18.402L135.731 14.3329C135.996 13.7613 136.384 13.3054 136.902 12.9585C137.426 12.6113 137.985 12.4413 138.584 12.4413H142.349C143.016 12.4413 143.35 12.6998 143.35 13.2169C143.35 13.5094 143.241 13.8837 143.03 14.3327L140.456 19.7559C140.014 20.6611 139.421 21.4367 138.659 22.0898C137.903 22.7362 137.086 23.1583 136.208 23.342C137.842 23.8319 139.258 25.0294 140.456 26.9279L143.847 32.4123C144.072 32.7934 144.195 33.1268 144.208 33.4058C144.208 33.5282 144.188 33.6372 144.147 33.7459C144.011 34.1067 143.691 34.2836 143.167 34.2836H139.401C138.121 34.2836 137.106 33.6577 136.344 32.4054L133.811 28.2821C132.721 26.5131 131.142 25.6285 129.065 25.6285V33.0657C129.065 33.4263 128.949 33.719 128.717 33.9435C128.486 34.1683 128.193 34.2838 127.846 34.2838H123.379C123.018 34.2838 122.726 34.1683 122.501 33.9435C122.276 33.719 122.16 33.4263 122.16 33.0657L122.16 33.0655Z" fill="#7654FF"/>
<path d="M147.485 32.3715V7.63739C147.485 7.09308 147.668 6.63721 148.029 6.26294C148.39 5.88867 148.833 5.70496 149.35 5.70496H157.528C158.052 5.70496 158.549 5.88867 159.019 6.26294C159.489 6.63721 159.802 7.07941 159.965 7.59659L165.889 24.6076L171.827 7.59659C171.984 7.07941 172.297 6.63721 172.767 6.26294C173.236 5.88867 173.733 5.70496 174.258 5.70496H182.442C182.966 5.70496 183.409 5.88867 183.763 6.26294C184.117 6.63721 184.294 7.09308 184.294 7.63739V32.3715C184.294 32.9158 184.11 33.3717 183.736 33.7325C183.361 34.1 182.905 34.2837 182.374 34.2837H178.697C178.166 34.2837 177.717 34.1 177.342 33.7325C176.968 33.3717 176.777 32.9158 176.777 32.3715V12.8972L169.75 32.4871C169.566 32.9838 169.239 33.4059 168.776 33.7526C168.313 34.1066 167.823 34.2834 167.306 34.2834H164.459C163.942 34.2834 163.452 34.1066 162.996 33.7526C162.533 33.4057 162.206 32.9838 162.008 32.4871L155.002 12.8972V32.3715C155.002 32.9158 154.818 33.3717 154.443 33.7325C154.069 34.1 153.62 34.2837 153.088 34.2837H149.418C148.887 34.2837 148.438 34.1 148.056 33.7325C147.675 33.3717 147.484 32.9158 147.484 32.3715H147.485Z" fill="#7654FF"/>
<path d="M215.68 23.3692C215.68 19.6404 216.708 16.8165 218.771 14.9046C220.827 12.9925 223.748 12.0331 227.521 12.0331C231.082 12.0331 233.853 12.6184 235.835 13.7889C237.816 14.9525 238.803 16.6807 238.803 18.9669C238.803 19.314 238.688 19.6064 238.449 19.8243C238.217 20.0489 237.918 20.1578 237.55 20.1578H234.541C233.628 20.1578 232.852 19.6746 232.219 18.7152C231.422 17.47 229.978 16.8509 227.875 16.8509C225.948 16.8509 224.586 17.3613 223.782 18.3751C222.986 19.3958 222.584 21.0561 222.584 23.3694C222.584 25.6624 222.999 27.3159 223.823 28.3366C224.654 29.3641 226.07 29.8745 228.079 29.8745C230.176 29.8745 231.627 29.2554 232.416 28.0236C233.049 27.0508 233.826 26.5676 234.745 26.5676H237.748C238.116 26.5676 238.415 26.6763 238.647 26.901C238.885 27.1256 239.001 27.4045 239.001 27.738C239.001 30.031 238.013 31.7595 236.046 32.9365C234.071 34.107 231.3 34.6923 227.739 34.6923C223.844 34.6923 220.861 33.7329 218.792 31.8208C216.715 29.9018 215.68 27.0848 215.68 23.3694L215.68 23.3692Z" fill="#7654FF"/>
</g>
<defs>
<clipPath id="clip0_701_9554">
<rect width="239" height="40" fill="white"/>
</clipPath>
</defs>
</svg>
