<svg width="249" height="48" viewBox="0 0 249 48" fill="none" xmlns="http://www.w3.org/2000/svg">
<g clip-path="url(#clip0_701_1189)">
<path fill-rule="evenodd" clip-rule="evenodd" d="M220.819 17.528C223.907 13.5829 228.699 12.1627 233.567 12.1627C240.544 12.1627 248.748 14.555 248.748 22.9558C248.748 24.8124 247.757 26.4809 246.133 27.3492C250.849 29.6017 249.378 37.1915 244.115 40.3273C241.065 42.1449 237.28 42.6353 233.787 42.6353C228.582 42.6353 223.478 41.099 220.404 36.6891C217.541 40.5723 213.371 43.0818 209.896 46.3571C207.572 48.5477 203.944 48.5477 201.62 46.3573C199.152 44.0312 195.151 41.192 193.12 39.0248C191.284 42.7909 187.602 42.2227 184.252 42.2227C181.659 42.2227 179.394 40.4889 178.728 38.0306C177.794 40.4372 175.369 42.2227 172.745 42.2227C170.115 42.2227 168.219 42.5294 166.096 40.9106C165.117 40.1634 164.357 39.2047 163.895 38.0634C163.221 40.5087 160.963 42.2227 158.385 42.2227C155.763 42.2227 153.393 42.5705 151.432 41.2232C149.667 42.5865 147.093 42.2227 144.557 42.2227C141.278 42.2227 139.427 40.4468 137.858 37.8908C137.532 40.3975 135.421 42.2227 132.886 42.2227H128.374C126.389 42.2227 124.62 41.1128 123.809 39.3259C120.702 42.1679 115.697 42.6405 111.667 42.6356C107.049 42.6298 102.532 41.3007 99.4516 37.7013C98.9277 40.3168 96.629 42.2227 93.9304 42.2227C90.7394 42.2227 88.1955 42.6844 86.0682 40.5567C84.996 39.5043 84.4028 38.0836 84.4028 36.5466V19.0309C83.2196 19.0309 82.0417 18.8198 81.6514 20.281L77.0507 37.5007C76.3382 40.2566 73.7932 42.2227 70.9796 42.2227C67.5688 42.2227 64.7034 42.7664 62.758 40.2027C60.8691 37.7129 62.0688 35.0649 62.7732 32.402L60.2039 32.5081C52.7824 52.0992 25.2134 53.5022 16.0291 34.2027C16.0262 34.1967 16.0235 34.1907 16.0206 34.1846C15.5193 33.8897 15.079 33.5021 14.7097 33.0422L4.09178 32.6033C-1.37453 32.3775 -1.35558 23.7337 4.1143 23.5367L13.7727 23.1225C14.2373 10.2369 24.8371 0.000442505 37.7568 0.000442505C50.7008 0.000442505 61.2538 10.251 61.7398 23.0763L65.2152 23.1711L66.9979 16.4313C69.126 8.38582 76.3396 5.7668 84.0134 5.7668H94.0894C97.2004 5.7668 99.5659 8.44534 99.5659 11.4634V17.0688C105.223 10.5499 117.67 10.5263 123.443 16.6691C123.874 14.2853 125.926 12.5755 128.375 12.5755H132.886C135.144 12.5755 137.071 14.0109 137.695 16.1437C140.036 12.0247 143.8 12.5755 147.536 12.5755C148.025 12.5755 148.496 12.6379 148.94 12.7563C148.94 10.7474 148.915 9.18587 150.55 7.48882C151.627 6.3709 153.058 5.76658 154.609 5.76658H162.87C165.618 5.76658 168.049 7.67762 168.92 10.2601L171.319 17.1542L173.719 10.2746C174.587 7.67495 177.014 5.76658 179.768 5.76658H188.035C191.228 5.76658 193.691 8.34035 193.691 11.5044V13.9384C201.868 6.39497 214.879 8.13103 220.819 17.528H220.819ZM148.939 25.5846C148.598 26.2547 148.197 26.8822 147.737 27.4631L148.939 29.1693V25.5846ZM238.21 27.4453C236.973 26.9123 235.932 25.9791 235.15 24.781C234.902 24.5434 232.937 24.5668 232.732 24.7536C232.277 25.1677 232.241 29.5373 232.749 30.0063C232.994 30.2328 235.096 30.262 235.357 30.0197C236.096 28.8866 237.063 27.9909 238.21 27.4453H238.21Z" fill="#FEFEFE"/>
<path fill-rule="evenodd" clip-rule="evenodd" d="M40.6701 24.3166C40.1394 26.2299 39.3137 31.5723 37.3699 30.3862C36.9584 30.1349 36.3634 29.2723 36.1869 29.1838C35.9867 29.1851 35.556 30.8186 33.9965 30.7745C32.4918 30.7317 31.8032 28.733 31.5447 26.7919C29.4114 32.4631 26.548 32.5901 25.4272 29.4722C25.3434 29.2393 25.0924 28.2709 24.931 27.8247C24.3588 28.6445 23.9448 31.1338 22.3704 31.1953C20.686 31.2611 20.824 29.1421 20.4493 28.7386C20.0222 28.9704 19.581 31.0892 18.378 31.04C17.1814 30.9909 17.2193 29.1356 16.9123 28.3663C16.4794 28.9524 16.2104 29.316 15.2242 29.2752L4.24786 28.8215C3.5858 28.7941 3.58669 27.3423 4.25031 27.3186L14.9979 26.9314C16.2835 26.8848 15.6196 25.6637 17.3251 25.6198C18.5173 25.589 18.5269 27.1102 18.6981 27.9883C20.7326 24.4283 21.81 27.3579 22.3209 28.3686C22.9584 27.1613 23.7076 24.703 25.1381 24.7012C27.9504 24.6981 26.0075 36.3128 30.122 21.306C30.4691 20.0389 31.8732 13.7244 33.2399 13.8004C35.3161 13.9157 33.2928 25.5297 34.2664 28.1541C35.274 27.1778 35.6472 23.9742 37.4142 27.1196C37.8982 25.5835 40.9619 15.2409 42.55 15.201C44.5491 15.1508 42.0058 25.4702 43.1108 26.5268C44.3458 25.849 44.9898 15.269 47.3185 15.7917C49.1467 16.2021 46.7144 23.6958 47.2387 27.1265C47.6364 26.4713 47.9837 25.3202 48.959 25.219C50.1139 25.0995 50.1569 26.4361 50.2791 27.2906C52.7269 23.4143 53.5089 26.6385 55.7238 26.6978L65.9656 26.9774C66.6332 26.9961 66.6352 28.4535 65.972 28.4811L55.7646 28.9031C53.3328 29.0032 53.6993 27.8097 52.6435 27.7357C52.4674 27.7232 49.3714 32.7983 48.7557 28.3394C46.9113 31.293 45.607 29.8661 45.2758 27.0917C43.8326 29.3987 40.9354 30.1343 40.6699 24.3166H40.6701Z" fill="#05839E"/>
<path fill-rule="evenodd" clip-rule="evenodd" d="M56.8934 30.5277C54.1783 38.4891 46.6358 44.2156 37.7555 44.2156C29.6633 44.2156 22.6832 39.4597 19.4531 32.5917C19.7917 32.4943 20.0759 32.3382 20.3229 32.1396C20.8749 32.6189 21.5953 32.8964 22.5559 32.8587C23.5677 32.8191 24.3033 32.3998 24.8778 31.791C25.6722 32.7466 26.7571 33.3625 28.1822 33.1603C29.4749 32.9769 30.5389 32.1365 31.3802 31.0868C31.7883 31.5732 32.2845 31.9733 32.8824 32.2237C34.1586 32.7584 35.3596 32.4267 36.342 31.6882C36.441 31.7529 36.5525 31.8173 36.6804 31.8837C38.6724 32.9138 40.2606 31.6329 41.0834 29.8643C41.3554 30.0509 41.6597 30.2018 41.9978 30.3075C42.8583 30.5763 43.6996 30.4758 44.4626 30.1472C44.9098 30.8142 45.5317 31.3369 46.3759 31.5444C47.128 31.729 47.8522 31.6031 48.4878 31.2754C48.8903 31.54 49.3623 31.7112 49.8944 31.7629C51.1402 31.8853 52.1502 31.3157 52.9019 30.3666C52.9944 30.25 53.0805 30.1227 53.1634 29.9923C53.9434 30.4653 54.739 30.6167 55.955 30.5667L56.8939 30.5279L56.8934 30.5277Z" fill="#7654FF"/>
<path fill-rule="evenodd" clip-rule="evenodd" d="M37.756 3.78464C48.9205 3.78464 57.9715 12.8356 57.9715 23.9999C57.9715 24.1809 57.9691 24.361 57.9642 24.5407L55.6452 24.4687C55.0304 24.0106 54.595 23.6419 53.7245 23.3878C52.719 23.0944 51.7943 23.2328 50.9887 23.6611C50.5357 23.2683 49.9976 23.0483 49.4368 23.0006C49.5926 21.8133 49.7921 20.6167 49.9096 19.4794C50.1091 17.5478 50.3692 14.2177 47.851 13.6524C46.6042 13.3727 45.6943 13.8987 45.0202 14.7485C44.655 13.732 43.9453 12.9819 42.6125 13.0153C40.2554 13.0748 38.7556 17.304 38.0637 19.1181C37.4988 20.5987 37.0064 22.0882 36.5307 23.5886C36.3737 23.5775 36.2139 23.5821 36.0521 23.6053C36.0973 21.923 36.2297 20.1923 36.2567 18.6495C36.2931 16.5438 36.4874 11.7846 33.4574 11.6168C30.5002 11.4529 29.3279 16.9047 28.7532 19.0534C28.4534 20.1756 28.041 22.0148 27.5604 23.7415C26.6928 22.5793 25.3533 22.0431 23.9877 22.7273C23.2521 23.0964 22.6362 23.7872 22.1275 24.5578C21.3433 24.1249 20.4525 24.0351 19.607 24.3253C19.1291 23.7859 18.4621 23.4473 17.5488 23.433C17.8491 12.5305 26.7811 3.78397 37.756 3.78397V3.78464Z" fill="#FF00FF"/>
<path fill-rule="evenodd" clip-rule="evenodd" d="M205.757 13.0084C213.501 13.0084 219.777 19.2848 219.777 27.0273C219.777 35.2705 213.037 38.1962 207.3 43.6028C206.433 44.42 205.083 44.42 204.216 43.6028C198.479 38.1962 191.738 35.2705 191.738 27.0273C191.738 19.2848 198.015 13.0084 205.757 13.0084ZM206.966 30.3683H204.55C204.426 30.3683 204.324 30.2676 204.324 30.1432V28.6869C204.324 28.5627 204.223 28.4613 204.099 28.4613H202.642C202.518 28.4613 202.417 28.3601 202.417 28.2357V25.8195C202.417 25.6954 202.518 25.5937 202.642 25.5937H204.099C204.223 25.5937 204.324 25.4927 204.324 25.3684V23.9121C204.324 23.7879 204.425 23.6867 204.55 23.6867H206.966C207.09 23.6867 207.192 23.7877 207.192 23.9121V25.3684C207.192 25.4925 207.293 25.5937 207.417 25.5937H208.873C208.998 25.5937 209.099 25.6952 209.099 25.8195V28.2357C209.099 28.3599 208.998 28.4613 208.873 28.4613H207.417C207.293 28.4613 207.192 28.5625 207.192 28.6869V30.1432C207.192 30.2674 207.09 30.3683 206.966 30.3683ZM205.758 18.349C200.965 18.349 197.079 22.2355 197.079 27.0273C197.079 31.1784 199.995 34.6487 203.889 35.5036C204.012 35.5306 204.097 35.6367 204.097 35.7626C204.084 40.0094 203.708 39.509 205.758 39.509C207.807 39.509 207.432 40.0094 207.419 35.7626C207.419 35.6369 207.504 35.5306 207.627 35.5036C211.52 34.6487 214.437 31.1784 214.437 27.0273C214.437 22.2353 210.551 18.349 205.758 18.349ZM205.758 32.3688C208.707 32.3688 211.099 29.9771 211.099 27.0275C211.099 24.079 208.707 21.6871 205.757 21.6871C202.809 21.6871 200.417 24.079 200.417 27.0275C200.417 29.9771 202.808 32.3688 205.758 32.3688Z" fill="#FF00FF"/>
<path d="M65.5382 36.7459L70.6554 17.3989C72.0308 12.1786 76.4808 9.56497 84.012 9.55138H94.088C94.5554 9.55138 94.9544 9.74397 95.2846 10.1361C95.6147 10.5282 95.7797 10.9682 95.7797 11.4633V36.5463C95.7797 37.0691 95.6009 37.516 95.2433 37.8807C94.8925 38.2521 94.4524 38.4378 93.9297 38.4378H90.0782C89.5554 38.4378 89.1085 38.2521 88.744 37.8807C88.3727 37.516 88.1867 37.0691 88.1867 36.5463V15.246H83.2898C82.0035 15.246 80.8827 15.6106 79.9266 16.3465C78.9706 17.0825 78.3241 18.0658 77.994 19.3039L73.3857 36.5533C73.2481 37.1036 72.9456 37.5506 72.471 37.9081C72.0034 38.259 71.5014 38.4378 70.9786 38.4378H66.8658C66.3913 38.4378 66.0337 38.2659 65.7722 37.915C65.5863 37.6743 65.4902 37.413 65.4902 37.1308C65.5041 37.0071 65.5179 36.8763 65.5384 36.7456L65.5382 36.7459Z" fill="#7654FF"/>
<path d="M103.004 35.9479C100.934 34.0152 99.9023 31.1884 99.9023 27.4745C99.9023 23.7536 100.941 20.9063 103.025 18.9185C105.109 16.9377 107.991 15.9473 111.67 15.9473C115.378 15.9473 118.266 16.9308 120.329 18.9047C122.399 20.8789 123.438 23.7123 123.438 27.3987V28.5748C123.438 28.9461 123.314 29.2489 123.08 29.4896C122.846 29.7304 122.551 29.8541 122.186 29.8541H107.014C107.144 31.3946 107.619 32.5159 108.431 33.2174C109.249 33.9189 110.494 34.2698 112.172 34.2698C114.064 34.2698 115.384 33.8298 116.12 32.9423C116.698 32.2477 117.468 31.8902 118.438 31.8764H121.443C121.801 31.8764 122.104 32.0001 122.338 32.2408C122.572 32.4818 122.688 32.7912 122.688 33.1626C122.688 36.9659 119.016 38.8641 111.67 38.8505C107.963 38.8505 105.075 37.8808 103.004 35.9481L103.004 35.9479ZM106.973 25.2734H116.34C116.209 22.1098 114.655 20.5278 111.677 20.5278C108.706 20.5278 107.131 22.1098 106.973 25.2734Z" fill="#7654FF"/>
<path d="M127.143 37.2065V17.6116C127.143 17.2471 127.26 16.9446 127.493 16.7106C127.727 16.4767 128.023 16.3599 128.374 16.3599H132.886C133.25 16.3599 133.546 16.4767 133.773 16.7106C134 16.9446 134.117 17.2471 134.117 17.6116V25.1084C136.455 25.1084 138.051 24.2005 138.911 22.3849L140.85 18.2721C141.118 17.6943 141.51 17.2335 142.033 16.8829C142.563 16.532 143.127 16.3602 143.732 16.3602H147.535C148.209 16.3602 148.546 16.6216 148.546 17.1444C148.546 17.4399 148.436 17.8182 148.223 18.2723L145.623 23.754C145.176 24.6689 144.578 25.4528 143.807 26.1129C143.044 26.7663 142.219 27.1929 141.331 27.3786C142.982 27.8737 144.412 29.0841 145.623 31.003L149.048 36.5464C149.275 36.9316 149.399 37.2687 149.413 37.5506C149.413 37.6744 149.392 37.7845 149.351 37.8944C149.213 38.2591 148.89 38.4378 148.36 38.4378H144.557C143.264 38.4378 142.239 37.8052 141.469 36.5395L138.91 32.3717C137.81 30.5834 136.214 29.6893 134.116 29.6893V37.2067C134.116 37.5712 134 37.867 133.766 38.0939C133.532 38.321 133.236 38.4378 132.885 38.4378H128.374C128.009 38.4378 127.713 38.321 127.486 38.0939C127.259 37.867 127.143 37.5712 127.143 37.2067L127.143 37.2065Z" fill="#7654FF"/>
<path d="M152.723 36.505V11.5042C152.723 10.954 152.908 10.4933 153.273 10.115C153.637 9.73669 154.084 9.551 154.607 9.551H162.868C163.397 9.551 163.899 9.73669 164.374 10.115C164.848 10.4933 165.164 10.9402 165.33 11.4629L171.313 28.6575L177.311 11.4629C177.469 10.9402 177.785 10.4933 178.26 10.115C178.735 9.73669 179.237 9.551 179.766 9.551H188.033C188.563 9.551 189.01 9.73669 189.368 10.115C189.725 10.4933 189.904 10.954 189.904 11.5042V36.505C189.904 37.0551 189.718 37.5159 189.34 37.8806C188.962 38.2519 188.501 38.4376 187.965 38.4376H184.25C183.714 38.4376 183.26 38.2519 182.882 37.8806C182.504 37.5159 182.311 37.0551 182.311 36.505V16.8209L175.213 36.622C175.028 37.124 174.697 37.5506 174.23 37.9013C173.762 38.2591 173.267 38.4378 172.744 38.4378H169.869C169.347 38.4378 168.851 38.2591 168.39 37.9013C167.923 37.5506 167.593 37.124 167.393 36.622L160.316 16.8209V36.505C160.316 37.0551 160.13 37.5159 159.752 37.8806C159.374 38.2519 158.92 38.4376 158.383 38.4376H154.676C154.14 38.4376 153.686 38.2519 153.301 37.8806C152.915 37.5159 152.723 37.0551 152.723 36.505H152.723Z" fill="#7654FF"/>
<path d="M221.605 27.4056C221.605 23.6368 222.644 20.7823 224.728 18.8497C226.805 16.917 229.755 15.9473 233.566 15.9473C237.163 15.9473 239.962 16.5389 241.964 17.7219C243.965 18.898 244.962 20.6448 244.962 22.9558C244.962 23.3066 244.845 23.6022 244.605 23.8224C244.371 24.0494 244.068 24.1595 243.697 24.1595H240.657C239.735 24.1595 238.951 23.6711 238.311 22.7012C237.507 21.4426 236.048 20.8169 233.923 20.8169C231.977 20.8169 230.601 21.3327 229.79 22.3575C228.985 23.3891 228.579 25.0672 228.579 27.4056C228.579 29.7234 228.999 31.3946 229.831 32.4263C230.67 33.4648 232.101 33.9807 234.129 33.9807C236.248 33.9807 237.713 33.3549 238.511 32.11C239.15 31.1267 239.934 30.6381 240.863 30.6381H243.896C244.268 30.6381 244.57 30.748 244.804 30.9751C245.045 31.202 245.162 31.484 245.162 31.8211C245.162 34.1389 244.164 35.8859 242.177 37.0756C240.182 38.2586 237.383 38.8502 233.786 38.8502C229.852 38.8502 226.839 37.8806 224.749 35.9479C222.651 34.0083 221.605 31.1608 221.605 27.4056Z" fill="#7654FF"/>
</g>
<defs>
<clipPath id="clip0_701_1189">
<rect width="248.979" height="48" fill="white"/>
</clipPath>
</defs>
</svg>
