<svg width="46" height="60" viewBox="0 0 46 60" fill="none" xmlns="http://www.w3.org/2000/svg">
<path d="M20.3334 58.5333C14.2667 50.95 0.733398 32.8667 0.733398 22.6C0.733398 10.2333 10.6501 0.200012 23.1334 0.200012C35.5001 0.200012 45.5334 10.2333 45.5334 22.6C45.5334 32.8667 31.8834 50.95 25.8167 58.5333C24.4167 60.2833 21.7334 60.2833 20.3334 58.5333ZM23.1334 30.0667C27.2167 30.0667 30.6001 26.8 30.6001 22.6C30.6001 18.5167 27.2167 15.1333 23.1334 15.1333C18.9334 15.1333 15.6667 18.5167 15.6667 22.6C15.6667 26.8 18.9334 30.0667 23.1334 30.0667Z" fill="#D62246"/>
</svg>
