<svg width="20" height="20" viewBox="0 0 20 20" fill="none" xmlns="http://www.w3.org/2000/svg">
<path d="M10.875 3.625V9.3125C10.875 9.55859 11.0664 9.75 11.3125 9.75C11.5312 9.75 11.75 9.55859 11.75 9.3125V4.5C11.75 4.03516 12.1328 3.625 12.625 3.625C13.0898 3.625 13.5 4.03516 13.5 4.5V9.3125C13.5 9.55859 13.6914 9.75 13.9375 9.75C14.1562 9.75 14.375 9.55859 14.375 9.3125V6.25C14.375 5.78516 14.7578 5.375 15.25 5.375C15.7148 5.375 16.125 5.78516 16.125 6.25V11.9375C16.125 14.6172 13.9648 16.75 11.3125 16.75H10.7656C9.15234 16.75 7.56641 16.1484 6.39062 15L3.32812 12.0742C2.89062 11.6641 2.86328 10.9805 3.30078 10.543C3.71094 10.1055 4.39453 10.0781 4.83203 10.4883L6.5 12.0742C6.5 12.0469 6.5 11.9922 6.5 11.9375V4.5C6.5 4.03516 6.88281 3.625 7.375 3.625C7.83984 3.625 8.25 4.03516 8.25 4.5V9.3125C8.25 9.55859 8.44141 9.75 8.6875 9.75C8.90625 9.75 9.125 9.55859 9.125 9.3125V3.625C9.125 3.16016 9.50781 2.75 10 2.75C10.4648 2.75 10.875 3.16016 10.875 3.625ZM9.5625 11.9375C9.5625 12.1836 9.75391 12.375 10 12.375C10.2188 12.375 10.4375 12.1836 10.4375 11.9375C10.4375 11.7188 10.2188 11.5 10 11.5C9.75391 11.5 9.5625 11.7188 9.5625 11.9375ZM11.75 12.375C11.5039 12.375 11.3125 12.5938 11.3125 12.8125C11.3125 13.0586 11.5039 13.25 11.75 13.25C11.9688 13.25 12.1875 13.0586 12.1875 12.8125C12.1875 12.5938 11.9688 12.375 11.75 12.375ZM13.0625 11.9375C13.0625 12.1836 13.2539 12.375 13.5 12.375C13.7188 12.375 13.9375 12.1836 13.9375 11.9375C13.9375 11.7188 13.7188 11.5 13.5 11.5C13.2539 11.5 13.0625 11.7188 13.0625 11.9375ZM12.625 14.125C12.3789 14.125 12.1875 14.3438 12.1875 14.5625C12.1875 14.8086 12.3789 15 12.625 15C12.8438 15 13.0625 14.8086 13.0625 14.5625C13.0625 14.3438 12.8438 14.125 12.625 14.125ZM9.5625 14.5625C9.5625 14.8086 9.75391 15 10 15C10.2188 15 10.4375 14.8086 10.4375 14.5625C10.4375 14.3438 10.2188 14.125 10 14.125C9.75391 14.125 9.5625 14.3438 9.5625 14.5625ZM8.25 13.25C8.00391 13.25 7.8125 13.4688 7.8125 13.6875C7.8125 13.9336 8.00391 14.125 8.25 14.125C8.46875 14.125 8.6875 13.9336 8.6875 13.6875C8.6875 13.4688 8.46875 13.25 8.25 13.25Z" fill="#6851AA" fill-opacity="0.6"/>
</svg>
