<svg width="20" height="20" viewBox="0 0 20 20" fill="none" xmlns="http://www.w3.org/2000/svg">
<path d="M6.5 7.5625C6.5 8.82031 7.15625 9.96875 8.25 10.5977C9.31641 11.2266 10.6562 11.2266 11.75 10.5977C12.8164 9.96875 13.5 8.82031 13.5 7.5625C13.5 6.33203 12.8164 5.18359 11.75 4.55469C10.6562 3.92578 9.31641 3.92578 8.25 4.55469C7.15625 5.18359 6.5 6.33203 6.5 7.5625ZM13.6914 4.5H15.25C16.207 4.5 17 5.29297 17 6.25V15C17 15.9844 16.207 16.75 15.25 16.75H4.75C3.76562 16.75 3 15.9844 3 15V6.25C3 5.29297 3.76562 4.5 4.75 4.5H6.28125C7.15625 3.43359 8.49609 2.75 10 2.75C11.4766 2.75 12.8164 3.43359 13.6914 4.5ZM11.0938 8.875C11.0938 9.50391 10.6016 9.96875 10 9.96875C9.37109 9.96875 8.90625 9.50391 8.90625 8.875C8.90625 8.27344 9.37109 7.80859 9.97266 7.78125L10.9023 5.64844C10.9844 5.42969 11.2578 5.32031 11.4766 5.42969C11.6953 5.51172 11.8047 5.78516 11.6953 6.00391L10.793 8.13672C10.957 8.32812 11.0938 8.60156 11.0938 8.875Z" fill="#6851AA" fill-opacity="0.6"/>
</svg>
