<svg width="20" height="20" viewBox="0 0 20 20" fill="none" xmlns="http://www.w3.org/2000/svg">
<path d="M6.9375 7.5625C6.9375 8.68359 7.51172 9.66797 8.46875 10.2148C9.39844 10.7891 10.5742 10.7891 11.5312 10.2148C12.4609 9.66797 13.0625 8.68359 13.0625 7.5625C13.0625 6.46875 12.4609 5.48438 11.5312 4.9375C10.5742 4.36328 9.39844 4.36328 8.46875 4.9375C7.51172 5.48438 6.9375 6.46875 6.9375 7.5625ZM10.875 12.3203V13.25H11.75C12.2148 13.25 12.625 13.6602 12.625 14.125C12.625 14.6172 12.2148 15 11.75 15H10.875V15.875C10.875 16.3672 10.4648 16.75 10 16.75C9.50781 16.75 9.125 16.3672 9.125 15.875V15H8.25C7.75781 15 7.375 14.6172 7.375 14.125C7.375 13.6602 7.75781 13.25 8.25 13.25H9.125V12.3203C6.88281 11.9102 5.1875 9.94141 5.1875 7.5625C5.1875 4.91016 7.32031 2.75 10 2.75C12.6523 2.75 14.8125 4.91016 14.8125 7.5625C14.8125 9.94141 13.0898 11.9102 10.875 12.3203Z" fill="#6851AA" fill-opacity="0.6"/>
</svg>
