<svg width="20" height="20" viewBox="0 0 20 20" fill="none" xmlns="http://www.w3.org/2000/svg">
<path d="M14.1016 3.02344L18.4766 7.39844C18.832 7.72656 18.832 8.30078 18.4766 8.62891C18.1484 8.98438 17.5742 8.98438 17.2461 8.62891L12.8711 4.25391C12.5156 3.92578 12.5156 3.35156 12.8711 3.02344C13.1992 2.66797 13.7734 2.66797 14.1016 3.02344ZM9.28906 7.91797L12.2969 4.91016L13.5273 6.14062L12.1055 7.5625L13.9375 9.39453L15.3594 7.97266L16.5898 9.20312L14.5391 11.2539L13.582 12.2109C13.2539 12.5664 12.7891 12.8125 12.2969 12.9219L9.37109 13.5781C9.20703 13.6055 9.04297 13.6875 8.93359 13.7969L6.22656 16.5039C5.89844 16.8594 5.32422 16.8594 4.99609 16.5039C4.64062 16.1758 4.64062 15.6016 4.99609 15.2734L7.70312 12.5664C7.8125 12.457 7.89453 12.293 7.92188 12.1289L8.57812 9.20312C8.6875 8.71094 8.93359 8.27344 9.28906 7.91797ZM10.5195 9.14844C10.4102 9.25781 10.3281 9.42188 10.3008 9.58594L9.83594 11.6641L11.9414 11.1992C12.0781 11.1719 12.2422 11.0898 12.3516 10.9805L12.6797 10.625L10.875 8.82031L10.5195 9.14844ZM5.87109 3.02344C6.19922 2.66797 6.77344 2.66797 7.10156 3.02344C7.45703 3.35156 7.45703 3.92578 7.10156 4.25391L7.07422 4.28125L9.37109 6.60547L8.6875 7.28906C8.49609 7.48047 8.33203 7.67188 8.19531 7.89062L5.84375 5.53906L4.01172 7.34375L7.34766 10.707L7.07422 11.9375L6.60938 12.4023C6.52734 12.3477 6.44531 12.293 6.39062 12.2109L2.78125 8.60156L2.72656 8.62891C2.39844 8.98438 1.82422 8.98438 1.49609 8.62891C1.14062 8.30078 1.14062 7.72656 1.49609 7.39844L5.87109 3.02344ZM12.4883 13.7695C12.7617 13.7148 13.0078 13.6328 13.2266 13.5234L14.9766 15.2734C15.332 15.6016 15.332 16.1758 14.9766 16.5039C14.6484 16.8594 14.0742 16.8594 13.7461 16.5039L11.2852 14.043L12.4883 13.7695Z" fill="#6851AA" fill-opacity="0.6"/>
</svg>
