<svg width="20" height="20" viewBox="0 0 20 20" fill="none" xmlns="http://www.w3.org/2000/svg">
<path d="M12.1875 6.25C12.1875 5.94922 12.1055 5.64844 11.9961 5.375H11.9688C11.3945 5.375 10.9023 5.12891 10.5742 4.71875C10.1914 5.375 9.48047 5.8125 8.6875 5.8125H7.83984C7.8125 5.97656 7.8125 6.11328 7.8125 6.25V6.6875C7.8125 7.91797 8.76953 8.875 10 8.875C11.2031 8.875 12.1875 7.91797 12.1875 6.6875V6.25ZM6.5 6.25C6.5 4.33594 8.05859 2.75 10 2.75C11.9141 2.75 13.5 4.33594 13.5 6.25V6.55078C13.5 7.48047 13.8555 8.38281 14.5117 9.03906L14.6211 9.14844C14.7305 9.25781 14.8125 9.42188 14.8125 9.58594C14.8125 9.91406 14.5117 10.1875 14.1836 10.1875H10H5.78906C5.46094 10.1875 5.1875 9.91406 5.1875 9.58594C5.1875 9.42188 5.24219 9.25781 5.35156 9.14844L5.46094 9.03906C6.11719 8.38281 6.5 7.48047 6.5 6.55078V6.25ZM8.16797 11.7188L9.64453 13.6602C9.80859 13.9062 10.1641 13.9062 10.3281 13.6602L11.8047 11.7188C11.8867 11.582 12.0508 11.5273 12.1875 11.5273C14.4023 11.7734 16.125 13.6602 16.125 15.9297C16.125 16.3945 15.7422 16.75 15.2773 16.75H4.69531C4.23047 16.75 3.875 16.3945 3.875 15.9297C3.875 13.6602 5.57031 11.7734 7.78516 11.5273C7.94922 11.5273 8.08594 11.582 8.16797 11.7188Z" fill="#6851AA" fill-opacity="0.6"/>
</svg>
