<svg width="20" height="20" viewBox="0 0 20 20" fill="none" xmlns="http://www.w3.org/2000/svg">
<path d="M5.1875 5.375C4.44922 5.375 3.875 5.97656 3.875 6.6875V9.75H6.5V6.6875C6.5 5.97656 5.89844 5.375 5.1875 5.375ZM2.125 6.6875C2.125 5.01953 3.49219 3.625 5.1875 3.625C6.85547 3.625 8.25 5.01953 8.25 6.6875V12.8125C8.25 14.5078 6.85547 15.875 5.1875 15.875C3.49219 15.875 2.125 14.5078 2.125 12.8125V6.6875ZM17.2734 13.6875C17.082 14.0156 16.6445 14.043 16.3711 13.7695L11.2305 8.62891C10.957 8.35547 10.9844 7.91797 11.3125 7.72656C11.9688 7.34375 12.707 7.125 13.5 7.125C15.9062 7.125 17.875 9.09375 17.875 11.5C17.875 12.293 17.6562 13.0312 17.2734 13.6875ZM15.6602 15.3008C15.0312 15.6836 14.2656 15.875 13.5 15.875C11.0664 15.875 9.125 13.9336 9.125 11.5C9.125 10.7344 9.31641 9.96875 9.69922 9.33984C9.89062 9.01172 10.3281 8.98438 10.6016 9.25781L15.7422 14.3984C16.0156 14.6719 15.9883 15.1094 15.6602 15.3008Z" fill="#6851AA" fill-opacity="0.6"/>
</svg>
