<svg width="20" height="20" viewBox="0 0 20 20" fill="none" xmlns="http://www.w3.org/2000/svg">
<path d="M2.28906 2.91406L4.91406 4.96484C4.94141 4.91016 4.99609 4.85547 5.02344 4.80078C5.37891 4.47266 5.92578 4.47266 6.28125 4.80078L6.5 5.04688C7.45703 6.00391 9.125 5.32031 9.125 3.95312V3.625C9.125 3.16016 9.50781 2.75 10 2.75C10.4648 2.75 10.875 3.16016 10.875 3.625V3.95312C10.875 5.32031 12.5156 6.00391 13.4727 5.04688L13.6914 4.80078C14.0469 4.47266 14.5938 4.47266 14.9492 4.80078C15.2773 5.15625 15.2773 5.70312 14.9492 6.05859L14.7031 6.27734C13.7461 7.23438 14.4297 8.875 15.7969 8.875H16.125C16.5898 8.875 17 9.28516 17 9.75C17 10.2422 16.5898 10.625 16.125 10.625H15.7969C14.8398 10.625 14.2109 11.4453 14.2656 12.293L18.4766 15.6016C18.7773 15.8203 18.832 16.2305 18.5859 16.5039C18.3672 16.8047 17.957 16.8594 17.6836 16.6133L1.49609 3.92578C1.19531 3.70703 1.14062 3.29688 1.38672 3.02344C1.60547 2.72266 2.01562 2.66797 2.28906 2.91406ZM8.46875 7.75391L10.3828 9.23047C10.4102 9.12109 10.4375 9.01172 10.4375 8.875C10.4375 8.16406 9.83594 7.5625 9.125 7.5625C8.87891 7.5625 8.66016 7.64453 8.46875 7.75391ZM12.2422 14.043C11.5039 14.125 10.875 14.7266 10.875 15.5742V15.875C10.875 16.3672 10.4648 16.75 10 16.75C9.50781 16.75 9.125 16.3672 9.125 15.875V15.5742C9.125 14.207 7.45703 13.5234 6.5 14.4805L6.28125 14.7266C5.92578 15.0547 5.37891 15.0547 5.02344 14.7266C4.69531 14.3711 4.69531 13.8242 5.02344 13.4688L5.26953 13.25C6.22656 12.293 5.54297 10.625 4.17578 10.625H3.875C3.38281 10.625 3 10.2422 3 9.75C3 9.28516 3.38281 8.875 3.875 8.875H4.17578C4.58594 8.875 4.94141 8.73828 5.1875 8.49219L12.2422 14.043Z" fill="#6851AA" fill-opacity="0.6"/>
</svg>
