<svg width="20" height="20" viewBox="0 0 20 20" fill="none" xmlns="http://www.w3.org/2000/svg">
<path d="M9.94531 4.5L14.1562 12.9492C13.7734 13.4688 13.2812 13.9062 12.707 14.2344L8.03125 4.88281C8.63281 4.66406 9.26172 4.52734 9.94531 4.5ZM14.7031 12.0742L10.957 4.60938C12.8984 4.96484 14.457 6.38672 15.0312 8.27344L17.5742 6.98828C17.8477 6.85156 18.2031 6.93359 18.3945 7.17969C18.5859 7.45312 18.5586 7.80859 18.3398 8.02734L17.5195 8.84766L18.3125 9.14844C18.5586 9.23047 18.75 9.47656 18.75 9.75C18.75 10.0234 18.5586 10.2695 18.3125 10.3789L17.5195 10.6797L18.3398 11.4727C18.5586 11.7188 18.5859 12.0742 18.3945 12.3203C18.2031 12.5938 17.8477 12.6758 17.5742 12.5391L15.0312 11.2539C14.9492 11.5547 14.8398 11.8281 14.7031 12.0742ZM11.9414 14.6445C11.3398 14.8633 10.7109 15 10.0273 15L5.81641 6.57812C6.19922 6.05859 6.69141 5.62109 7.26562 5.26562L11.9414 14.6445ZM9.01562 14.918C7.07422 14.5625 5.51562 13.1406 4.96875 11.2539L2.39844 12.5391C2.125 12.6758 1.76953 12.5938 1.57812 12.3203C1.38672 12.0742 1.41406 11.7188 1.66016 11.4727L2.45312 10.6797L1.66016 10.3789C1.41406 10.2695 1.25 10.0234 1.25 9.75C1.25 9.47656 1.41406 9.23047 1.66016 9.14844L2.45312 8.84766L1.66016 8.02734C1.41406 7.80859 1.38672 7.45312 1.57812 7.17969C1.76953 6.93359 2.125 6.85156 2.39844 6.98828L4.94141 8.27344C5.05078 7.97266 5.16016 7.69922 5.26953 7.45312L9.01562 14.918Z" fill="#6851AA" fill-opacity="0.6"/>
</svg>
