<svg width="20" height="20" viewBox="0 0 20 20" fill="none" xmlns="http://www.w3.org/2000/svg">
<path d="M3 8.90234C3 8.27344 3.08203 7.69922 3.24609 7.15234L9.28906 11.5273C9.17969 11.8008 9.125 12.0742 9.125 12.375V16.75H5.625C5.13281 16.75 4.75 16.3672 4.75 15.875V13.9062C4.75 13.4414 4.55859 13.0039 4.25781 12.6484C3.4375 11.582 3 10.2695 3 8.90234ZM9.78125 10.8164L3.57422 6.30469C4.53125 4.19922 6.66406 2.75 9.125 2.75H9.78125C12.3789 2.75 14.7305 4.66406 15.168 7.15234C15.2227 7.50781 15.3594 7.83594 15.5781 8.13672L16.7266 9.55859C16.8633 9.75 16.9727 9.96875 16.9727 10.1875H11.3125C10.7109 10.1875 10.1641 10.4336 9.78125 10.8164ZM11.3125 11.0625H16.7266H17L16.4531 12.8125H12.1875C11.9414 12.8125 11.75 13.0312 11.75 13.25C11.75 13.4961 11.9414 13.6875 12.1875 13.6875H16.1797L15.9062 14.5625H12.1875C11.9414 14.5625 11.75 14.7812 11.75 15C11.75 15.2461 11.9414 15.4375 12.1875 15.4375H15.6328L15.6055 15.5195C15.3867 16.2578 14.7031 16.75 13.9375 16.75H10V12.375C10 11.9922 10.1641 11.6641 10.4102 11.418C10.6562 11.1992 10.957 11.0625 11.3125 11.0625ZM12.625 8.875C13.0898 8.875 13.5 8.49219 13.5 8C13.5 7.53516 13.0898 7.125 12.625 7.125C12.1328 7.125 11.75 7.53516 11.75 8C11.75 8.49219 12.1328 8.875 12.625 8.875Z" fill="#6851AA" fill-opacity="0.6"/>
</svg>
