<svg width="20" height="20" viewBox="0 0 20 20" fill="none" xmlns="http://www.w3.org/2000/svg">
<path d="M3 8.90234C3 5.51172 5.73438 2.75 9.125 2.75H9.78125C12.3789 2.75 14.7305 4.66406 15.168 7.15234C15.2227 7.50781 15.3594 7.83594 15.5781 8.13672L16.7266 9.55859C16.8906 9.77734 17 10.0508 17 10.3242C17 10.9805 16.4531 11.5 15.7969 11.5H15.25V13.25C15.25 14.2344 14.457 15 13.5 15H11.75V15.875C11.75 16.3672 11.3398 16.75 10.875 16.75H5.625C5.13281 16.75 4.75 16.3672 4.75 15.875V13.9062C4.75 13.4414 4.55859 13.0039 4.25781 12.6484C3.4375 11.582 3 10.2695 3 8.90234ZM12.1875 8.10938C12.3516 8.02734 12.4609 7.80859 12.3789 7.61719C12.3242 7.48047 12.2422 7.34375 12.1875 7.17969L12.1055 7.07031C12.0234 6.93359 11.9414 6.82422 11.832 6.6875C11.6953 6.52344 11.4766 6.49609 11.3125 6.60547L11.2305 6.66016C10.9844 6.79688 10.6836 6.76953 10.4375 6.60547C10.1641 6.46875 9.97266 6.22266 9.97266 5.92188V5.83984C9.97266 5.64844 9.86328 5.45703 9.64453 5.42969C9.48047 5.40234 9.28906 5.375 9.09766 5.375C8.93359 5.375 8.74219 5.40234 8.57812 5.42969C8.35938 5.45703 8.22266 5.64844 8.22266 5.83984V5.92188C8.22266 6.22266 8.05859 6.46875 7.78516 6.60547C7.53906 6.76953 7.23828 6.79688 6.99219 6.66016L6.91016 6.60547C6.74609 6.49609 6.5 6.52344 6.39062 6.6875C6.28125 6.82422 6.19922 6.93359 6.11719 7.09766L6.03516 7.17969C5.98047 7.34375 5.89844 7.48047 5.84375 7.61719C5.76172 7.80859 5.84375 8.02734 6.03516 8.10938L6.11719 8.16406C6.36328 8.30078 6.47266 8.60156 6.47266 8.875C6.47266 9.17578 6.36328 9.47656 6.11719 9.61328L6.03516 9.66797C5.84375 9.75 5.76172 9.96875 5.84375 10.1602C5.89844 10.2969 5.95312 10.4336 6.03516 10.5703L6.11719 10.6797C6.19922 10.8438 6.28125 10.9531 6.39062 11.0898C6.5 11.2539 6.71875 11.2812 6.91016 11.1719L6.99219 11.1172C7.23828 10.9805 7.53906 11.0078 7.78516 11.1719C8.03125 11.3086 8.22266 11.5547 8.22266 11.8555V11.9375C8.22266 12.1289 8.35938 12.3203 8.55078 12.3477C8.74219 12.375 8.93359 12.375 9.09766 12.375C9.28906 12.375 9.48047 12.375 9.64453 12.3477C9.83594 12.3203 9.97266 12.1289 9.97266 11.9375V11.8555C9.97266 11.5547 10.1641 11.3086 10.4102 11.1719C10.6836 11.0078 10.9844 10.9805 11.2305 11.1172L11.3125 11.1719C11.4766 11.2812 11.6953 11.2539 11.832 11.0898C11.9414 10.9531 12.0234 10.8438 12.1055 10.6797L12.1602 10.5703C12.2422 10.4336 12.3242 10.2969 12.3789 10.1328C12.4336 9.96875 12.3516 9.75 12.1875 9.64062L12.1055 9.61328C11.8594 9.44922 11.7227 9.17578 11.7227 8.875C11.7227 8.60156 11.8594 8.30078 12.1055 8.16406L12.1875 8.10938ZM8.03125 8.875C8.03125 8.49219 8.22266 8.13672 8.57812 7.94531C8.90625 7.75391 9.31641 7.75391 9.67188 7.94531C10 8.13672 10.2188 8.49219 10.2188 8.875C10.2188 9.28516 10 9.64062 9.67188 9.83203C9.31641 10.0234 8.90625 10.0234 8.57812 9.83203C8.22266 9.64062 8.03125 9.28516 8.03125 8.875Z" fill="#6851AA" fill-opacity="0.6"/>
</svg>
