<svg width="20" height="20" viewBox="0 0 20 20" fill="none" xmlns="http://www.w3.org/2000/svg">
<path d="M18.0391 9.50391C17.9023 9.72266 17.6016 9.75 17.4102 9.55859L11.9414 4.08984C11.75 3.89844 11.7773 3.59766 11.9961 3.46094C12.6797 3.02344 13.4727 2.75 14.375 2.75C16.7812 2.75 18.75 4.71875 18.75 7.125C18.75 8.02734 18.4766 8.82031 18.0391 9.50391ZM16.7539 10.8164C16.043 11.2539 15.25 11.5 14.375 11.5C11.9414 11.5 10 9.55859 10 7.125C10 6.25 10.2461 5.42969 10.6836 4.74609C10.8203 4.52734 11.1211 4.52734 11.3125 4.71875L16.7812 10.1875C16.9727 10.3789 16.9453 10.6797 16.7539 10.8164ZM9.48047 12.8125C9.75391 12.8125 9.94531 13.0586 9.89062 13.3047C9.48047 15.2734 7.70312 16.75 5.625 16.75C3.51953 16.75 1.74219 15.2734 1.33203 13.3047C1.27734 13.0586 1.49609 12.8125 1.74219 12.8125H9.48047ZM9.48047 11.9375H1.74219C1.49609 11.9375 1.27734 11.7188 1.33203 11.4727C1.74219 9.50391 3.51953 8 5.625 8C7.70312 8 9.48047 9.50391 9.89062 11.4727C9.94531 11.7188 9.75391 11.9375 9.48047 11.9375Z" fill="#6851AA" fill-opacity="0.6"/>
</svg>
