<svg width="20" height="20" viewBox="0 0 20 20" fill="none" xmlns="http://www.w3.org/2000/svg">
<path d="M6.66406 6.41406L7.92188 3.84375C7.97656 3.70703 8.11328 3.625 8.25 3.625C8.35938 3.625 8.49609 3.70703 8.55078 3.84375L9.80859 6.41406C9.91797 6.66016 10 6.90625 10 7.17969C10 8.10938 9.20703 8.875 8.27734 8.875H8.19531C7.26562 8.875 6.5 8.10938 6.5 7.17969C6.5 6.90625 6.55469 6.66016 6.66406 6.41406ZM4.03906 11.6641L5.29688 9.09375C5.35156 8.95703 5.48828 8.875 5.625 8.875C5.73438 8.875 5.87109 8.95703 5.92578 9.09375L7.18359 11.6641C7.29297 11.9102 7.375 12.1562 7.375 12.4297C7.375 13.3594 6.58203 14.125 5.65234 14.125H5.57031C4.64062 14.125 3.875 13.3594 3.875 12.4297C3.875 12.1562 3.92969 11.9102 4.03906 11.6641ZM12.2695 6.44141C12.3516 6.33203 12.4883 6.25 12.625 6.25C12.7617 6.25 12.8711 6.33203 12.9531 6.44141L15.6328 10.8164C15.9336 11.3359 16.125 11.9375 16.125 12.5391C16.125 14.3984 14.6211 15.875 12.7891 15.875H12.4609C10.6016 15.875 9.125 14.3984 9.125 12.5391C9.125 11.9375 9.28906 11.3359 9.61719 10.8164L12.2695 6.44141Z" fill="#6851AA" fill-opacity="0.6"/>
</svg>
