<svg width="20" height="20" viewBox="0 0 20 20" fill="none" xmlns="http://www.w3.org/2000/svg">
<path d="M9.5625 2.77734C9.83594 2.85938 10 3.13281 9.91797 3.37891L9.78125 3.81641C10.1641 4.03516 10.4648 4.33594 10.6836 4.71875L11.1211 4.58203C11.3672 4.5 11.6406 4.66406 11.7227 4.91016C11.8047 5.18359 11.6406 5.45703 11.3945 5.53906L10.957 5.64844C11.0117 6.08594 10.9023 6.55078 10.6836 6.90625L10.9297 7.15234C11.1211 7.37109 11.1211 7.67188 10.9297 7.86328C10.7383 8.05469 10.4375 8.05469 10.2461 7.86328L10.0547 7.67188C9.80859 7.83594 9.50781 7.97266 9.20703 8.05469C9.07031 8.08203 8.96094 8.10938 8.87891 8.13672L8.93359 8.35547C9.01562 8.62891 8.85156 8.90234 8.60547 8.98438C8.33203 9.03906 8.05859 8.90234 7.97656 8.62891L7.94922 8.51953C7.40234 8.82031 7.10156 9.14844 6.9375 9.42188L7.18359 9.53125C7.42969 9.64062 7.53906 9.91406 7.42969 10.1602C7.32031 10.4336 7.04688 10.543 6.80078 10.4336L6.58203 10.3516C6.55469 10.8164 6.39062 11.2266 6.14453 11.5547L6.33594 11.7734C6.52734 11.9648 6.52734 12.2656 6.33594 12.457C6.14453 12.6484 5.84375 12.6484 5.65234 12.457L5.40625 12.2109C5.05078 12.4023 4.64062 12.5117 4.23047 12.4844C4.20312 12.4844 4.14844 12.4844 4.12109 12.4844L4.01172 12.8945C3.92969 13.168 3.65625 13.332 3.41016 13.25C3.13672 13.168 3 12.8945 3.05469 12.6211L3.19141 12.2109C2.80859 11.9922 2.50781 11.6914 2.28906 11.3086L1.87891 11.4453C1.60547 11.5 1.33203 11.3633 1.25 11.0898C1.19531 10.8438 1.33203 10.5703 1.60547 10.4883L2.01562 10.3789C2.01562 10.2969 1.98828 10.2148 2.01562 10.1328L2.80859 10.1602C2.01562 10.1328 2.01562 10.1328 2.01562 10.1328V10.1055V10.0781C2.01562 10.0508 2.01562 10.0234 2.01562 9.99609C2.01562 9.94141 2.01562 9.85938 2.04297 9.77734C2.04297 9.61328 2.09766 9.39453 2.15234 9.14844C2.15234 9.12109 2.15234 9.09375 2.15234 9.06641L1.87891 8.95703C1.63281 8.84766 1.49609 8.57422 1.60547 8.32812C1.71484 8.08203 1.98828 7.94531 2.23438 8.05469L2.45312 8.13672C2.58984 7.86328 2.72656 7.53516 2.89062 7.23438C2.94531 7.15234 3 7.07031 3.02734 6.98828L2.72656 6.74219C2.50781 6.57812 2.48047 6.27734 2.64453 6.05859C2.83594 5.83984 3.13672 5.8125 3.35547 5.97656L3.62891 6.19531C3.90234 5.86719 4.23047 5.53906 4.61328 5.23828L4.44922 4.99219C4.28516 4.77344 4.33984 4.47266 4.58594 4.30859C4.80469 4.17188 5.10547 4.22656 5.26953 4.44531L5.40625 4.69141C5.78906 4.44531 6.19922 4.25391 6.63672 4.0625L6.52734 3.78906C6.41797 3.51562 6.52734 3.24219 6.77344 3.13281C7.04688 3.02344 7.32031 3.13281 7.42969 3.37891L7.59375 3.73438C7.75781 3.67969 7.94922 3.625 8.16797 3.59766C8.38672 3.54297 8.63281 3.51562 8.85156 3.54297L8.96094 3.13281C9.04297 2.85938 9.31641 2.69531 9.5625 2.77734ZM4.3125 10.1875V10.2148C3.73828 10.1875 3.30078 10.1602 3 10.1602L4.3125 10.1875ZM4.75 8C4.25781 8 3.875 8.41016 3.875 8.875C3.875 9.36719 4.25781 9.75 4.75 9.75C5.21484 9.75 5.625 9.36719 5.625 8.875C5.625 8.41016 5.21484 8 4.75 8ZM6.5 6.6875C6.5 6.93359 6.69141 7.125 6.9375 7.125C7.15625 7.125 7.375 6.93359 7.375 6.6875C7.375 6.46875 7.15625 6.25 6.9375 6.25C6.69141 6.25 6.5 6.46875 6.5 6.6875ZM10.0547 16.1211L10.1914 15.7109C9.80859 15.5195 9.50781 15.1914 9.28906 14.8086L8.85156 14.9453C8.60547 15.0273 8.33203 14.8633 8.25 14.6172C8.16797 14.3438 8.33203 14.0703 8.60547 13.9883L9.01562 13.8789C8.98828 13.4414 9.07031 12.9766 9.28906 12.5938L9.04297 12.3477C8.85156 12.1562 8.85156 11.8555 9.04297 11.6641C9.23438 11.4727 9.53516 11.4727 9.72656 11.6641L9.94531 11.8555C10.1914 11.6641 10.4648 11.5273 10.793 11.4727C10.9023 11.4453 11.0117 11.418 11.1211 11.3906L11.0391 11.1719C10.9844 10.8984 11.1211 10.625 11.3945 10.543C11.6406 10.4883 11.9141 10.625 11.9961 10.8984L12.0234 11.0078C12.5703 10.707 12.8711 10.3789 13.0352 10.1055L12.8164 9.99609C12.543 9.88672 12.4336 9.61328 12.543 9.33984C12.6523 9.09375 12.9531 8.98438 13.1992 9.09375L13.3906 9.17578C13.418 8.71094 13.582 8.30078 13.8281 7.94531L13.6367 7.75391C13.4453 7.5625 13.4453 7.26172 13.6367 7.07031C13.8281 6.87891 14.1289 6.87891 14.3203 7.07031L14.5664 7.31641C14.9219 7.125 15.332 7.01562 15.7422 7.04297C15.7969 7.04297 15.8242 7.04297 15.8516 7.04297L15.9609 6.63281C16.043 6.35938 16.3164 6.19531 16.5898 6.27734C16.8359 6.35938 17 6.63281 16.918 6.87891L16.7812 7.31641C17.1641 7.53516 17.4648 7.83594 17.6836 8.21875L18.1211 8.08203C18.3672 8 18.6406 8.16406 18.7227 8.4375C18.8047 8.68359 18.6406 8.95703 18.3945 9.03906L17.957 9.14844C17.9844 9.23047 17.9844 9.3125 17.9844 9.39453L17.1641 9.36719C17.957 9.39453 17.957 9.39453 17.957 9.39453V9.42188V9.44922C17.957 9.47656 17.957 9.50391 17.957 9.53125C17.957 9.58594 17.957 9.66797 17.9297 9.75C17.9297 9.91406 17.875 10.1328 17.8203 10.3789C17.8203 10.4062 17.8203 10.4336 17.8203 10.4609L18.0938 10.5703C18.3398 10.6523 18.4766 10.9531 18.3672 11.1992C18.2578 11.4453 17.9844 11.582 17.7383 11.4727L17.5195 11.3906C17.4102 11.6641 17.2461 11.9922 17.082 12.293C17.0273 12.375 16.9727 12.457 16.9453 12.5117L17.2461 12.7578C17.4648 12.9492 17.4922 13.25 17.3281 13.4688C17.1367 13.6875 16.8359 13.7148 16.6172 13.5508L16.3438 13.332C16.0703 13.6602 15.7422 13.9609 15.3867 14.2617L15.5508 14.5078C15.6875 14.7539 15.6328 15.0547 15.4141 15.1914C15.168 15.3555 14.8672 15.3008 14.7305 15.0547L14.5664 14.8359C14.1836 15.082 13.7734 15.2734 13.3359 15.4648L13.4453 15.7383C13.5547 15.9844 13.4453 16.2852 13.1992 16.3945C12.9258 16.5039 12.6523 16.3945 12.543 16.1211L12.3789 15.793C12.2148 15.8477 12.0234 15.9023 11.8047 15.9297C11.5859 15.9844 11.3398 16.0117 11.1211 15.9844L11.0117 16.3945C10.9297 16.668 10.6562 16.832 10.4102 16.75C10.1367 16.668 10 16.3945 10.0547 16.1211ZM17 9.36719L15.6875 9.3125C16.2344 9.33984 16.6719 9.36719 17 9.36719ZM13.5 13.25C13.5 12.7852 13.0898 12.375 12.625 12.375C12.1328 12.375 11.75 12.7852 11.75 13.25C11.75 13.7422 12.1328 14.125 12.625 14.125C13.0898 14.125 13.5 13.7422 13.5 13.25Z" fill="#6851AA" fill-opacity="0.6"/>
</svg>
