<svg width="20" height="20" viewBox="0 0 20 20" fill="none" xmlns="http://www.w3.org/2000/svg">
<path d="M9.45312 4.44531C9.78125 3.92578 10.3555 3.625 10.957 3.625C11.8047 3.625 12.5156 4.22656 12.707 5.04688L12.8984 5.89453C13.1172 6.90625 13.9102 7.64453 14.9219 7.83594L15.6875 7.97266C16.4531 8.10938 17 8.76562 17 9.55859C17 10.2148 16.5898 10.7891 15.9609 11.0352L14.9766 11.418C14.0742 11.7734 13.5 12.6211 13.5 13.5781V14.2617C13.5 15.1641 12.7617 15.875 11.8594 15.875C11.5039 15.875 11.1484 15.7656 10.8477 15.5195L10.0273 14.8633C9.42578 14.3984 8.71484 14.125 7.97656 14.125H7.70312C7.48438 14.125 7.26562 14.1523 7.04688 14.207L5.35156 14.5898C4.36719 14.8086 3.4375 14.043 3.4375 13.0586C3.4375 12.6211 3.60156 12.2109 3.90234 11.9375L4.25781 11.582C4.55859 11.2812 4.75 10.8711 4.75 10.4336C4.75 9.99609 4.55859 9.58594 4.25781 9.28516L3.46484 8.49219C3.16406 8.19141 3 7.75391 3 7.34375C3 6.30469 3.90234 5.53906 4.91406 5.70312L6.52734 5.97656C7.56641 6.14062 8.60547 5.70312 9.20703 4.82812L9.45312 4.44531ZM7.375 8C6.88281 8 6.5 8.41016 6.5 8.875C6.5 9.36719 6.88281 9.75 7.375 9.75C7.83984 9.75 8.25 9.36719 8.25 8.875C8.25 8.41016 7.83984 8 7.375 8ZM10.875 8.4375C10.875 8.68359 11.0664 8.875 11.3125 8.875C11.5312 8.875 11.75 8.68359 11.75 8.4375C11.75 8.21875 11.5312 8 11.3125 8C11.0664 8 10.875 8.21875 10.875 8.4375ZM10.875 10.625C10.3828 10.625 10 11.0352 10 11.5C10 11.9922 10.3828 12.375 10.875 12.375C11.3398 12.375 11.75 11.9922 11.75 11.5C11.75 11.0352 11.3398 10.625 10.875 10.625Z" fill="#6851AA" fill-opacity="0.6"/>
</svg>
