<svg width="20" height="20" viewBox="0 0 20 20" fill="none" xmlns="http://www.w3.org/2000/svg">
<path d="M3.875 6.6875V9.75H6.5V6.6875C6.5 5.97656 5.89844 5.375 5.1875 5.375C4.44922 5.375 3.875 5.97656 3.875 6.6875ZM2.125 6.6875C2.125 5.01953 3.49219 3.625 5.1875 3.625C6.85547 3.625 8.25 5.01953 8.25 6.6875V7.37109C8.33203 6.46875 8.76953 5.64844 9.53516 5.10156C10.9023 4.08984 12.8164 4.44531 13.8008 5.86719L17.3008 10.9805C18.2852 12.4023 17.957 14.3438 16.5625 15.3281C15.168 16.3125 13.2539 15.9844 12.2969 14.5625L8.76953 9.44922C8.46875 8.98438 8.27734 8.46484 8.25 7.94531V12.8125C8.25 14.5078 6.85547 15.875 5.1875 15.875C3.49219 15.875 2.125 14.5078 2.125 12.8125V6.6875ZM10.2188 8.46484L11.9961 11.0352L14.1836 9.50391L12.3516 6.85156C11.9414 6.22266 11.1211 6.11328 10.5469 6.52344C9.94531 6.93359 9.78125 7.80859 10.2188 8.46484ZM15.5508 13.9062L15.5781 13.8789L15.4688 13.9609C15.4961 13.9336 15.5234 13.9336 15.5508 13.9062Z" fill="#6851AA" fill-opacity="0.6"/>
</svg>
