<svg width="20" height="20" viewBox="0 0 20 20" fill="none" xmlns="http://www.w3.org/2000/svg">
<path d="M13.0625 2.75C13.5273 2.75 13.9375 3.02344 14.1836 3.40625C14.4297 3.81641 14.4297 4.33594 14.1836 4.71875C13.9375 5.12891 13.5273 5.375 13.0625 5.375C12.5703 5.375 12.1602 5.12891 11.9141 4.71875C11.668 4.33594 11.668 3.81641 11.9141 3.40625C12.1602 3.02344 12.5703 2.75 13.0625 2.75ZM10.082 7.125C9.69922 7.125 9.31641 7.28906 9.04297 7.5625L8.41406 8.19141C8.08594 8.54688 7.51172 8.54688 7.18359 8.19141C6.82812 7.86328 6.82812 7.28906 7.18359 6.96094L7.8125 6.33203C8.41406 5.73047 9.23438 5.375 10.082 5.375C10.3828 5.375 10.7109 5.42969 11.0117 5.53906L12.3516 5.94922C13.3359 6.25 14.1562 6.98828 14.5391 7.94531L14.7305 8.35547C14.8672 8.68359 15.168 8.875 15.5234 8.875H16.125C16.5898 8.875 17 9.28516 17 9.75C17 10.2422 16.5898 10.625 16.125 10.625H15.5234C14.457 10.625 13.5273 9.99609 13.1172 9.01172L12.9805 8.68359L12.1328 10.9258L13.6641 11.9102C14.1562 12.2109 14.4023 12.8125 14.2383 13.3867L13.4453 16.1211C13.3086 16.5859 12.8438 16.8594 12.3789 16.7227C11.9141 16.5859 11.6406 16.1211 11.7773 15.6562L12.4609 13.2227L10.1094 11.7461C9.42578 11.3086 9.125 10.4609 9.37109 9.69531L10.2188 7.15234C10.1641 7.15234 10.1367 7.125 10.082 7.125ZM8.60547 11.2539C8.79688 11.7461 9.15234 12.1836 9.64453 12.4844L9.89062 12.6484L9.58984 13.3594C9.37109 13.8242 8.90625 14.125 8.38672 14.125H6.5C6.00781 14.125 5.625 13.7422 5.625 13.25C5.625 12.7852 6.00781 12.375 6.5 12.375H8.11328L8.60547 11.2539ZM3.4375 5.375H6.9375C7.15625 5.375 7.375 5.56641 7.375 5.8125C7.375 6.05859 7.15625 6.25 6.9375 6.25H3.4375C3.19141 6.25 3 6.05859 3 5.8125C3 5.56641 3.19141 5.375 3.4375 5.375ZM3 7.5625C3 7.31641 3.19141 7.125 3.4375 7.125H5.1875C5.40625 7.125 5.625 7.31641 5.625 7.5625C5.625 7.80859 5.40625 8 5.1875 8H3.4375C3.19141 8 3 7.80859 3 7.5625ZM3.4375 8.875H6.9375C7.15625 8.875 7.375 9.06641 7.375 9.3125C7.375 9.55859 7.15625 9.75 6.9375 9.75H3.4375C3.19141 9.75 3 9.55859 3 9.3125C3 9.06641 3.19141 8.875 3.4375 8.875Z" fill="#6851AA" fill-opacity="0.6"/>
</svg>
