<svg width="20" height="20" viewBox="0 0 20 20" fill="none" xmlns="http://www.w3.org/2000/svg">
<path d="M10 3.625C12.1875 3.625 13.9648 4.63672 15.25 5.83984C16.5352 7.01562 17.3828 8.4375 17.793 9.42188C17.875 9.64062 17.875 9.88672 17.793 10.1055C17.3828 11.0625 16.5352 12.4844 15.25 13.6875C13.9648 14.8906 12.1875 15.875 10 15.875C7.78516 15.875 6.00781 14.8906 4.72266 13.6875C3.4375 12.4844 2.58984 11.0625 2.17969 10.1055C2.09766 9.88672 2.09766 9.64062 2.17969 9.42188C2.58984 8.4375 3.4375 7.01562 4.72266 5.83984C6.00781 4.63672 7.78516 3.625 10 3.625ZM6.0625 9.75C6.0625 11.1719 6.80078 12.457 8.03125 13.168C9.23438 13.8789 10.7383 13.8789 11.9688 13.168C13.1719 12.457 13.9375 11.1719 13.9375 9.75C13.9375 8.35547 13.1719 7.07031 11.9688 6.35938C10.7383 5.64844 9.23438 5.64844 8.03125 6.35938C6.80078 7.07031 6.0625 8.35547 6.0625 9.75ZM10 8C10 7.80859 9.94531 7.64453 9.89062 7.45312C9.83594 7.31641 9.94531 7.125 10.1094 7.125C11.2031 7.17969 12.2148 7.94531 12.5156 9.09375C12.8984 10.4883 12.0781 11.9102 10.6562 12.293C9.26172 12.6758 7.8125 11.8281 7.45703 10.4336C7.40234 10.2422 7.375 10.0508 7.375 9.88672C7.34766 9.72266 7.53906 9.61328 7.67578 9.66797C7.86719 9.72266 8.03125 9.75 8.25 9.75C9.20703 9.75 10 8.98438 10 8Z" fill="#6851AA" fill-opacity="0.6"/>
</svg>
