<svg width="20" height="20" viewBox="0 0 20 20" fill="none" xmlns="http://www.w3.org/2000/svg">
<path d="M10.3555 2.83203L15.4961 5.01953C16.0977 5.29297 16.5625 5.86719 16.5625 6.57812C16.5352 9.3125 15.4141 14.2617 10.7109 16.5312C10.2461 16.75 9.72656 16.75 9.26172 16.5312C4.55859 14.2617 3.4375 9.3125 3.4375 6.57812C3.41016 5.86719 3.875 5.29297 4.47656 5.01953L9.61719 2.83203C9.72656 2.77734 9.86328 2.75 10 2.75C10.1094 2.75 10.2461 2.77734 10.3555 2.83203ZM6.9375 8.82031C6.9375 9.25781 7.10156 9.69531 7.42969 9.99609L9.67188 12.2656C9.86328 12.4297 10.1367 12.4297 10.3008 12.2656L12.5703 9.99609C12.8711 9.69531 13.0625 9.25781 13.0625 8.82031C13.0625 7.89062 12.2969 7.125 11.3672 7.125C10.9297 7.125 10.4922 7.31641 10.1914 7.61719L10 7.83594L9.78125 7.61719C9.48047 7.31641 9.04297 7.125 8.60547 7.125C7.67578 7.125 6.9375 7.89062 6.9375 8.82031Z" fill="#6851AA" fill-opacity="0.6"/>
</svg>
