<svg width="20" height="20" viewBox="0 0 20 20" fill="none" xmlns="http://www.w3.org/2000/svg">
<path d="M8.25 3.625V5.375C8.25 6.35938 9.01562 7.125 10 7.125H10.4648C11.0664 6.08594 12.1875 5.375 13.5 5.375C15.4141 5.375 17 6.96094 17 8.875V11.0625C17 14.207 14.4297 16.75 11.3125 16.75C10.4375 16.75 9.72656 16.6133 9.15234 16.3398C8.55078 16.0938 8.14062 15.7656 7.78516 15.4648C7.73047 15.4375 7.67578 15.3828 7.64844 15.3555C7.04688 14.8359 6.71875 14.5625 6.0625 14.5625C5.32422 14.5625 4.75 15.1641 4.75 15.875C4.75 16.3672 4.33984 16.75 3.875 16.75C3.38281 16.75 3 16.3672 3 15.875C3 13.9609 4.55859 12.375 6.5 12.375H8.25C9.20703 12.375 10 11.6094 10 10.625V8.875C8.05859 8.875 6.5 7.31641 6.5 5.375V3.625C6.5 3.16016 6.88281 2.75 7.375 2.75C7.83984 2.75 8.25 3.16016 8.25 3.625ZM15.168 11.8555C15.2227 11.6094 15.25 11.3359 15.25 11.0625V8.875C15.25 7.91797 14.457 7.125 13.5 7.125C12.5156 7.125 11.75 7.91797 11.75 8.875V10.625C11.75 10.8164 11.7227 11.0078 11.6953 11.1992C11.9141 11.1445 12.1875 11.0898 12.4062 11.0625C12.8438 11.0625 13.1719 11.2812 13.5 11.5C13.8008 11.7461 14.1289 11.9648 14.5938 11.9375C14.7578 11.9375 14.9492 11.9102 15.168 11.8555Z" fill="#6851AA" fill-opacity="0.6"/>
</svg>
