<svg width="20" height="20" viewBox="0 0 20 20" fill="none" xmlns="http://www.w3.org/2000/svg">
<path d="M10 2.75C10.3828 2.75 10.7383 2.96875 10.9297 3.29688C11.1211 3.65234 11.1211 4.0625 10.9297 4.39062C10.7383 4.74609 10.3828 4.9375 10 4.9375C9.58984 4.9375 9.23438 4.74609 9.04297 4.39062C8.85156 4.0625 8.85156 3.65234 9.04297 3.29688C9.23438 2.96875 9.58984 2.75 10 2.75ZM11.2031 7.26172L11.5039 9.66797C11.5586 10.0508 11.3125 10.3789 10.957 10.4062C10.5742 10.4609 10.2461 10.2148 10.2188 9.83203L10.082 8.875H9.89062L9.75391 9.83203C9.72656 10.2148 9.39844 10.4609 9.04297 10.4062C8.66016 10.3789 8.41406 10.0508 8.46875 9.66797L8.76953 7.26172L8.22266 7.69922C7.94922 7.94531 7.53906 7.91797 7.29297 7.64453C7.07422 7.37109 7.10156 6.93359 7.375 6.71484L8.14062 6.05859C8.66016 5.62109 9.31641 5.375 10 5.375C10.6562 5.375 11.3125 5.62109 11.832 6.05859L12.5977 6.71484C12.8711 6.93359 12.8984 7.34375 12.6797 7.64453C12.4336 7.91797 12.0234 7.94531 11.75 7.69922L11.2031 7.26172ZM2.34375 4.5C2.94531 4.5 3.4375 4.99219 3.4375 5.59375V6.6875V8.875V9.99609C3.4375 10.4609 3.60156 10.8984 3.92969 11.2266L5.32422 12.6211C5.57031 12.8398 5.92578 12.8945 6.17188 12.7031C6.52734 12.4844 6.58203 11.9648 6.28125 11.6641L5.87109 11.2539L4.99609 10.3789C4.64062 10.0508 4.64062 9.47656 4.99609 9.14844C5.32422 8.79297 5.89844 8.79297 6.22656 9.14844L7.10156 10.0234L7.51172 10.4336L8.22266 11.1172C8.79688 11.6914 9.09766 12.4844 9.09766 13.3047V15.4375C9.09766 16.1758 8.52344 16.75 7.78516 16.75H5.98047C5.51562 16.75 5.07812 16.5859 4.75 16.2578L2.01562 13.5234C1.52344 13.0312 1.25 12.3477 1.25 11.6641V8.875V7.125V5.59375C1.25 4.99219 1.71484 4.5 2.34375 4.5ZM17.6562 4.5C18.2578 4.5 18.75 4.99219 18.75 5.59375V7.125V8.875V11.6641C18.75 12.3477 18.4492 13.0312 17.957 13.5234L15.25 16.2578C14.9219 16.5859 14.457 16.75 13.9922 16.75H12.1875C11.4492 16.75 10.875 16.1758 10.875 15.4375V13.3047C10.875 12.4844 11.1758 11.6914 11.75 11.1172L12.4609 10.4336L12.8711 10.0234L13.7461 9.14844C14.0742 8.79297 14.6484 8.79297 14.9766 9.14844C15.332 9.47656 15.332 10.0508 14.9766 10.3789L14.1016 11.2539L13.6914 11.6641C13.3906 11.9648 13.4453 12.4844 13.8008 12.7031C14.0469 12.8945 14.4023 12.8398 14.6484 12.6211L16.043 11.2266C16.3711 10.8984 16.5352 10.4609 16.5352 9.99609V8.875V6.6875V5.59375C16.5352 4.99219 17.0273 4.5 17.6289 4.5H17.6562Z" fill="#6851AA" fill-opacity="0.6"/>
</svg>
