<svg width="20" height="20" viewBox="0 0 20 20" fill="none" xmlns="http://www.w3.org/2000/svg">
<path d="M5.40625 2.75H5.48828C6.03516 2.75 6.55469 2.91406 7.01953 3.21484L7.10156 3.29688C7.8125 3.76172 8.25 4.55469 8.25 5.40234C8.25 6.03125 8.00391 6.63281 7.59375 7.09766L7.10156 7.67188C6.74609 8.08203 6.55469 8.62891 6.60938 9.17578L6.71875 10.2969C6.88281 11.8828 5.625 13.25 4.03906 13.25C2.75391 13.25 1.63281 12.375 1.44141 11.0625C1.33203 10.3789 1.25 9.55859 1.25 8.875C1.25 6.03125 2.78125 4.19922 3.62891 3.40625C4.14844 2.94141 4.80469 2.75 5.40625 2.75ZM14.5938 2.75C15.168 2.75 15.8242 2.94141 16.3438 3.40625C17.1914 4.19922 18.75 6.03125 18.75 8.875C18.75 9.55859 18.6406 10.3789 18.5586 11.0625C18.3398 12.375 17.2188 13.25 15.9336 13.25C14.3477 13.25 13.0898 11.8828 13.2539 10.2969L13.3633 9.17578C13.418 8.62891 13.2539 8.08203 12.8711 7.67188L12.3789 7.09766C11.9688 6.63281 11.75 6.03125 11.75 5.40234C11.75 4.55469 12.1602 3.76172 12.8711 3.29688L12.9531 3.21484C13.418 2.91406 13.9375 2.75 14.4844 2.75H14.5938ZM7.48438 9.09375C7.45703 8.76562 7.53906 8.46484 7.75781 8.24609L8.71484 8.71094C9.23438 8.98438 9.5625 9.50391 9.5625 10.0781V16.0938C9.5625 16.4766 9.26172 16.75 8.90625 16.75C8.52344 16.75 8.25 16.4766 8.25 16.0938V10.0781C8.25 9.99609 8.19531 9.91406 8.11328 9.88672L7.53906 9.58594L7.48438 9.09375ZM12.2148 8.24609C12.4336 8.46484 12.5156 8.76562 12.4883 9.09375L12.4336 9.58594L11.8594 9.88672C11.7773 9.91406 11.75 9.99609 11.75 10.0781V16.0938C11.75 16.4766 11.4492 16.75 11.0938 16.75C10.7109 16.75 10.4375 16.4766 10.4375 16.0938V10.0781C10.4375 9.50391 10.7656 8.98438 11.2852 8.71094L12.2148 8.24609Z" fill="#6851AA" fill-opacity="0.6"/>
</svg>
