<svg width="20" height="20" viewBox="0 0 20 20" fill="none" xmlns="http://www.w3.org/2000/svg">
<path d="M13.418 3.98047L11.3125 8.90234H14.375C14.7305 8.90234 15.0586 9.12109 15.1953 9.44922C15.3047 9.80469 15.2227 10.1875 14.9492 10.4336L7.94922 16.5586C7.62109 16.8047 7.18359 16.832 6.85547 16.5859C6.52734 16.3672 6.39062 15.9297 6.55469 15.5469L8.66016 10.625H5.625C5.24219 10.625 4.91406 10.4062 4.80469 10.0781C4.66797 9.72266 4.75 9.33984 5.02344 9.09375L12.0234 2.96875C12.3516 2.72266 12.7891 2.69531 13.1172 2.94141C13.4453 3.16016 13.582 3.59766 13.418 3.98047Z" fill="#6851AA" fill-opacity="0.6"/>
</svg>
