<svg width="20" height="20" viewBox="0 0 20 20" fill="none" xmlns="http://www.w3.org/2000/svg">
<path d="M9.23438 15.6016L4.28516 10.9805C4.17578 10.8711 4.06641 10.7617 3.95703 10.625H6.33594C6.96484 10.625 7.51172 10.2695 7.75781 9.69531L8.03125 9.01172L9.39844 11.9922C9.50781 12.2383 9.72656 12.375 9.97266 12.375C10.2188 12.375 10.4648 12.2383 10.5742 12.0195L11.75 9.69531L11.7773 9.80469C12.0508 10.3242 12.5703 10.6523 13.1445 10.6523H16.0156C15.9062 10.7617 15.7969 10.8711 15.6875 10.9805L10.7383 15.6016C10.5469 15.793 10.2734 15.875 10 15.875C9.69922 15.875 9.42578 15.793 9.23438 15.6016ZM16.7539 9.3125H13.1445C13.0625 9.3125 12.9805 9.28516 12.9531 9.20312L12.3242 7.94531C12.2148 7.72656 11.9688 7.5625 11.7227 7.5625C11.4766 7.5625 11.2578 7.72656 11.1484 7.94531L10 10.2148L8.60547 7.09766C8.52344 6.85156 8.27734 6.6875 8.00391 6.71484C7.75781 6.71484 7.51172 6.85156 7.40234 7.09766L6.55469 9.20312C6.5 9.28516 6.41797 9.33984 6.33594 9.33984H3.4375C3.35547 9.33984 3.30078 9.33984 3.21875 9.36719C3.08203 8.92969 3 8.46484 3 7.97266V7.83594C3 5.92188 4.36719 4.28125 6.25391 3.98047C7.51172 3.76172 8.76953 4.17188 9.67188 5.04688L10 5.375L10.3281 5.04688C11.2031 4.17188 12.4883 3.76172 13.7188 3.98047C15.6055 4.28125 17 5.92188 17 7.83594V7.97266C17 8.4375 16.918 8.90234 16.7539 9.3125Z" fill="#6851AA" fill-opacity="0.6"/>
</svg>
