<svg width="25" height="25" viewBox="0 0 25 25" fill="none" xmlns="http://www.w3.org/2000/svg">
<circle cx="12.5" cy="12.5" r="12.5" fill="#3F8B8B"/>
<path d="M12.4916 13.2047C10.7794 13.2047 9.35627 11.7971 9.35627 10.1314C9.35627 8.40822 10.7794 7 12.4922 7C14.2633 7 15.6276 8.40762 15.6276 10.1314C15.6245 10.9493 15.2936 11.7325 14.7075 12.3088C14.1214 12.8852 13.3281 13.2077 12.5019 13.2053L12.4916 13.2047ZM12.4916 8.81022C11.7667 8.81022 11.2152 9.41323 11.2152 10.132C11.2152 10.8496 11.7667 11.3957 12.4922 11.3957C13.2468 11.3957 13.7693 10.8496 13.7693 10.132C13.7699 9.41263 13.2468 8.81022 12.4916 8.81022ZM13.7402 15.7619L15.5118 17.4569C15.8603 17.8295 15.8603 18.3755 15.5118 18.7205C15.1348 19.0932 14.5536 19.0932 14.2633 18.7205L12.4922 16.9967L10.7794 18.7205C10.6054 18.8927 10.3727 18.9785 10.1109 18.9785C9.90782 18.9785 9.67568 18.8921 9.47203 18.7205C9.12353 18.3755 9.12353 17.8295 9.47203 17.4563L11.2722 15.7613C10.6221 15.5707 9.99846 15.3009 9.41567 14.9579C8.97988 14.7281 8.89321 14.1539 9.12534 13.7225C9.41567 13.2917 9.93813 13.1771 10.403 13.4645C11.0325 13.8448 11.7557 14.046 12.4931 14.046C13.2306 14.046 13.9538 13.8448 14.5833 13.4645C15.0482 13.1771 15.5991 13.2917 15.8603 13.7225C16.1222 14.1539 16.0052 14.7275 15.5985 14.9579C15.0476 15.3029 14.4087 15.5615 13.7408 15.7625L13.7402 15.7619Z" fill="#F2F5FA"/>
</svg>
