<svg width="21" height="22" viewBox="0 0 21 22" fill="none" xmlns="http://www.w3.org/2000/svg">
<path fill-rule="evenodd" clip-rule="evenodd" d="M10.5908 0.587886C10.2541 0.558589 9.7738 0.521053 9.5233 0.51263C9.27282 0.500179 9.02635 0.495967 8.96886 0.50439C8.91136 0.51263 8.57885 0.541927 8.22985 0.567012C7.88085 0.592098 7.35516 0.650509 7.05963 0.696469C6.76391 0.742427 6.27521 0.834347 5.97143 0.905391C5.84948 0.933956 5.69914 0.971126 5.54461 1.01141C5.42229 1.04327 5.29724 1.07714 5.18151 1.1101C5.07897 1.1394 4.98357 1.16796 4.90374 1.19378L4.76586 1.23754L4.66131 1.27179L4.5075 1.32342L4.37401 1.36938C4.21088 1.42614 4.05414 1.48309 3.93878 1.52795C3.76849 1.59332 3.51855 1.69934 3.29076 1.79986L3.1831 1.84765C3.11553 1.87786 3.05163 1.90698 2.99449 1.93335C2.72351 2.05859 2.317 2.26751 2.09106 2.39294C1.86529 2.51819 1.44232 2.77729 1.15081 2.96533C0.842829 3.16162 0.600581 3.34545 0.571833 3.40826C0.543086 3.46667 0.481562 3.65473 0.436335 3.8261C0.414545 3.90869 0.383233 4.03686 0.350641 4.17841C0.315668 4.33038 0.279229 4.49792 0.251581 4.64075C0.194087 4.91649 0.116083 5.38451 0.0748845 5.68536C0.0600529 5.7998 0.0474186 5.92102 0.0371647 6.05323C0.0131779 6.36065 0.00109299 6.72833 0.00109299 7.21044C-0.00311844 8.12963 0.00109298 8.20069 0.0831243 8.33856C0.136591 8.43468 0.222834 8.50574 0.329585 8.54327C0.481562 8.59765 0.518366 8.59344 0.961848 8.46801C1.22058 8.39294 2.28405 8.07947 3.32299 7.77038C4.68199 7.36077 5.23644 7.18115 5.30621 7.11431C5.35968 7.06415 5.41717 6.96801 5.43347 6.89697C5.45397 6.8219 5.44591 6.51684 5.41296 6.14495C5.38019 5.80236 5.32671 5.2926 5.29797 5.01684C5.26519 4.74109 5.24871 4.50287 5.26519 4.49042C5.28166 4.47375 5.51568 4.42358 5.78667 4.3734C6.05767 4.32744 6.53814 4.26062 6.85417 4.2229C7.1704 4.18956 7.84386 4.1436 8.35308 4.12274C8.5891 4.11357 8.87 4.10846 9.15399 4.10735C9.51251 4.1059 9.87579 4.11102 10.1598 4.12274C10.6443 4.1436 11.3013 4.18956 11.6175 4.2229C11.7971 4.24431 12.03 4.2738 12.2474 4.30364C12.3378 4.31609 12.4257 4.32873 12.5059 4.34081C12.5717 4.35071 12.6323 4.36022 12.685 4.36919L12.8101 4.39045L13.0444 4.43163L13.1488 4.45086C13.2052 4.46148 13.2447 4.46954 13.2599 4.47375C13.342 4.49042 13.342 4.49865 13.2312 5.5266C13.1695 6.09479 13.1202 6.65051 13.1162 6.7633C13.1162 6.92205 13.1367 6.98486 13.227 7.08923C13.3297 7.20201 13.498 7.26464 14.8819 7.69513C15.2334 7.80445 15.6228 7.92327 15.99 8.03405C16.1866 8.09337 16.3771 8.15051 16.5522 8.20251C16.8361 8.2871 17.0795 8.35851 17.2428 8.40539C18.0107 8.62274 18.0723 8.63519 18.2036 8.58501C18.2819 8.55168 18.3802 8.47223 18.4296 8.40961C18.4993 8.31347 18.5199 8.20069 18.5485 7.82457C18.5651 7.56548 18.5691 7.08502 18.5527 6.75084C18.5403 6.4165 18.5035 5.9027 18.4706 5.60186C18.4378 5.30102 18.3678 4.84142 18.3145 4.57812C18.2612 4.31482 18.1749 3.95556 18.1255 3.78417C18.1049 3.71258 18.0855 3.65307 18.0649 3.60162C18.0567 3.58092 18.0483 3.56152 18.0397 3.54302L18.0271 3.51739L18.0165 3.49761C18.0024 3.47234 17.9876 3.44927 17.9715 3.42731C17.945 3.39123 17.9148 3.35826 17.8794 3.32457C17.8513 3.29748 17.802 3.25775 17.7402 3.21105C17.6676 3.15648 17.5779 3.09259 17.4841 3.02851C17.4234 2.98712 17.361 2.94573 17.3004 2.90691C17.0664 2.76062 16.5612 2.47643 16.1751 2.27594L16.0341 2.20343C15.9402 2.15544 15.8406 2.10564 15.7402 2.05621C15.4482 1.91229 15.1502 1.77203 14.9639 1.69512C14.6807 1.57812 14.1755 1.39007 13.8347 1.28149C13.7302 1.24652 13.6091 1.20788 13.4833 1.16906L13.3165 1.11834L13.1596 1.0722L13.0126 1.03009L12.8868 0.99493C12.8201 0.976802 12.7588 0.960689 12.7055 0.947322C12.4222 0.880305 11.9705 0.784358 11.6995 0.734187C11.5529 0.709286 11.3401 0.678341 11.1218 0.649959C11.0312 0.638057 10.9396 0.626705 10.8512 0.616268C10.7591 0.605464 10.6707 0.59576 10.5908 0.587886ZM13.3312 3.5C13.392 3.51135 13.4487 3.52216 13.5 3.53222V3.5H13.3312ZM18.6678 10.762H16.7461L16.6063 10.8581C16.4792 10.9416 16.3476 11.234 15.0912 14.1547L13.7115 17.3636L3.58977 17.3844C3.45721 17.5168 3.3922 17.5954 3.36053 17.6648C3.33911 17.7116 3.33288 17.7543 3.33123 17.8064C3.33049 17.8217 3.33069 17.8377 3.33141 17.8541L3.33306 17.8819C3.33544 17.9097 3.33947 17.9381 3.34478 17.9651C3.35448 18.0146 3.36858 18.0601 3.38451 18.0905C3.41748 18.1532 3.50775 18.2285 3.57752 18.2618C3.69251 18.3161 4.43976 18.3245 8.92785 18.3245C13.8182 18.3245 14.1509 18.3203 14.2659 18.2535C14.3317 18.2117 14.4177 18.1197 14.4507 18.053C14.4738 18.0112 14.7263 17.429 15.0911 16.5828L15.8427 14.8357L17.1688 11.7438C20.1131 11.7104 20.7207 11.6854 20.7743 11.6561C20.8193 11.631 20.8892 11.5391 20.9261 11.4556C20.9671 11.3719 21 11.2759 21 11.2424C21 11.2089 20.9753 11.117 20.9426 11.046C20.9055 10.9625 20.8235 10.879 20.7372 10.8372C20.6017 10.7702 20.4128 10.762 18.6678 10.762ZM11.3628 5.34276C11.256 5.2968 10.8373 5.28839 9.26861 5.28839C8.18883 5.2926 7.26891 5.30506 7.22386 5.3219C7.17864 5.33857 7.11291 5.36786 7.08013 5.39294C7.05688 5.40613 7.02374 5.43743 6.99335 5.47351L6.98199 5.48742L6.96753 5.5061C6.95928 5.51708 6.9516 5.52825 6.94464 5.53905C6.88293 5.63097 6.87469 5.79393 6.87469 7.03082V8.42206C4.25097 8.4389 4.09075 8.44713 3.98821 8.51398C3.9514 8.53741 3.91186 8.57403 3.88 8.61194C3.85509 8.64159 3.83476 8.67218 3.82397 8.69781C3.79101 8.77728 3.77453 9.40405 3.77453 10.8832C3.77453 12.6505 3.78698 12.9806 3.83624 13.0766C3.87323 13.1394 3.94701 13.2229 4.00048 13.2604C4.09075 13.319 4.27147 13.3315 5.49096 13.3399L6.87469 13.3523C6.87469 15.8093 6.88715 16.1311 6.93219 16.2229C6.96093 16.2856 7.05542 16.3691 7.13763 16.4109C7.27313 16.4778 7.46611 16.4861 9.27685 16.4861C10.9235 16.4861 11.293 16.4735 11.4038 16.4234C11.4818 16.3859 11.564 16.3022 11.6093 16.2146C11.6708 16.0808 11.679 15.9179 11.679 14.7104V13.3523C14.2167 13.3315 14.4672 13.319 14.541 13.2689C14.5629 13.2522 14.5889 13.2271 14.6142 13.1989C14.6459 13.1639 14.6764 13.124 14.697 13.0892C14.7189 13.0478 14.7334 12.9724 14.7427 12.7706C14.7559 12.4828 14.7587 11.9375 14.7587 10.8663V8.7564C14.5985 8.55994 14.4877 8.48486 14.4014 8.4638C14.3152 8.4389 13.6827 8.42206 12.9642 8.42206H11.679C11.6585 5.65607 11.6543 5.58502 11.5763 5.4931C11.5312 5.44312 11.4368 5.37609 11.3628 5.34276ZM10.875 12.5H10.9016L10.875 12.5275V12.5ZM10.8783 21.5C11.638 21.5 12.2538 20.8733 12.2538 20.1002C12.2538 19.3272 11.638 18.7006 10.8783 18.7006C10.1186 18.7006 9.5028 19.3272 9.5028 20.1002C9.5028 20.8733 10.1186 21.5 10.8783 21.5ZM7.40862 20.1002C7.40862 20.8733 6.79266 21.5 6.03295 21.5C5.27325 21.5 4.65747 20.8733 4.65747 20.1002C4.65747 19.3272 5.27325 18.7006 6.03295 18.7006C6.79266 18.7006 7.40862 19.3272 7.40862 20.1002Z" fill="#6951AB"/>
</svg>
