<svg width="221" height="37" viewBox="0 0 221 37" fill="none" xmlns="http://www.w3.org/2000/svg">
<path d="M43.2559 23.666C44.0829 27.85 48.0129 28.52 52.3739 28.535C57.2679 28.552 61.1999 27.759 61.2209 22.139C61.2299 19.653 60.4279 17.618 57.6819 17.492V17.269C60.3329 16.932 60.9929 14.816 61.0019 12.415C61.0229 6.86899 55.9419 6.56799 52.4539 6.55099C47.6829 6.53699 44.2529 7.21099 43.5229 11.321L51.8749 11.359C54.8099 11.365 55.2079 11.77 55.2049 13.456C55.1959 14.923 54.6669 15.388 51.8619 15.375L49.8669 15.368L49.8529 19.362L51.8479 19.368C54.8679 19.379 55.4599 19.944 55.4569 21.407C55.4469 23.683 54.1989 23.709 51.8319 23.7L43.2559 23.666Z" fill="#5BD240"/>
<path d="M84.253 23.4426L84.313 6.82955L67.671 6.76855L67.644 14.1226C67.621 20.7056 66.052 21.9756 64.551 23.3706L63.115 23.3676L63.082 32.8436L68.538 32.8646L68.554 28.4056L80.841 28.4526L80.825 32.9116L86.281 32.9326L86.314 23.4536L84.253 23.4426ZM78.486 23.4206L70.663 23.3906C71.725 22.3406 73.076 20.5016 73.097 14.1456L73.107 11.8056L78.53 11.8266L78.486 23.4206Z" fill="#5BD240"/>
<path d="M97.6922 6.71899C91.8612 6.69899 87.7112 7.93099 87.6872 14.605L87.6642 20.71C87.6412 27.385 91.7812 28.681 97.6112 28.699C103.477 28.72 107.62 27.458 107.647 20.783L107.669 14.678C107.693 8.00399 103.555 6.74199 97.6922 6.71899ZM101.722 20.145C101.712 23.355 100.655 23.69 97.6252 23.679C94.6362 23.669 93.5822 23.321 93.5922 20.111L93.6052 15.252C93.6222 12.036 94.6792 11.731 97.6752 11.741C100.698 11.752 101.752 12.069 101.745 15.279L101.722 20.145Z" fill="#5BD240"/>
<path d="M110.891 28.5608L116.661 28.5828L116.72 11.9678L120.647 11.9808C122.922 11.9908 123.271 12.6738 123.261 14.9188C123.25 17.6938 122.901 18.0348 120.623 18.0288L116.696 18.0148L117.962 23.0398L121.761 23.0528C127.809 23.0738 129.154 21.0228 129.174 14.9398C129.195 9.26978 127.187 6.98278 121.819 6.96678L110.969 6.92578L110.891 28.5608Z" fill="#5BD240"/>
<path d="M141.369 6.88014C135.541 6.85914 131.391 8.09114 131.364 14.7661L131.344 20.8711C131.321 27.5441 135.461 28.8381 141.287 28.8601C147.144 28.8811 151.303 27.6161 151.327 20.9401L151.349 14.8361C151.375 8.16215 147.23 6.89914 141.369 6.88014ZM145.406 20.3021C145.396 23.5121 144.332 23.8501 141.308 23.8371C138.316 23.8291 137.251 23.4831 137.264 20.2751L137.282 15.4081C137.292 12.1941 138.359 11.8861 141.352 11.9001C144.375 11.9091 145.434 12.2241 145.421 15.4391L145.406 20.3021Z" fill="#5BD240"/>
<path d="M169.452 17.895V17.679C172.32 17.219 172.859 15.446 172.862 12.7C172.882 7.96101 170.362 7.14401 166.057 7.12301L154.679 7.08301L154.602 28.719L166.104 28.763C170.683 28.776 173.149 28.073 173.173 22.767C173.18 20.058 172.662 18.126 169.452 17.895ZM164.752 24.02L160.384 24.004L160.416 15.777L160.414 15.77H160.416L160.432 11.848L165.291 11.864C166.915 11.868 167.098 12.43 167.092 13.709C167.085 15.456 166.586 15.793 164.595 15.787L160.416 15.77V15.777L161.397 19.77L164.892 19.782C166.763 19.788 167.413 20.068 167.411 21.849C167.403 23.593 166.619 24.028 164.752 24.02Z" fill="#5BD240"/>
<path d="M186.438 35.3206L191.395 35.3366L191.46 18.0356L194.199 18.0496C196.291 18.0556 196.662 18.1166 196.647 21.2946C196.644 23.8526 196.488 24.5396 194.174 24.5336L191.43 24.5216L193.133 28.8596L195.846 28.8716C200.027 28.8836 201.585 27.0496 201.602 22.4406L201.615 19.3156C201.633 15.2966 199.551 13.7306 195.902 13.7196L186.518 13.6836L186.438 35.3206Z" fill="#5BD240"/>
<path d="M206.209 35.5472C206.767 35.5792 207.325 35.6452 207.89 35.6492C212.098 35.6672 213.474 34.2042 214.422 30.2782L218.444 13.8012L213.396 13.7822L211.016 24.7462C210.555 24.7462 210.089 23.7762 209.896 22.9962L207.876 13.7612L202.697 13.7412L205.745 24.7602C206.362 27.0062 207.946 28.9142 210.125 28.9252C209.56 30.6652 209.46 32.1952 207.4 32.1892C206.778 32.1862 206.467 32.1472 206.22 32.0552L206.209 35.5472Z" fill="#5BD240"/>
<path d="M176.475 29.7383L182.443 29.7598L182.465 23.8048L176.497 23.7833L176.475 29.7383Z" fill="#ED1C24"/>
<path d="M27.15 2.97494C24.42 2.96394 21.936 3.99194 20.064 5.69194C18.202 3.98094 15.722 2.93094 12.997 2.92194C7.19902 2.90194 2.48002 7.58394 2.46102 13.3839C2.43502 20.2199 8.34702 28.5439 19.95 34.7769C19.95 34.7769 19.959 34.7769 19.965 34.7769C31.611 28.6299 37.585 20.3449 37.611 13.5089C37.63 7.71194 32.944 2.99694 27.15 2.97494Z" fill="#ED1C24"/>
<path d="M19.428 30.1862L9.25195 19.9352L12.181 17.3192L18.147 21.5732C22.587 16.1952 27.664 12.0852 33.261 8.65723C33.615 8.92723 34.317 10.0312 34.507 10.5282C28.19 16.0822 23.423 22.6762 19.428 30.1862Z" fill="white"/>
</svg>
