<svg width="264" height="99" viewBox="0 0 264 99" fill="none" xmlns="http://www.w3.org/2000/svg">
<path fill-rule="evenodd" clip-rule="evenodd" d="M36.5342 87.3159C67.1126 73.0863 72.5045 56.0935 72.5045 46.6007V15.8902L36.5342 0.614258L0.560547 15.8902V46.6007C0.560547 56.0935 5.94634 73.0863 36.5342 87.3159Z" fill="white"/>
<path fill-rule="evenodd" clip-rule="evenodd" d="M36.5319 75.0174C58.1941 64.69 61.4343 52.696 61.4343 46.4484V12.5489L36.5319 1.84375L11.627 12.5489V46.4484C11.627 52.696 14.872 64.69 36.5319 75.0174Z" fill="#00C7B1"/>
<path fill-rule="evenodd" clip-rule="evenodd" d="M33.8094 35.0331C33.9458 34.0211 34.0503 32.1013 34.1405 30.3495L34.1594 29.9867L34.4857 29.8651C35.7498 29.3604 37.0433 28.3997 38.1896 27.5561C39.565 26.549 40.9904 25.4976 42.437 25.0288L43.2403 24.7877L43.1479 25.6207C43.13 25.8139 43.13 26.0096 43.1525 26.2232L43.1917 26.6158L42.8392 26.7756C39.9638 28.1515 36.407 31.575 35.504 35.1823L35.4043 35.5569L35.0258 35.5868C34.8133 35.6094 34.6021 35.637 34.3956 35.6561L33.7263 35.7038L33.8094 35.0331ZM52.072 20.7294L51.2259 22.3153C50.8983 22.9261 50.7394 23.4142 50.7441 23.833V24.092L50.5447 24.2661C50.2824 24.4751 49.9691 24.6374 49.6191 24.7364L49.0032 24.9118L48.9284 24.2661C48.8667 23.7174 48.7481 23.3212 48.6507 23.0813L48.4631 22.6243L52.072 20.7294ZM15.1966 23.6172C15.5609 24.4631 15.8042 25.1552 16.0178 25.7602C16.5673 27.3019 16.896 28.241 18.6108 30.0237C20.9618 32.4831 21.2585 33.6752 20.8871 39.1248C20.8644 39.4709 20.6307 40.5986 20.2178 42.565C19.7726 44.664 19.2232 47.2654 18.8411 49.486C18.9336 49.504 19.8237 49.5123 19.8237 49.5123L19.7774 50.0957C19.552 53.3427 19.6314 55.5085 20.0113 56.691C20.1382 57.0955 20.0788 57.352 19.9257 57.9582L19.826 58.3639C19.7537 58.691 19.7608 58.982 19.7726 59.2864C19.7892 59.8687 19.8119 60.5189 19.3253 61.6002C19.1912 61.8793 19.0725 62.2994 18.9681 62.7814C20.5049 64.4687 22.3752 66.1883 24.637 67.9077C25.1106 66.6262 25.4441 65.2706 25.4121 63.9306C25.405 63.1967 25.3539 62.5679 25.3219 62.0082C25.2149 60.1705 25.1474 59.1646 26.0909 57.747C27.0045 56.3831 27.8269 54.4202 28.6007 51.7341L28.6981 51.3714L29.0766 51.332C29.5145 51.2915 29.9597 51.2282 30.4142 51.1076L30.8793 50.9908L31.0538 51.4417C31.5166 52.6195 32.8457 54.055 34.0277 55.3437C34.8869 56.2793 35.6987 57.1551 36.0439 57.7995L36.2481 58.1743L35.9301 58.4677C32.5597 61.5583 31.1807 65.5366 32.2262 69.1118C32.6369 70.5043 32.746 71.8647 32.6855 73.0686C33.8924 73.725 35.1658 74.3657 36.5044 75.0185C36.9899 73.1904 37.9652 70.1762 38.7723 67.6703L39.2174 66.286L40.2901 66.4352C40.3221 67.2454 40.3221 67.773 40.3221 67.9388C41.56 68.4566 43.6273 69.8778 43.0695 71.7024C44.7914 70.6774 46.3627 69.6535 47.7809 68.6189C47.2836 67.6225 47.1257 66.4352 47.3916 65.2301C47.6515 64.0356 48.3054 62.9508 49.2155 62.2051L50.1245 61.457L50.1127 62.6453C50.0925 64.0046 49.9134 65.2969 49.8065 66.0702L49.7579 66.3958C49.7306 66.545 49.8065 66.7287 49.9596 66.9472C55.0543 62.8066 57.9725 58.7041 59.5912 55.0669C59.2636 54.5144 58.9883 53.9394 58.8139 53.3164C58.0627 50.6662 56.2505 49.2008 54.6532 47.912C53.4415 46.9312 52.2986 46.0113 51.9023 44.719L51.7753 44.2964L52.1669 44.0733C52.2868 44.0042 52.4174 43.9337 52.5348 43.8538C54.2509 42.7499 55.3772 40.9112 55.8934 38.3743L55.9468 38.1105L56.1852 37.9912C57.6342 37.2597 58.6525 35.9126 59.0548 34.2168C59.5426 32.149 59.0737 29.698 57.8988 28.1133L57.7457 27.9236L57.7993 27.6862C58.0982 26.0883 58.0889 25.1886 57.7707 24.6517C57.4906 24.1804 56.8676 23.6207 56.6125 23.4094L56.438 23.2615L56.3573 22.19L56.2505 20.6458L56.9316 21.375C57.9061 20.3762 58.5291 19.4406 58.5147 18.955C58.5147 18.7998 58.4484 18.7329 58.4044 18.6902C57.6711 18.0541 55.8934 16.6269 55.6453 16.4336C55.3628 16.4789 53.3738 16.8584 51.6638 17.7604L51.6152 17.7868L51.5736 17.7963C50.1293 18.282 48.1891 18.6507 46.2973 19.0183C44.172 19.4406 41.9729 19.8584 40.4218 20.4455L40.2463 20.5098L39.4166 20.2508L39.3146 20.0885C38.5907 19.0135 36.8829 18.4932 33.0819 17.418L32.8825 17.3643L32.7734 17.1937C32.0684 16.1245 30.0521 15.4492 29.4564 15.2642L28.9532 15.115L29.3781 13.4266L30.108 13.6759L30.7773 10.9541L30.9078 10.8371C31.0977 10.6701 31.5451 10.2274 31.7279 9.61285V9.60212L31.7516 9.54246C31.7539 9.51739 31.774 9.43386 31.774 9.43386L31.7979 9.38256C31.8251 9.3193 31.8536 9.24532 31.8833 9.16419L31.8856 9.14987C32.1041 8.52936 32.4766 6.9268 31.1629 5.46505C30.1911 4.38275 28.5498 3.68945 26.9761 3.68945C26.7638 3.68945 26.5596 3.69661 26.3579 3.72048C25.3811 3.84458 24.0236 4.3362 23.105 5.9328L22.9899 6.1464L22.7598 6.19651C22.4654 6.26693 21.859 6.38506 21.0425 6.38506C19.6492 6.38506 18.2917 6.05691 17.0076 5.41016C15.7283 7.00198 15.1041 9.18328 15.3248 11.2441C15.4874 12.7285 16.057 14.0566 17.023 15.1711L17.3185 15.5052L17.0444 15.868C15.3984 18.0086 13.8948 20.5993 15.1966 23.6172Z" fill="white"/>
<path fill-rule="evenodd" clip-rule="evenodd" d="M55.9242 23.9938C55.9902 23.1572 55.9363 22.4301 55.9338 22.3824L55.9074 22.1357L55.4395 22.1723L55.4575 22.4301C55.4623 22.4301 55.5751 23.887 55.2871 25.0066L55.7034 25.2104L56.517 23.9573L56.1258 23.6768L55.9242 23.9938Z" fill="#005F61"/>
<path fill-rule="evenodd" clip-rule="evenodd" d="M53.784 20.3169L53.7869 20.5446C53.8189 21.5436 53.4966 22.954 53.4923 22.9742L53.4434 23.1923L53.6907 23.3665L53.7405 23.1448C53.7534 23.0875 54.0929 21.6283 54.0554 20.5208L54.0506 20.292L53.784 20.3169Z" fill="#005F61"/>
<path fill-rule="evenodd" clip-rule="evenodd" d="M53.4407 20.3353L53.015 20.292L53.001 20.5573C52.9568 21.1977 52.7121 22.1954 52.338 22.8398L52.2109 23.0483L52.5504 23.3665L52.6787 23.158C53.1228 22.3986 53.3772 21.2951 53.4214 20.5938L53.4407 20.3353Z" fill="#005F61"/>
<path fill-rule="evenodd" clip-rule="evenodd" d="M29.4619 10.3374C28.8665 10.2433 28.138 10.0424 27.9149 9.83887L27.6172 10.2115L28.4493 11.0687L28.7506 10.7088L28.7437 10.6986C29.0447 10.7635 29.3138 10.8003 29.4126 10.8258L29.4619 10.3374Z" fill="#005F61"/>
<path fill-rule="evenodd" clip-rule="evenodd" d="M71.2204 46.6488C71.2204 55.1992 66.7293 71.5927 36.8424 85.8303C6.95407 71.5927 2.45722 55.1992 2.45722 46.6488V16.7441L9.99617 13.5255V46.4128C9.99617 53.1206 13.43 65.9771 36.4363 76.7289L36.8424 76.9268L37.2437 76.7289C60.245 65.9771 63.6814 53.1206 63.6814 46.4128V13.5255L71.2204 16.7441V46.6488ZM11.9 12.711L14.8645 11.4386C15.0938 12.8935 15.6838 14.1945 16.6381 15.2905C14.8322 17.629 13.3201 20.4123 14.7044 23.5869C15.0651 24.4264 15.31 25.0989 15.525 25.6952C16.078 27.2479 16.4494 28.2817 18.2493 30.1528C20.4913 32.4853 20.7553 33.5347 20.3861 38.8355C20.3658 39.1586 20.0745 40.5646 19.7269 42.1841C19.2718 44.3128 18.7116 46.9672 18.3269 49.22L18.2362 49.7375L18.7606 49.7792C18.9361 49.7829 19.1034 49.7829 19.2718 49.7829C19.0401 53.1457 19.1248 55.3196 19.531 56.5861C19.6146 56.8389 19.5871 56.9641 19.4331 57.5639L19.3387 57.9659C19.2407 58.363 19.2526 58.7052 19.2621 59.0296C19.2837 59.577 19.2992 60.1326 18.8656 61.0963C18.751 61.33 18.6506 61.6531 18.5552 62.0253C13.0526 55.8396 11.9 50.1144 11.9 46.4128V12.711ZM16.0218 7.95171C17.0765 8.3333 18.2386 8.48714 19.2621 8.48714C19.7638 8.48714 20.2332 8.45374 20.6333 8.40128L20.5689 7.92427C19.3924 8.08884 17.6522 8.05665 16.1664 7.51525C16.4064 6.84146 16.7433 6.22972 17.1505 5.65969C20.3826 7.13364 23.0413 6.30245 23.1654 6.27621L23.3374 6.21183L23.4258 6.04605C24.2655 4.46239 25.5626 3.99374 26.499 3.86495C28.2966 3.65148 30.1192 4.52202 30.9959 5.48439C32.1089 6.72461 31.8917 8.03876 31.6611 8.72923C31.5536 8.87591 31.1225 9.28375 29.9281 8.64098C27.679 7.43893 26.223 7.64285 25.5327 7.88969C25.3787 7.71201 25.1947 7.57249 24.9629 7.46873C24.4172 7.23858 23.8366 7.35545 23.4473 7.79071C22.8693 8.44063 22.7618 9.60096 23.3542 10.6027C22.7128 11.5877 20.8341 14.1516 18.1192 15.4276C17.2556 14.7025 16.6967 13.9012 16.33 13.1201C18.3616 13.0473 20.0386 12.2233 21.1219 11.5042L20.8627 11.125C19.8056 11.825 18.1431 12.6311 16.1341 12.655C15.9072 12.0432 15.7794 11.4494 15.7304 10.9509C15.7089 10.8269 15.7089 10.6933 15.7053 10.5526C16.1735 10.6277 16.6501 10.6778 17.135 10.6778C18.339 10.6778 19.5775 10.4405 20.6967 9.98614L20.5104 9.54729C18.9982 10.1698 17.2628 10.3534 15.6934 10.0768C15.7006 9.36007 15.814 8.63979 16.0218 7.95171ZM39.4593 67.562C39.6205 67.079 39.7722 66.6187 39.9143 66.1751C39.9561 67.1637 39.9561 67.6992 39.9561 67.6992L39.9465 68.0248L40.2451 68.138C40.2738 68.1571 43.3553 69.4391 42.7187 71.3077C42.6602 71.4902 42.5969 71.6761 42.5359 71.8515C40.9176 72.7876 39.163 73.7058 37.2688 74.6157C37.7655 72.7876 38.6853 69.9709 39.4593 67.562ZM36.5832 58.27L36.8029 58.072L36.7253 57.7941C36.5066 57.0286 35.5501 55.9888 34.4393 54.7974C33.3058 53.5797 32.029 52.2024 31.5703 51.11C34.3414 50.2109 37.43 49.7148 38.2529 49.5932C39.28 51.0648 40.5138 52.4898 41.9065 53.6538L42.1143 54.0795C43.1248 56.1282 43.182 56.2486 42.2888 57.8466C42.0367 58.2795 41.83 58.6372 41.6449 58.9462C40.9892 60.0336 40.5999 60.6944 39.9729 62.8646C39.6934 63.8235 39.1487 65.4931 38.5731 67.2783C37.7213 69.8851 36.7982 72.7376 36.306 74.5609C35.2251 74.0398 34.18 73.5128 33.1958 72.9964C33.2794 71.7108 33.1792 70.2536 32.7204 68.7129C31.6815 65.2056 33.1254 61.2943 36.5832 58.27ZM21.3226 38.8952C21.3226 38.8701 21.3226 38.8475 21.3296 38.8355C22.6661 39.1539 24.2703 39.3172 26.0857 39.3172C26.9576 39.3172 27.882 39.2732 28.8365 39.1945C29.2378 39.9004 29.6474 40.511 30.0236 40.9224L30.112 41.0322L30.2446 41.0571C30.2875 41.0714 32.2977 41.6152 35.0531 42.264C35.1857 43.8107 36.1377 46.2779 37.6915 48.7285C36.8519 48.8622 35.3278 49.1258 33.639 49.555C33.8517 48.3458 33.9662 46.9494 33.9722 45.3597L33.0323 45.3502C33.025 47.0901 32.8877 48.5915 32.6262 49.8078C32.134 49.9521 31.6325 50.0976 31.138 50.2694C30.7307 50.4016 30.352 50.4888 29.9949 50.5519C30.3497 49.5289 30.8262 47.5683 30.837 44.4355H29.9042C29.8897 48.0631 29.2187 50.0357 28.9367 50.6916C27.8021 50.7607 26.9958 50.5401 26.5779 50.3742L26.6781 50.087C26.8513 49.7792 27.6957 47.9845 27.7112 43.5114H26.776C26.7546 46.7825 26.2936 48.5152 26.0224 49.2402C24.588 48.4913 23.3052 48.5998 21.8469 48.7333C21.1076 48.8037 20.2905 48.8788 19.341 48.8587C19.7196 46.7323 20.2261 44.3402 20.6453 42.3892C21.0729 40.3465 21.301 39.2732 21.3226 38.8952ZM49.3881 22.6315L50.9885 21.8075C50.6708 22.3895 50.4332 22.9906 50.4332 23.5869C50.2278 23.7514 49.9853 23.8754 49.7022 23.9553C49.651 23.4127 49.5302 22.9715 49.3881 22.6315ZM57.7154 27.3039C57.4921 27.3695 57.2448 27.4123 56.9713 27.4123C56.4397 27.4123 56.0218 27.2681 56.0218 27.2681L54.788 26.8114L55.4485 27.9347C55.8079 28.5549 55.833 29.3646 55.5248 29.9918C54.6506 30.272 53.7572 30.0956 53.326 29.5482C53.043 29.207 52.9618 28.7253 53.0824 28.1827L53.1648 27.8345L52.8495 27.658C50.6542 26.5096 46.8334 25.6701 43.7124 25.6545C43.7124 24.5014 44.6333 23.8598 45.4037 23.6012C45.6162 24.0065 46.0569 24.5611 46.8404 24.7149L47.1176 24.765C47.575 24.8604 48.2164 24.9939 48.8866 24.9939C49.8707 24.9939 50.6708 24.7054 51.2514 24.1103L51.4222 23.9493L51.3888 23.7216C51.2931 23.0203 51.888 22.0902 52.4111 21.2627C52.7122 20.7998 52.9917 20.3515 53.1648 19.9437C53.5685 19.8936 54.0236 19.8816 54.5241 19.8816C55.1569 19.8816 55.7327 19.9103 56.1017 19.9437L56.3465 23.2195L56.5127 23.3436C56.748 23.5331 57.455 24.1473 57.7226 24.6051C58.0569 25.1466 57.9088 26.2973 57.7154 27.3039ZM34.4931 34.8502C34.6256 33.8436 34.7307 32.0131 34.8263 30.1134C36.1377 29.609 37.4275 28.6645 38.6853 27.745C40.0422 26.7612 41.4335 25.7429 42.7951 25.3123C42.7701 25.5366 42.7701 25.7822 42.7998 26.0302C39.6253 27.5329 36.0302 31.1437 35.1153 34.7786C34.9014 34.8108 34.6937 34.8369 34.4931 34.8502ZM29.6594 30.1134C30.1167 30.3245 30.7463 30.619 31.6325 31.0293L31.796 31.1055L31.9645 31.0495C32.1604 31.0042 32.3442 30.8969 32.5127 30.7919C32.7455 30.6632 32.9702 30.5248 33.2174 30.5129C33.4336 30.4986 33.6581 30.4688 33.8718 30.421C33.7764 32.2218 33.6653 34.0464 33.5386 34.8834C33.4599 34.8834 33.3715 34.8955 33.2985 34.8907L29.6594 30.1134ZM28.3372 38.2965C25.6306 38.4884 23.1977 38.3429 21.3894 37.8874C21.4205 37.3627 21.4456 36.8917 21.4479 36.4422C22.9433 36.7832 24.5857 36.9083 26.0595 36.9083C26.6196 36.9083 27.1427 36.8917 27.6419 36.8703C27.8581 37.3496 28.1007 37.8338 28.3372 38.2965ZM26.6829 32.2444L26.6077 32.0381L26.4071 31.9606C25.5543 31.6566 25.3464 30.8361 25.3069 30.6728V27.8297C25.9531 28.1827 26.5073 28.9281 26.5073 29.8129H26.9792C26.9792 28.6323 26.1836 27.6784 25.3069 27.2955V26.0624C26.0929 26.5896 26.4608 26.8758 26.776 27.6784L27.2097 27.4982C26.8084 26.4845 26.3091 26.1555 25.3202 25.5163L25.3069 25.5055V24.5051C27.2848 25.5198 28.3765 27.3922 28.3933 29.8463V30.0038L32.8136 35.791L33.0167 35.8149C33.8517 35.8768 34.8668 35.7743 36.035 35.6229C38.0081 35.3988 40.441 35.1352 43.1619 35.6121C44.6059 38.1761 43.9477 40.8485 43.3433 42.9687C37.995 42.1543 31.6325 40.4608 30.6328 40.1974C28.9738 38.2512 26.7044 32.2981 26.6829 32.2444ZM55.7423 33.0017L55.3219 33.2056C55.4736 33.5229 56.1652 35.1387 55.8259 37.8672C55.4161 39.9839 54.5718 41.6152 53.3117 42.7171C54.8859 38.8606 53.774 34.9276 52.896 32.8097L52.4601 32.9922C53.3654 35.1864 54.5384 39.3685 52.5282 43.2943C51.8067 43.7451 50.9838 44.0635 50.0641 44.252C51.7411 40.7101 51.4855 35.6229 49.3989 32.7597L49.0144 33.0339C51.0769 35.8649 51.2537 40.9403 49.4933 44.3402C48.6643 44.4558 47.7661 44.4857 46.7915 44.4046C48.7444 40.3905 48.4315 35.438 45.9984 32.9374L45.6486 33.2616C47.9979 35.673 48.2452 40.4776 46.2947 44.3533C45.5709 44.2794 44.8221 44.147 44.0313 43.9693C44.0647 43.8357 44.1114 43.6962 44.1531 43.5567C44.9223 40.8986 46.082 36.8739 42.6232 33.3415L41.946 33.9974C42.1215 34.1848 42.2757 34.3708 42.4332 34.5532C40.0314 34.2587 37.8971 34.4745 36.1186 34.6784C37.1756 31.1962 40.9104 27.7118 43.857 26.5979C46.6302 26.6385 50.0498 27.3623 52.1078 28.3426C52.0337 29.0283 52.2009 29.6483 52.5854 30.136C53.0645 30.7311 53.8265 31.0651 54.6924 31.0651C55.1308 31.0651 55.5786 30.9899 56.0218 30.8135L56.1758 30.7562L56.2558 30.619C56.6619 29.9357 56.7777 29.1034 56.5986 28.3318C56.7144 28.3378 56.8435 28.3509 56.9713 28.3509C57.3164 28.3509 57.6413 28.2913 57.9447 28.1971C59.0017 29.6759 59.4258 31.9546 58.9683 33.871C58.7091 34.992 58.0283 36.466 56.361 37.339C56.5592 34.905 55.9548 33.4287 55.7423 33.0017ZM23.9024 15.2046C24.9307 16.2087 26.3282 16.7632 27.6276 16.7632C28.115 16.7632 28.5844 16.6857 29.0155 16.5223L29.2531 16.4305L29.3094 16.1944C29.3656 15.9547 29.4312 15.678 29.4957 15.4085C30.4249 15.69 32.1722 16.384 32.6405 17.2653L32.7945 17.4561L32.9904 17.5026C36.8471 18.5997 38.6005 19.0875 39.2336 20.1691L39.3267 20.3264L40.4398 20.6807L40.5999 20.6126C42.119 20.0211 44.3909 19.5763 46.5885 19.1483C48.5102 18.787 50.4953 18.4005 51.9883 17.9067L52.054 17.8735C53.5266 17.1114 55.2406 16.7143 55.8259 16.601C56.3156 16.9934 57.8073 18.1776 58.42 18.7058C58.4833 18.9669 57.8934 19.8351 57.0979 20.6807L56.9761 19.085H56.9665C56.9879 18.8478 56.9534 18.6425 56.846 18.4673C56.6082 18.0487 56.0527 17.9235 55.569 17.8185C55.2621 17.7434 54.9349 17.6755 54.8023 17.5503L54.4751 17.8735C54.7019 18.1012 55.0723 18.1811 55.4628 18.2753C55.8772 18.3683 56.3023 18.4673 56.4492 18.7058C56.4959 18.7917 56.5032 18.9003 56.4911 19.0302C56.2224 19.0099 55.446 18.9431 54.5241 18.9431C53.8576 18.9431 53.2675 18.9717 52.7516 19.0456L52.4481 19.085L52.3646 19.3856C52.2964 19.6313 52.1293 19.9306 51.9334 20.2538L48.926 21.8183C48.865 21.7301 48.816 21.6799 48.8112 21.6788L48.7444 21.6037L45.4359 20.3515L42.5645 21.5392C40.8471 21.7145 37.1899 22.4491 34.1968 23.3137C34.0104 22.6769 33.7226 22.0997 33.5649 21.8148C33.8492 20.7498 33.5386 18.8335 33.4969 18.5997L32.5735 18.7631C32.7157 19.5942 32.853 21.1267 32.6225 21.6799L32.5353 21.897L32.6501 22.0997C32.6571 22.1164 33.0788 22.8224 33.2962 23.5869C32.8877 23.718 32.5032 23.842 32.134 23.9827L31.6815 23.756C30.9266 21.9686 29.2282 21.2828 27.2825 20.4982C26.6411 20.2417 25.9854 19.9746 25.3069 19.6562C25.16 18.3588 24.103 17.1937 23.4569 16.6762L22.8692 17.406C23.2884 17.7386 24.3921 18.8609 24.3921 19.958V20.249L24.6512 20.3814C25.4348 20.7712 26.1932 21.0717 26.9302 21.37C28.8149 22.1307 30.2983 22.7234 30.8728 24.2677L30.9374 24.437L32.0768 24.9939L32.2679 24.9295C35.3278 23.7847 40.6381 22.6649 42.7187 22.4659L45.4479 21.3604L48.2045 22.4063C48.3383 22.5744 48.6764 23.1039 48.7743 24.0591C48.2452 24.046 47.7291 23.9349 47.3004 23.8492L47.0245 23.7955C46.3484 23.6631 46.1358 22.9405 46.1215 22.9177L46.0104 22.4825L45.5709 22.5744C44.5986 22.777 43.6275 23.3673 43.1248 24.2677C41.4073 24.6076 39.7376 25.8048 38.1274 26.9902C36.4637 28.2114 34.7474 29.4611 33.1541 29.5792C32.6895 29.6113 32.3299 29.8201 32.0409 29.9822C31.9716 30.0264 31.9012 30.0526 31.8402 30.0956C30.9756 29.6842 29.8134 29.1427 29.2579 28.8828C28.9439 26.2867 27.4437 24.2868 25.0084 23.3436L24.3682 23.0954V26.9449C22.8919 26.3737 21.5674 25.2205 20.2392 23.3542L20.1436 23.2195L19.9836 23.1742C19.0365 22.9177 18.0451 22.4659 17.1816 20.8976L16.3527 21.3424C17.3428 23.124 18.518 23.7216 19.5704 24.0279C21.0729 26.1101 22.6149 27.3552 24.3682 27.9299V30.7228L24.3753 30.7884C24.3848 30.8469 24.6023 32.174 25.878 32.7549C26.0643 33.2415 26.5658 34.5127 27.2097 35.9388C24.9677 36.0283 23.0041 35.8768 21.4599 35.4893C21.4228 32.8228 20.8341 31.4812 18.9241 29.5017C17.2604 27.7666 16.9415 26.871 16.4064 25.3803C16.1903 24.765 15.9478 24.0852 15.5668 23.21C14.6125 21.0229 15.1332 18.8262 17.307 15.9571C17.4563 16.0882 17.5984 16.2218 17.7525 16.3482L17.9794 16.5223L18.2362 16.415C20.2774 15.5242 21.8755 13.9918 22.9408 12.7397C22.9433 13.5995 23.1882 14.5094 23.9024 15.2046ZM28.8734 12.4451C28.8435 12.3676 28.8566 12.2829 28.8985 12.2126L28.5115 11.9431C28.3812 12.1482 28.3468 12.3891 28.4352 12.6073C28.103 12.5858 27.765 12.5751 27.4222 12.5751C26.6125 12.5632 25.8456 12.556 25.6115 12.1899C25.4468 11.9311 25.5279 10.0434 26.4071 8.65767C27.0377 8.60042 28.054 8.70538 29.4849 9.46978C30.0559 9.77864 30.579 9.92651 31.0424 9.92651C31.0687 9.92651 31.0866 9.92173 31.1225 9.92173C30.9146 10.202 30.6948 10.3594 30.6948 10.3689L30.5575 10.4691L29.9435 12.9281L29.2066 12.6824L29.2114 12.6753C29.0429 12.6359 28.9199 12.5512 28.8734 12.4451ZM24.1545 8.41201C24.3014 8.25341 24.4757 8.27249 24.5927 8.3333C24.7766 8.41202 24.9629 8.61236 24.9451 8.8592L25.7215 8.9236C25.0312 10.3594 24.9677 12.0552 25.215 12.4451C25.5794 13.0247 26.4727 13.033 27.4222 13.0414C28.0027 13.0473 28.5891 13.0581 29.0741 13.1833C29.0741 13.2322 29.0083 13.4719 28.9199 13.8129C28.68 13.7533 28.3551 13.7104 27.9704 13.7104V14.1766C28.3036 14.1766 28.5974 14.2124 28.8149 14.2697C28.6954 14.7097 28.5676 15.2439 28.4601 15.7221C27.3684 16.0095 25.7632 15.7055 24.5558 14.5272C23.4795 13.4802 23.9418 11.5674 24.3085 10.8555C24.3622 10.7744 24.3921 10.7243 24.4112 10.6969L24.5174 10.5884C23.6849 9.79295 23.8366 8.76619 24.1545 8.41201ZM25.0119 61.7592C25.0525 62.3102 25.0944 62.9339 25.1111 63.6602C25.1362 64.9076 24.828 66.1703 24.3873 67.382C22.4094 65.8675 20.7385 64.3565 19.3279 62.8646C19.4462 62.2648 19.5775 61.7855 19.7196 61.4802C20.2488 60.3211 20.2261 59.5961 20.207 59.0093C20.195 58.7113 20.1855 58.4632 20.2535 58.1793L20.3492 57.787C20.5079 57.1359 20.5832 56.8055 20.4243 56.3107C20.0577 55.1563 19.9896 53.0181 20.2189 49.7829C20.8341 49.7721 21.4132 49.7148 21.9305 49.6623C23.3793 49.5289 24.4554 49.4346 25.6701 50.1144L25.43 50.8275L25.7549 51.0243C25.8122 51.06 26.6997 51.5704 28.2476 51.6347C27.5058 54.1295 26.7223 55.9755 25.8552 57.2623C24.8353 58.7756 24.9009 59.9024 25.0119 61.7592ZM31.8199 68.9811C32.1878 70.2166 32.2977 71.4198 32.2774 72.4835C29.5781 70.9989 27.2097 69.4891 25.16 67.9734C25.6869 66.6008 26.0857 65.1257 26.0535 63.6459C26.0344 62.8958 25.9902 62.26 25.9556 61.7021C25.8456 59.9263 25.7943 59.0392 26.6316 57.7918C27.5907 56.3632 28.4399 54.3431 29.2282 51.6156C29.6665 51.5764 30.1514 51.5083 30.6627 51.3748C31.1619 52.6461 32.5353 54.1295 33.749 55.4413C34.5586 56.3107 35.3936 57.2015 35.7088 57.7918C32.1508 61.0271 30.6948 65.2009 31.8199 68.9811ZM47.6945 68.5638C46.4738 69.4308 45.1541 70.293 43.7244 71.1587C44.0409 69.1265 41.7321 67.8113 40.8913 67.4117C40.8853 66.8644 40.8518 65.5979 40.7026 63.7102C40.7612 63.4908 40.822 63.3024 40.8782 63.1212C41.4633 61.0664 41.8134 60.4904 42.4523 59.4362C42.6434 59.1131 42.8513 58.7553 43.1105 58.3034C43.9871 56.7387 44.0624 56.1162 43.4999 54.8105C44.4171 55.3817 45.3869 55.8396 46.3974 56.0984C48.8494 56.759 49.6211 58.9759 49.768 61.237C48.4971 62.0014 47.575 63.3131 47.2299 64.8729C46.9456 66.1751 47.1247 67.4786 47.6945 68.5638ZM49.7751 67.0111C49.3524 67.3438 48.9117 67.6778 48.4589 68.0176C48.0373 67.1577 47.9202 66.1191 48.1495 65.0732C48.3969 63.9893 48.9893 63.0197 49.7979 62.3603C49.7799 63.6554 49.6186 64.8765 49.4956 65.7268L49.4574 66.0095C49.3881 66.3183 49.5088 66.639 49.7751 67.0111ZM46.6398 55.1992C40.9523 53.6704 36.5294 45.9238 36.023 42.4882C38.2087 42.9903 40.7336 43.5162 43.0818 43.8834C43.0519 43.9836 43.0198 44.0874 42.9934 44.1875L42.8751 44.6538L43.3337 44.7611C45.0095 45.1856 46.5586 45.4014 47.9441 45.4014C49.3989 45.4014 50.696 45.163 51.833 44.7003C52.2916 46.0312 53.4538 46.9672 54.6757 47.944C56.2438 49.1914 58.0164 50.6187 58.7425 53.1482C58.9527 53.8958 59.3003 54.5743 59.7005 55.2148C58.075 58.6635 55.2549 62.5261 50.4953 66.4231C50.4333 66.3279 50.3818 66.2336 50.3818 66.1703L50.4308 65.8472C50.7831 63.3096 51.728 56.5635 46.6398 55.1992ZM36.8424 2.06305L61.7751 12.7086V46.4128C61.7751 48.4579 61.418 51.1233 60.1722 54.1511C59.9549 53.7468 59.7686 53.3317 59.6431 52.8977C58.8405 50.0749 56.9439 48.5498 55.2644 47.219C54.0786 46.2684 53.0299 45.4253 52.6775 44.302C52.8149 44.2221 52.9523 44.1387 53.0871 44.0635C54.9492 42.877 56.1604 40.9141 56.7109 38.2226C58.3221 37.4199 59.4496 35.9579 59.8856 34.0858C60.417 31.8403 59.9035 29.2452 58.6279 27.5329C58.9564 25.7882 58.9361 24.778 58.5323 24.1174C58.2076 23.5831 57.5577 23.0001 57.2543 22.7438L57.1863 21.897L57.2054 21.9138C57.7106 21.4223 59.3864 19.76 59.3625 18.7058C59.3625 18.4256 59.249 18.2015 59.0614 18.0273C58.2731 17.3452 56.3156 15.7997 56.2343 15.7329L56.0683 15.6029L55.8641 15.6315C55.7697 15.6542 53.5781 16.0286 51.6479 17.0351C50.2278 17.5026 48.2821 17.8735 46.413 18.2349C44.244 18.6425 42.0045 19.085 40.404 19.6826L39.9405 19.5298C39.0819 18.2693 37.246 17.7328 33.362 16.6463C32.5735 15.4443 30.5133 14.7312 29.7202 14.501C29.7764 14.2697 29.8254 14.0669 29.8719 13.9012L30.6017 14.1373L31.3899 11.0069C31.6539 10.7744 32.2284 10.202 32.4218 9.36007C32.4517 9.28375 32.4911 9.20146 32.5223 9.11202C32.5223 9.11202 32.527 9.09533 32.527 9.08697C32.8997 8.04949 33.0275 6.3418 31.691 4.85355C31.5607 4.71044 31.409 4.58045 31.2669 4.44571L36.8424 2.06305ZM36.8424 0L30.3402 2.77259C29.0502 2.14653 27.6062 1.85437 26.2697 2.0237C25.0312 2.17635 23.3374 2.75948 22.1227 4.59238C21.301 4.72595 19.5775 4.80822 17.6414 3.83155L16.6453 3.32354L15.9358 4.19289C14.6555 5.74792 13.9197 7.76566 13.8409 9.81441L0.560547 15.486V46.6488C0.560547 56.2594 5.99379 73.5055 36.8424 87.9314C67.6838 73.5055 73.1194 56.2594 73.1194 46.6488V15.486L36.8424 0Z" fill="#005F61"/>
<path fill-rule="evenodd" clip-rule="evenodd" d="M24.7137 92.9664V98.8785H23.8633V93.9223L22.9273 94.3948L22.6973 93.7674L24.1008 92.959L24.7137 92.9664Z" fill="#1BB5C2"/>
<path fill-rule="evenodd" clip-rule="evenodd" d="M33.4056 95.4165C33.4056 94.8101 33.2863 94.3489 33.0501 94.0326C32.8127 93.7178 32.467 93.559 32.0095 93.559C31.6268 93.559 31.3333 93.6594 31.1258 93.8615C30.9195 94.0598 30.8175 94.3662 30.8175 94.7765C30.8175 95.161 30.9143 95.4524 31.112 95.6557C31.3084 95.859 31.5994 95.9596 31.9835 95.9596C32.2929 95.9596 32.5577 95.9148 32.7815 95.8243C33.0027 95.735 33.2104 95.5975 33.4056 95.4165ZM30.4869 98.262C30.8846 98.262 31.2575 98.2187 31.6105 98.1294C31.9623 98.0426 32.2694 97.9099 32.5342 97.7301C32.7989 97.5515 33.0103 97.3321 33.1694 97.0692C33.3273 96.8101 33.4118 96.5076 33.4242 96.1629C33.2179 96.3427 32.9879 96.4765 32.7356 96.567C32.4831 96.6538 32.1898 96.6973 31.8554 96.6973C31.5882 96.6973 31.3383 96.6538 31.107 96.567C30.877 96.4765 30.6769 96.3538 30.5054 96.1876C30.3364 96.0251 30.2021 95.8243 30.1052 95.5874C30.0094 95.3507 29.9609 95.0866 29.9609 94.7965C29.9609 94.4505 30.017 94.1541 30.1375 93.9099C30.2556 93.6656 30.4135 93.4648 30.6112 93.3097C30.8088 93.1547 31.0337 93.0407 31.2861 92.9675C31.5384 92.8955 31.797 92.8584 32.0656 92.8584C32.3949 92.8584 32.6921 92.9143 32.9643 93.0233C33.2339 93.1312 33.4664 93.3035 33.6616 93.5392C33.8543 93.7722 34.0047 94.0699 34.1117 94.4431C34.2185 94.8126 34.2708 95.2602 34.2708 95.7872C34.2708 96.3328 34.1774 96.8088 33.9911 97.2107C33.7997 97.6148 33.5385 97.9484 33.2055 98.2113C32.871 98.4766 32.4794 98.6737 32.0295 98.8039C31.5769 98.9341 31.0909 98.9999 30.5601 98.9999L30.4869 98.262Z" fill="#1BB5C2"/>
<path fill-rule="evenodd" clip-rule="evenodd" d="M41.8189 95.4165C41.8189 94.8101 41.6982 94.3489 41.462 94.0326C41.2246 93.7178 40.8804 93.559 40.4241 93.559C40.04 93.559 39.7454 93.6594 39.5404 93.8615C39.3314 94.0598 39.2283 94.3662 39.2283 94.7765C39.2283 95.161 39.3277 95.4524 39.5253 95.6557C39.723 95.859 40.014 95.9596 40.3967 95.9596C40.705 95.9596 40.9711 95.9148 41.1949 95.8243C41.4161 95.735 41.6238 95.5975 41.8189 95.4165ZM38.9 98.262C39.2966 98.262 39.6708 98.2187 40.0239 98.1294C40.3757 98.0426 40.684 97.9099 40.9486 97.7301C41.2122 97.5515 41.4235 97.3321 41.5813 97.0692C41.7392 96.8101 41.8251 96.5076 41.8363 96.1629C41.6287 96.3427 41.4012 96.4765 41.1475 96.567C40.8952 96.6538 40.602 96.6973 40.2687 96.6973C40.0002 96.6973 39.7516 96.6538 39.5204 96.567C39.2904 96.4765 39.089 96.3538 38.9188 96.1876C38.7484 96.0251 38.6154 95.8243 38.5185 95.5874C38.4202 95.3507 38.373 95.0866 38.373 94.7965C38.373 94.4505 38.4314 94.1541 38.5495 93.9099C38.6688 93.6656 38.8254 93.4648 39.0231 93.3097C39.2221 93.1547 39.4458 93.0407 39.6982 92.9675C39.9517 92.8955 40.2116 92.8584 40.4775 92.8584C40.8083 92.8584 41.1053 92.9143 41.3775 93.0233C41.6473 93.1312 41.8798 93.3035 42.0749 93.5392C42.2689 93.7722 42.4193 94.0699 42.5248 94.4431C42.633 94.8126 42.6827 95.2602 42.6827 95.7872C42.6827 96.3328 42.5908 96.8088 42.4018 97.2107C42.213 97.6148 41.9507 97.9484 41.6186 98.2113C41.2831 98.4766 40.8915 98.6737 40.4429 98.8039C39.9915 98.9341 39.5031 98.9999 38.9734 98.9999L38.9 98.262Z" fill="#1BB5C2"/>
<path fill-rule="evenodd" clip-rule="evenodd" d="M48.9416 95.2895C49.2338 95.2895 49.4662 95.2064 49.6353 95.039C49.8043 94.8704 49.8912 94.6621 49.8912 94.4079C49.8912 94.1277 49.7919 93.918 49.5942 93.7718C49.3966 93.6316 49.1604 93.5584 48.8882 93.5584C48.5836 93.5584 48.3239 93.5957 48.1075 93.6652C47.8925 93.7357 47.6724 93.8623 47.4474 94.0409L47.072 93.4506C47.3591 93.2275 47.6462 93.0712 47.9348 92.9857C48.2231 92.8951 48.55 92.8506 48.9156 92.8506C49.1827 92.8506 49.4265 92.8865 49.6476 92.9609C49.8714 93.0316 50.0617 93.1357 50.2232 93.2659C50.3836 93.3949 50.5091 93.5498 50.5973 93.7283C50.6845 93.9081 50.7292 94.1054 50.7292 94.3248C50.7292 94.5666 50.6732 94.7984 50.5614 95.0192C50.4483 95.2411 50.2667 95.406 50.0169 95.5163V95.5536C50.3277 95.6615 50.5775 95.8413 50.7715 96.093C50.9629 96.3435 51.0585 96.6596 51.0585 97.0427C51.0585 97.3093 51.0076 97.5623 50.9069 97.7967C50.8063 98.0334 50.6645 98.2431 50.4792 98.4204C50.2941 98.6014 50.0629 98.7414 49.7906 98.8443C49.5172 98.9474 49.2064 98.9994 48.8595 98.9994C48.4034 98.9994 48.0155 98.9437 47.6924 98.8344C47.3703 98.7253 47.0795 98.5468 46.8184 98.2987L47.2186 97.5983C47.4859 97.8474 47.7396 98.021 47.982 98.1177C48.2206 98.2144 48.4966 98.2616 48.8061 98.2616C49.005 98.2616 49.1928 98.2356 49.3667 98.1785C49.5384 98.1239 49.6886 98.0472 49.8129 97.9379C49.9374 97.8326 50.0367 97.7062 50.1089 97.5586C50.1822 97.4085 50.2183 97.2437 50.2183 97.0614C50.2183 96.6794 50.1014 96.4054 49.8677 96.238C49.634 96.072 49.3406 95.9889 48.9875 95.9889H48.0304V95.2895H48.9416Z" fill="#1BB5C2"/>
<path fill-rule="evenodd" clip-rule="evenodd" d="M111.675 11.88C114.289 11.88 117.853 13.4114 119.225 15.484L121.053 12.0469C118.645 10.5535 114.411 9.30664 111.505 9.30664C101.419 9.30664 96.4863 17.0937 96.4863 23.5567C96.4863 30.5055 101.254 37.5086 111.386 37.5086C114.949 37.5086 118.814 36.0986 120.097 34.9391L118.887 32.6654C117.029 33.9438 115.66 34.8961 112.17 34.8961C105.16 34.8961 102.142 29.1791 102.142 23.409C102.142 17.6337 104.742 11.88 111.675 11.88Z" fill="#1BB5C2"/>
<path fill-rule="evenodd" clip-rule="evenodd" d="M197.357 11.88C199.968 11.88 203.539 13.4114 204.911 15.484L206.734 12.0469C204.324 10.5535 200.099 9.30664 197.193 9.30664C187.107 9.30664 182.166 17.0937 182.166 23.5567C182.166 30.5055 186.937 37.5086 197.065 37.5086C200.637 37.5086 204.498 36.0986 205.785 34.9391L204.584 32.6654C202.71 33.9438 201.337 34.8961 197.856 34.8961C190.843 34.8961 187.825 29.1791 187.825 23.409C187.825 17.6337 190.427 11.88 197.357 11.88Z" fill="#1BB5C2"/>
<path fill-rule="evenodd" clip-rule="evenodd" d="M128.848 26.3705L132.794 14.6506H133.087L136.882 26.3705H128.848ZM130.884 11.0037V12.5388L122.508 36.7069H125.365L128.069 28.6809H137.629L140.222 36.7069H145.87L136.485 9.30664L130.884 11.0037Z" fill="#1BB5C2"/>
<path fill-rule="evenodd" clip-rule="evenodd" d="M170.149 10.0205L163.798 28.6815H163.588L157.404 10.0205H150.313L149.52 36.7075H152.302L153.008 13.9128L153.296 13.8635L160.73 35.8528H164.086L171.723 13.9128H172.017L172.847 36.7075H178.072L177.24 10.0205H170.149Z" fill="#1BB5C2"/>
<path fill-rule="evenodd" clip-rule="evenodd" d="M222.895 35.0316C216.375 35.0316 214.305 27.8161 214.305 23.179C214.305 18.5483 215.868 11.8816 222.895 11.8816C229.16 11.8816 231.49 18.5483 231.49 23.3663C231.49 28.1879 229.867 35.0316 222.895 35.0316ZM223.183 9.39551C215.175 9.39551 208.66 15.4856 208.66 23.7228C208.66 31.9563 215.01 37.4608 222.688 37.4608C230.353 37.4608 237.131 31.2961 237.131 23.3663C237.131 15.4362 231.526 9.39551 223.183 9.39551Z" fill="#1BB5C2"/>
<path fill-rule="evenodd" clip-rule="evenodd" d="M258.199 21.8263H246.906V10.0205H241.596V36.7075H246.906V24.2542H258.199V36.7075H263.438V10.0205H258.199V21.8263Z" fill="#1BB5C2"/>
<path fill-rule="evenodd" clip-rule="evenodd" d="M137.851 65.1096L141.794 53.3898H142.086L145.876 65.1096H137.851ZM139.892 49.7429V51.2781L131.51 75.446H134.367L137.07 67.42H146.631L149.223 75.446H154.872L145.485 48.0459L139.892 49.7429Z" fill="#1BB5C2"/>
<path fill-rule="evenodd" clip-rule="evenodd" d="M221.113 65.1096L225.064 53.3898H225.354L229.146 65.1096H221.113ZM232.496 75.446H238.13L228.759 48.0459L223.151 49.7429V51.2781L214.771 75.446H217.635L220.338 67.42H229.895L232.496 75.446Z" fill="#1BB5C2"/>
<path fill-rule="evenodd" clip-rule="evenodd" d="M203.442 48.7588L197.09 67.4197H196.887L190.703 48.7588H183.607L182.818 75.4458H185.597L186.299 52.6511L186.596 52.6017L194.019 74.5908H197.38L205.019 52.6511H205.313L206.149 75.4458H211.369L210.54 48.7588H203.442Z" fill="#1BB5C2"/>
<path fill-rule="evenodd" clip-rule="evenodd" d="M166.807 62.9855C165.633 62.9855 164.777 62.902 164.114 62.7111V51.1013H166.326C170.425 51.1013 172.787 53.2966 172.787 56.9852C172.787 60.679 170.369 62.9855 166.807 62.9855ZM167.648 48.6328C166.127 48.6328 160.77 48.7594 158.805 48.7594V75.4464H164.114V65.144C165.402 65.2515 166.641 65.3489 167.164 65.3489C175.369 65.3489 178.382 60.4412 178.382 56.248C178.382 52.582 175.548 48.6328 167.648 48.6328Z" fill="#1BB5C2"/>
<path fill-rule="evenodd" clip-rule="evenodd" d="M119.37 70.9703C118.335 70.9703 117.458 70.8275 116.681 70.5188V52.68H118.891C122.988 52.68 125.357 56.4925 125.357 61.8251C125.357 67.164 122.927 70.9703 119.37 70.9703ZM108.675 70.9703C105.116 70.9703 102.695 67.164 102.695 61.8251C102.695 56.4925 105.054 52.68 109.159 52.68H111.368V70.5188C110.597 70.8275 109.714 70.9703 108.675 70.9703ZM120.213 50.209C119.555 50.209 118.185 50.2355 116.681 50.2633V47.9619H111.368V50.2633C109.865 50.2355 108.492 50.209 107.837 50.209C99.9338 50.209 97.1016 57.336 97.1016 61.8251C97.1016 66.8403 100.111 73.3286 108.32 73.3286C109.328 73.3286 110.399 73.2212 111.368 73.0972V76.2474H116.681V73.0972C117.656 73.2212 118.718 73.3286 119.728 73.3286C127.93 73.3286 130.947 66.8403 130.947 61.8251C130.947 57.336 128.115 50.209 120.213 50.209Z" fill="#1BB5C2"/>
<path fill-rule="evenodd" clip-rule="evenodd" d="M105.626 91.7016C105.197 91.39 104.779 91.1635 104.373 91.0203C103.965 90.8782 103.52 90.8057 103.038 90.8057C102.52 90.8057 102.048 90.8939 101.624 91.0673C101.199 91.2418 100.836 91.483 100.537 91.7918C100.239 92.0987 100.009 92.4652 99.8465 92.8907C99.6864 93.3141 99.6058 93.7768 99.6058 94.2767C99.6058 94.8394 99.6952 95.3335 99.874 95.758C100.052 96.1814 100.296 96.5403 100.604 96.8293C100.913 97.1196 101.274 97.3361 101.69 97.4793C102.107 97.6215 102.55 97.694 103.025 97.694C103.293 97.694 103.544 97.6812 103.775 97.6538C104.008 97.6273 104.232 97.5803 104.446 97.5136C104.661 97.447 104.874 97.3588 105.089 97.2538C105.304 97.145 105.527 97.0126 105.76 96.8519L106.136 97.9469C105.652 98.2772 105.159 98.5047 104.654 98.6292C104.149 98.7547 103.56 98.8172 102.891 98.8172C102.309 98.8172 101.744 98.7262 101.194 98.5429C100.645 98.3606 100.158 98.0831 99.7325 97.7136C99.3079 97.3439 98.969 96.8735 98.7144 96.302C98.459 95.7315 98.332 95.06 98.332 94.2836C98.332 93.6141 98.4568 93.0014 98.7075 92.4436C98.958 91.8869 99.2982 91.4124 99.7267 91.0203C100.156 90.6273 100.656 90.3234 101.228 90.1028C101.799 89.8852 102.404 89.7754 103.038 89.7754C103.69 89.7754 104.256 89.85 104.735 90.0008C105.212 90.1498 105.679 90.3929 106.136 90.7272L105.626 91.7016Z" fill="#1BB5C2"/>
<path fill-rule="evenodd" clip-rule="evenodd" d="M108.52 89.9502H114.124V91.007H109.793V93.6017H113.681V94.6309H109.793V97.5875H114.311V98.6432H108.52V89.9502Z" fill="#1BB5C2"/>
<path fill-rule="evenodd" clip-rule="evenodd" d="M116.311 89.9502H122.786V90.9667H120.184V98.6432H118.911V90.9805H116.311V89.9502Z" fill="#1BB5C2"/>
<path fill-rule="evenodd" clip-rule="evenodd" d="M126.354 97.6129H128.405C128.699 97.6129 128.973 97.5834 129.222 97.5256C129.474 97.4669 129.69 97.3708 129.874 97.2355C130.057 97.1012 130.199 96.9267 130.301 96.7101C130.404 96.4935 130.457 96.2298 130.457 95.9151C130.457 95.6015 130.404 95.3358 130.301 95.1192C130.199 94.9044 130.057 94.731 129.874 94.6005C129.69 94.4702 129.471 94.3762 129.215 94.3173C128.961 94.2584 128.682 94.2291 128.378 94.2291H126.354V97.6129ZM126.354 89.9502V93.1999H128.459C128.941 93.1999 129.381 93.2566 129.778 93.3675C130.176 93.4792 130.522 93.6478 130.812 93.8752C131.102 94.1025 131.328 94.387 131.489 94.7252C131.651 95.0632 131.729 95.4602 131.729 95.9151C131.729 96.3611 131.651 96.7522 131.489 97.0923C131.328 97.4296 131.104 97.7139 130.818 97.9412C130.531 98.1677 130.187 98.3413 129.785 98.4619C129.384 98.5824 128.941 98.6432 128.459 98.6432H125.08V89.9502H126.354Z" fill="#1BB5C2"/>
<path fill-rule="evenodd" clip-rule="evenodd" d="M141.22 94.9663H144.411L142.882 91.1815H142.761L141.22 94.9663ZM143.553 89.9502L147.281 98.6432H145.952L144.813 96.0092H140.804L139.718 98.6432H138.404L142.146 89.9502H143.553Z" fill="#1BB5C2"/>
<path fill-rule="evenodd" clip-rule="evenodd" d="M156.437 89.9502V98.6432H155.164V90.9805H150.739V98.6432H149.467V89.9502H156.437Z" fill="#1BB5C2"/>
<path fill-rule="evenodd" clip-rule="evenodd" d="M158.717 89.9502H165.193V90.9667H162.592V98.6432H161.318V90.9805H158.717V89.9502Z" fill="#1BB5C2"/>
<path fill-rule="evenodd" clip-rule="evenodd" d="M167.488 89.9502H173.093V91.007H168.763V93.6017H172.651V94.6309H168.763V97.5875H173.282V98.6432H167.488V89.9502Z" fill="#1BB5C2"/>
<path fill-rule="evenodd" clip-rule="evenodd" d="M177.033 89.9507V93.1484H178.895L180.29 90.9133C180.513 90.5576 180.774 90.286 181.073 90.0978C181.372 89.9114 181.702 89.8174 182.059 89.8174C182.372 89.8174 182.682 89.8616 182.986 89.9507L182.797 91.0211C182.645 90.976 182.489 90.9536 182.328 90.9536C182.095 90.9536 181.89 91.0006 181.711 91.0938C181.533 91.1887 181.358 91.3692 181.188 91.6367L179.915 93.6287L183.187 98.6436H181.724L178.895 94.2041H177.033V98.6436H175.744V89.9507H177.033Z" fill="#1BB5C2"/>
</svg>
