<svg width="20" height="20" viewBox="0 0 20 20" fill="none" xmlns="http://www.w3.org/2000/svg">
<g clip-path="url(#clip0_576_18646)">
<path d="M14.3932 20C10.8871 20 7.14305 18.7117 4.21562 15.7843C1.29309 12.8618 0 9.12016 0 5.60676C0 2.51031 2.50516 0 5.60676 0C5.84637 0 6.0618 0.145859 6.15078 0.36832L8.66121 6.64437C8.78141 6.94484 8.63527 7.28582 8.33484 7.40602L5.57715 8.50906C5.77223 11.6816 8.31887 14.2281 11.4909 14.4229L12.594 11.6652C12.7139 11.3653 13.0548 11.2186 13.3557 11.3388L19.6316 13.8492C19.8541 13.9382 20 14.1536 20 14.3932C20 17.4897 17.4948 20 14.3932 20ZM5.2168 1.18867C2.97273 1.38285 1.17188 3.26465 1.17188 5.60676C1.17188 9.13832 2.54711 12.4585 5.0443 14.9557C7.54145 17.4529 10.8616 18.8281 14.3932 18.8281C16.7346 18.8281 18.617 17.0283 18.8114 14.7832L13.4645 12.6445L12.4268 15.2384C12.3379 15.4609 12.1224 15.6068 11.8828 15.6068C7.75277 15.6068 4.39324 12.2472 4.39324 8.11781C4.39324 7.87824 4.5391 7.66211 4.76156 7.57316L7.35555 6.53555L5.2168 1.18867Z" fill="#6951AB"/>
</g>
<defs>
<clipPath id="clip0_576_18646">
<rect width="20" height="20" fill="white"/>
</clipPath>
</defs>
</svg>
