<svg width="13" height="14" viewBox="0 0 13 14" fill="none" xmlns="http://www.w3.org/2000/svg">
<path d="M11.9766 10.0703L11.4141 12.4375C11.3438 12.7891 11.0625 13.0234 10.7109 13.0234C4.80469 13 0 8.19531 0 2.28906C0 1.9375 0.210938 1.65625 0.5625 1.58594L2.92969 1.02344C3.25781 0.953125 3.60938 1.14062 3.75 1.44531L4.85156 4C4.96875 4.30469 4.89844 4.65625 4.64062 4.84375L3.375 5.875C4.17188 7.49219 5.48438 8.80469 7.125 9.60156L8.15625 8.33594C8.34375 8.10156 8.69531 8.00781 9 8.125L11.5547 9.22656C11.8594 9.39062 12.0469 9.74219 11.9766 10.0703Z" fill="#6951AB"/>
</svg>
