<svg width="23" height="23" viewBox="0 0 23 23" fill="none" xmlns="http://www.w3.org/2000/svg">
<path d="M21.957 17.3789L20.9258 21.7188C20.7969 22.3633 20.2812 22.793 19.6367 22.793C8.80859 22.75 0 13.9414 0 3.11328C0 2.46875 0.386719 1.95312 1.03125 1.82422L5.37109 0.792969C5.97266 0.664062 6.61719 1.00781 6.875 1.56641L8.89453 6.25C9.10938 6.80859 8.98047 7.45312 8.50781 7.79688L6.1875 9.6875C7.64844 12.6523 10.0547 15.0586 13.0625 16.5195L14.9531 14.1992C15.2969 13.7695 15.9414 13.5977 16.5 13.8125L21.1836 15.832C21.7422 16.1328 22.0859 16.7773 21.957 17.3789Z" fill="#6951AB"/>
</svg>
