<svg width="16" height="16" viewBox="0 0 16 16" fill="none" xmlns="http://www.w3.org/2000/svg">
<path d="M13.9766 11.5703L13.4141 13.9375C13.3438 14.2891 13.0625 14.5234 12.7109 14.5234C6.80469 14.5 2 9.69531 2 3.78906C2 3.4375 2.21094 3.15625 2.5625 3.08594L4.92969 2.52344C5.25781 2.45312 5.60938 2.64062 5.75 2.94531L6.85156 5.5C6.96875 5.80469 6.89844 6.15625 6.64062 6.34375L5.375 7.375C6.17188 8.99219 7.48438 10.3047 9.125 11.1016L10.1562 9.83594C10.3438 9.60156 10.6953 9.50781 11 9.625L13.5547 10.7266C13.8594 10.8906 14.0469 11.2422 13.9766 11.5703Z" fill="white"/>
</svg>
