<svg width="60" height="48" viewBox="0 0 60 48" fill="none" xmlns="http://www.w3.org/2000/svg">
<path d="M20.9062 16.5C20.9062 19.0312 18.9375 21 16.4062 21C13.9688 21 11.9062 19.0312 11.9062 16.5C11.9062 14.0625 13.9688 12 16.4062 12C18.9375 12 20.9062 14.0625 20.9062 16.5ZM9 29.0625C9 26.25 11.1562 24 13.9688 24H20.4375C21.2812 24 22.125 24.2812 22.875 24.6562C19.7812 25.7812 17.4375 28.3125 16.6875 31.5H11.4375C10.0312 31.5 9 30.4688 9 29.0625ZM37.0312 24.6562C37.7812 24.2812 38.625 24 39.4688 24H45.9375C48.75 24 51 26.25 51 29.0625C51 30.4688 49.875 31.5 48.4688 31.5H43.2188C42.4688 28.3125 40.125 25.7812 37.0312 24.6562ZM34.875 27.0938C37.3125 27.5625 39.2812 29.25 40.0312 31.5C40.3125 32.25 40.5 33 40.5 33.75C40.5 35.0625 39.4688 36 38.25 36H21.75C20.4375 36 19.5 35.0625 19.5 33.75C19.5 33 19.5938 32.25 19.875 31.5C20.625 29.25 22.5938 27.5625 25.0312 27.0938C25.4062 27.0938 25.7812 27 26.25 27H33.75C34.125 27 34.5 27.0938 34.875 27.0938ZM48 16.5C48 19.0312 45.9375 21 43.5 21C40.9688 21 39 19.0312 39 16.5C39 14.0625 40.9688 12 43.5 12C45.9375 12 48 14.0625 48 16.5ZM24 18C24 14.7188 26.625 12 30 12C33.2812 12 36 14.7188 36 18C36 21.375 33.2812 24 30 24C26.625 24 24 21.375 24 18ZM51 0C55.9688 0 60 4.03125 60 9V39C60 43.9688 55.9688 48 51 48H9C3.9375 48 0 43.9688 0 39V9C0 4.03125 3.9375 0 9 0H51ZM6 39C6 40.6875 7.3125 42 9 42H51C52.5938 42 54 40.6875 54 39V9C54 7.40625 52.5938 6 51 6H9C7.3125 6 6 7.40625 6 9V39Z" fill="#6456A9"/>
</svg>
