<svg width="60" height="48" viewBox="0 0 60 48" fill="none" xmlns="http://www.w3.org/2000/svg">
<path d="M48 15C43.7812 15 40.5 11.7188 40.5 7.5C40.5 3.375 43.7812 0 48 0C52.125 0 55.5 3.375 55.5 7.5C55.5 11.7188 52.125 15 48 15ZM12 15C7.78125 15 4.5 11.7188 4.5 7.5C4.5 3.375 7.78125 0 12 0C16.125 0 19.5 3.375 19.5 7.5C19.5 11.7188 16.125 15 12 15ZM29.9062 30C24.5625 30 20.1562 25.6875 20.25 20.25C20.25 14.9062 24.5625 10.5 29.9062 10.5C35.25 10.5 39.6562 14.9062 39.6562 20.25C39.6562 25.6875 35.3438 30 29.9062 30ZM34.5 37.5C34.5 41.8125 36.4688 45.5625 39.5625 48H14.625C13.125 48 12 46.9688 12 45.5625C12 38.625 17.9062 33 25.3125 33H34.5938C34.875 33 35.0625 33.0938 35.25 33.0938C34.7812 34.5 34.5 36 34.5 37.5ZM17.1562 20.25C17.1562 23.4375 18.375 26.3438 20.3438 28.5H1.59375C0.65625 28.5 0 27.75 0 26.8125C0 21.9375 3.65625 18 8.25 18H13.9688C15.1875 18 16.3125 18.2812 17.3438 18.8438C17.25 19.3125 17.1562 19.7812 17.1562 20.25ZM51.6562 18C56.25 18 60 21.9375 60 26.8125C60 27.75 59.25 28.5 58.3125 28.5H57.9375C55.5 25.7812 51.9375 24 48 24C45.5625 24 43.3125 24.75 41.3438 25.875C42.1875 24.1875 42.6562 22.3125 42.6562 20.25C42.6562 19.7812 42.5625 19.3125 42.5625 18.8438C43.5938 18.375 44.7188 18 45.9375 18H51.6562ZM57.9375 34.4062C58.0312 34.6875 57.9375 34.875 57.75 34.9688L55.9688 36C56.1562 36.9375 56.1562 37.9688 55.9688 38.9062L57.75 40.0312C57.9375 40.125 58.0312 40.3125 57.9375 40.5938C57.4688 42.0938 56.7188 43.5 55.6875 44.625C55.5 44.8125 55.2188 44.8125 55.0312 44.7188L53.25 43.6875C52.5 44.3438 51.5625 44.8125 50.625 45.0938V47.25C50.625 47.4375 50.5312 47.625 50.25 47.7188C48.75 48.0938 47.1562 48.0938 45.6562 47.7188C45.375 47.625 45.2812 47.4375 45.2812 47.25V45.0938C44.3438 44.8125 43.4062 44.3438 42.6562 43.6875L40.875 44.7188C40.6875 44.8125 40.4062 44.8125 40.2188 44.625C39.1875 43.4062 38.3438 42.0938 37.9688 40.5938C37.875 40.3125 37.9688 40.125 38.1562 40.0312L39.9375 38.9062C39.75 37.9688 39.75 36.9375 39.9375 36L38.1562 34.9688C37.9688 34.7812 37.875 34.5938 37.9688 34.3125C38.3438 32.8125 39.1875 31.5 40.2188 30.375C40.4062 30.1875 40.6875 30.0938 40.875 30.2812L42.6562 31.3125C43.4062 30.6562 44.3438 30.0938 45.2812 29.8125V27.75C45.2812 27.5625 45.375 27.375 45.5625 27.1875C47.0625 26.9062 48.6562 26.9062 50.1562 27.1875C50.4375 27.2812 50.625 27.4688 50.625 27.75V29.9062C51.5625 30.1875 52.4062 30.75 53.1562 31.4062L54.9375 30.2812C55.125 30.1875 55.4062 30.2812 55.5938 30.375C56.625 31.5938 57.4688 32.9062 57.9375 34.4062ZM48 40.5C49.5938 40.5 51 39.1875 51 37.5C51 35.9062 49.5938 34.5 48 34.5C46.3125 34.5 45 35.9062 45 37.5C45 39.1875 46.3125 40.5 48 40.5Z" fill="#6456A9"/>
</svg>
