<svg width="48" height="42" viewBox="0 0 48 42" fill="none" xmlns="http://www.w3.org/2000/svg">
<path d="M31.8262 17.3193C30.7949 18.2568 29.2949 18.2568 28.1699 17.4131L18.0449 9.81932L4.82615 20.3193C3.6074 21.3506 1.7324 21.1631 0.701154 19.8506C-0.423846 18.6318 -0.142596 16.7568 1.1699 15.6318L16.1699 3.72557C17.2012 2.78807 18.7012 2.78807 19.8262 3.63182L29.9512 11.2256L43.1699 0.725568C44.3887 -0.399432 46.2637 -0.118182 47.2949 1.19432C48.4199 2.41307 48.1387 4.28807 46.8262 5.31932L31.8262 17.3193ZM15.0449 20.9756C15.0449 19.3818 16.3574 17.9756 18.0449 17.9756C19.6387 17.9756 21.0449 19.3818 21.0449 20.9756V38.9756C21.0449 40.6631 19.6387 41.9756 18.0449 41.9756C16.3574 41.9756 15.0449 40.6631 15.0449 38.9756V20.9756ZM3.0449 29.9756C3.0449 28.3818 4.3574 26.9756 6.0449 26.9756C7.63865 26.9756 9.0449 28.3818 9.0449 29.9756V38.9756C9.0449 40.6631 7.63865 41.9756 6.0449 41.9756C4.3574 41.9756 3.0449 40.6631 3.0449 38.9756V29.9756ZM33.0449 26.9756V38.9756C33.0449 40.6631 31.6387 41.9756 30.0449 41.9756C28.3574 41.9756 27.0449 40.6631 27.0449 38.9756V26.9756C27.0449 25.3818 28.3574 23.9756 30.0449 23.9756C31.6387 23.9756 33.0449 25.3818 33.0449 26.9756ZM39.0449 20.9756C39.0449 19.3818 40.3574 17.9756 42.0449 17.9756C43.6387 17.9756 45.0449 19.3818 45.0449 20.9756V38.9756C45.0449 40.6631 43.6387 41.9756 42.0449 41.9756C40.3574 41.9756 39.0449 40.6631 39.0449 38.9756V20.9756Z" fill="#6456A9"/>
</svg>
