<svg width="61" height="48" viewBox="0 0 61 48" fill="none" xmlns="http://www.w3.org/2000/svg">
<path d="M39.0561 16.5C39.0561 25.6875 30.2436 33 19.5561 33C15.8998 33 12.6186 32.25 9.71232 30.75C7.36857 31.9688 4.36857 33 0.71232 33C0.43107 33 0.14982 32.9062 0.0560696 32.625C-0.0376804 32.3438 -0.0376804 32.0625 0.24357 31.875C0.24357 31.7812 2.39982 29.5312 3.89982 26.4375C1.46232 23.625 0.0560696 20.25 0.0560696 16.5C0.0560696 7.40625 8.77482 0 19.5561 0C30.2436 0 39.0561 7.40625 39.0561 16.5ZM19.5561 27C20.8686 27 21.8061 26.0625 21.8061 24.75C21.8061 23.4375 20.8686 22.5 19.5561 22.5C18.2436 22.5 17.3061 23.4375 17.3061 24.75C17.3061 26.0625 18.2436 27 19.5561 27ZM24.5248 16.125C26.1186 15.1875 27.0561 13.5 27.0561 11.8125C27.0561 9 24.8061 6.75 21.9936 6.75H18.2436C15.4311 6.75 13.2748 9 13.2748 11.8125C13.2748 12.75 14.0248 13.5 14.9623 13.5C15.8998 13.5 16.6498 12.75 16.6498 11.8125C16.6498 10.9688 17.3998 10.2188 18.2436 10.2188H21.9936C22.8373 10.2188 23.5873 10.9688 23.5873 11.8125C23.5873 12.375 23.3061 12.8438 22.7436 13.2188L18.7123 15.6562C18.1498 15.9375 17.8686 16.5 17.8686 17.1562V18.2812C17.8686 19.2188 18.6186 19.9688 19.5561 19.9688C20.4936 19.9688 21.2436 19.2188 21.2436 18.2812V18.0938L24.5248 16.125ZM56.2123 41.625C57.7123 44.625 59.7748 46.7812 59.7748 46.875C59.9623 47.0625 60.0561 47.3438 59.9623 47.625C59.8686 47.9062 59.5873 48 59.3061 48C55.9311 48 53.0248 47.0625 50.6811 46.0312C48.1498 47.25 45.1498 48 42.0561 48C33.5248 48 26.4936 42.75 24.5248 35.5312C34.5561 33.5625 42.0561 25.7812 42.0561 16.5C42.0561 16.0312 41.9623 15.5625 41.9623 15.0938C41.9623 15.0938 41.9623 15 42.0561 15C51.9936 15 60.0561 22.4062 60.0561 31.5C60.0561 35.3438 58.5561 38.8125 56.2123 41.625ZM50.8686 29.8125C51.6186 29.0625 51.5248 27.9375 50.7748 27.1875C50.0248 26.4375 48.8998 26.5312 48.1498 27.2812L41.5873 34.125L39.2436 31.6875C38.4936 31.0312 37.2748 31.0312 36.5248 31.6875C35.8686 32.4375 35.8686 33.6562 36.5248 34.4062L40.2748 38.1562C40.6498 38.4375 41.1186 38.625 41.6811 38.625C42.1498 38.625 42.6186 38.4375 42.9936 38.0625L50.8686 29.8125Z" fill="#6456A9"/>
</svg>
