<svg width="36" height="48" viewBox="0 0 36 48" fill="none" xmlns="http://www.w3.org/2000/svg">
<path d="M27.75 34.5V39H23.25V34.5H27.75ZM24 0L36 12H24V0ZM27.75 27V31.5H23.25V27H27.75ZM20.25 27V31.5H15.75V27H20.25ZM20.25 34.5V39H15.75V34.5H20.25ZM12.75 34.5V39H8.25V34.5H12.75ZM21 12C21 13.6875 22.3125 15 24 15H36V43.5C36 46.0312 33.9375 48 31.5 48H4.5C1.96875 48 0 46.0312 0 43.5V4.5C0 2.0625 1.96875 0 4.5 0H21V12ZM30.75 22.5C30.75 21.75 30 21 29.25 21H6.75C5.90625 21 5.25 21.75 5.25 22.5V40.5C5.25 41.3438 5.90625 42 6.75 42H29.25C30 42 30.75 41.3438 30.75 40.5V22.5ZM12.75 27V31.5H8.25V27H12.75Z" fill="#6456A9"/>
</svg>
