<svg width="18" height="18" viewBox="0 0 18 18" fill="none" xmlns="http://www.w3.org/2000/svg">
<path d="M9.00099 1.5C13.1432 1.5 16.501 4.85775 16.501 9C16.501 13.1423 13.1432 16.5 9.00099 16.5C7.67557 16.5021 6.37348 16.1514 5.22849 15.4838L1.50399 16.5L2.51799 12.774C1.84981 11.6287 1.49877 10.326 1.50099 9C1.50099 4.85775 4.85874 1.5 9.00099 1.5ZM6.44499 5.475L6.29499 5.481C6.19788 5.48691 6.10297 5.51243 6.01599 5.556C5.93463 5.60207 5.86036 5.65967 5.79549 5.727C5.70549 5.81175 5.65449 5.88525 5.59974 5.9565C5.32233 6.31718 5.17297 6.75998 5.17524 7.215C5.17674 7.5825 5.27274 7.94025 5.42274 8.27475C5.72949 8.95125 6.23424 9.6675 6.90024 10.3312C7.06074 10.491 7.21824 10.6515 7.38774 10.8007C8.21528 11.5293 9.20143 12.0548 10.2677 12.3353L10.6937 12.4005C10.8325 12.408 10.9712 12.3975 11.1107 12.3907C11.3292 12.3795 11.5424 12.3203 11.7355 12.2175C11.8337 12.1669 11.9296 12.1119 12.0227 12.0525C12.0227 12.0525 12.055 12.0315 12.1165 11.985C12.2177 11.91 12.28 11.8568 12.364 11.769C12.4262 11.7045 12.4802 11.6287 12.5215 11.5425C12.58 11.4202 12.6385 11.187 12.6625 10.9928C12.6805 10.8442 12.6752 10.7633 12.673 10.713C12.67 10.6328 12.6032 10.5495 12.5305 10.5142L12.094 10.3185C12.094 10.3185 11.4415 10.0343 11.0425 9.85275C11.0007 9.83452 10.956 9.8241 10.9105 9.822C10.8592 9.81673 10.8073 9.8225 10.7584 9.83893C10.7095 9.85536 10.6647 9.88206 10.627 9.91725C10.6232 9.91575 10.573 9.9585 10.0307 10.6155C9.99961 10.6573 9.95674 10.6889 9.90759 10.7063C9.85843 10.7237 9.80522 10.726 9.75474 10.713C9.70588 10.6999 9.65801 10.6834 9.61149 10.6635C9.51849 10.6245 9.48624 10.6095 9.42249 10.5825C8.99204 10.3947 8.5935 10.1409 8.24124 9.83025C8.14674 9.74775 8.05899 9.65775 7.96899 9.57075C7.67393 9.28817 7.41678 8.9685 7.20399 8.61975L7.15974 8.5485C7.12795 8.50062 7.10226 8.44898 7.08324 8.39475C7.05474 8.2845 7.12899 8.196 7.12899 8.196C7.12899 8.196 7.31124 7.9965 7.39599 7.8885C7.47849 7.7835 7.54824 7.6815 7.59324 7.60875C7.68174 7.46625 7.70949 7.32 7.66299 7.20675C7.45299 6.69375 7.23549 6.183 7.01199 5.676C6.96774 5.5755 6.83649 5.5035 6.71724 5.48925C6.67674 5.48475 6.63624 5.48025 6.59574 5.47725C6.49502 5.47225 6.39409 5.47325 6.29349 5.48025L6.44424 5.47425L6.44499 5.475Z" fill="white"/>
</svg>
