<svg width="13" height="12" viewBox="0 0 13 12" fill="none" xmlns="http://www.w3.org/2000/svg">
<path d="M11.8125 11.0391C12.0469 11.2734 12.0469 11.625 11.8125 11.8359C11.7188 11.9531 11.5781 12 11.4375 12C11.2734 12 11.1328 11.9531 11.0156 11.8359L7.875 8.69531C7.03125 9.375 5.97656 9.75 4.85156 9.75C2.17969 9.75 0 7.57031 0 4.875C0 2.20312 2.15625 0 4.85156 0C7.52344 0 9.72656 2.20312 9.72656 4.875C9.72656 6.02344 9.35156 7.07812 8.67188 7.89844L11.8125 11.0391ZM1.125 4.875C1.125 6.96094 2.78906 8.625 4.875 8.625C6.9375 8.625 8.625 6.96094 8.625 4.875C8.625 2.8125 6.9375 1.125 4.875 1.125C2.78906 1.125 1.125 2.8125 1.125 4.875Z" fill="#8692A3"/>
</svg>
