<svg width="13" height="12" viewBox="0 0 13 12" fill="none" xmlns="http://www.w3.org/2000/svg">
<path d="M7 0.75C10.3047 0.75 13 2.95312 13 5.625C13 8.32031 10.3047 10.5 7 10.5C6.08594 10.5 5.24219 10.3359 4.46875 10.0547C3.90625 10.5234 2.73438 11.25 1.1875 11.25C1.09375 11.25 1.02344 11.2266 1 11.1562C0.976562 11.0859 1 10.9922 1.04688 10.9453C1.04688 10.9219 2.03125 9.89062 2.33594 8.69531C1.49219 7.85156 1 6.79688 1 5.625C1 2.95312 3.67188 0.75 7 0.75ZM4.91406 6.375C5.05469 5.60156 4.30469 5.39062 3.90625 5.27344C3.64844 5.20312 3.41406 5.15625 3.4375 5.01562C3.4375 4.92188 3.67188 4.85156 3.92969 4.89844C4.02344 4.92188 4.14062 4.94531 4.23438 4.99219C4.44531 5.0625 4.65625 4.94531 4.72656 4.75781C4.77344 4.54688 4.67969 4.33594 4.49219 4.26562C4.35156 4.21875 4.1875 4.17188 4.04688 4.14844C3.32031 4.05469 2.78125 4.33594 2.6875 4.89844C2.54688 5.67188 3.32031 5.88281 3.60156 5.97656C3.90625 6.07031 4.1875 6.11719 4.16406 6.25781C4.16406 6.35156 3.92969 6.42188 3.67188 6.375C3.50781 6.35156 3.34375 6.28125 3.17969 6.21094C2.99219 6.14062 2.80469 6.25781 2.73438 6.46875C2.66406 6.65625 2.80469 6.89062 2.99219 6.96094C3.15625 7.00781 3.36719 7.07812 3.53125 7.10156C3.625 7.125 3.74219 7.125 3.83594 7.125C4.42188 7.125 4.82031 6.84375 4.91406 6.375ZM8.5 6.75V4.5C8.5 4.35938 8.38281 4.19531 8.24219 4.14844C8.07812 4.10156 7.91406 4.14844 7.82031 4.28906L7 5.39062L6.15625 4.28906C6.0625 4.14844 5.89844 4.10156 5.73438 4.14844C5.59375 4.21875 5.5 4.35938 5.5 4.5V6.75C5.5 6.96094 5.66406 7.125 5.875 7.125C6.0625 7.125 6.25 6.96094 6.25 6.75V5.625L6.69531 6.23438C6.83594 6.42188 7.14062 6.42188 7.28125 6.23438L7.75 5.625V6.75C7.75 6.96094 7.91406 7.125 8.125 7.125C8.3125 7.125 8.5 6.96094 8.5 6.75ZM11.2891 6.375C11.4297 5.60156 10.6797 5.39062 10.2812 5.27344C10.0234 5.20312 9.78906 5.15625 9.78906 5.01562C9.8125 4.92188 10.0234 4.85156 10.2812 4.89844C10.375 4.92188 10.4922 4.94531 10.5859 4.99219C10.7969 5.0625 11.0078 4.94531 11.0781 4.75781C11.1484 4.54688 11.0312 4.33594 10.8438 4.26562C10.7031 4.21875 10.5391 4.17188 10.3984 4.17188C9.69531 4.05469 9.13281 4.33594 9.03906 4.89844C8.92188 5.67188 9.67188 5.88281 9.95312 5.97656C10.2812 6.07031 10.5625 6.11719 10.5156 6.25781C10.5156 6.35156 10.2812 6.42188 10.0234 6.375C9.88281 6.35156 9.69531 6.28125 9.53125 6.21094C9.34375 6.14062 9.15625 6.25781 9.08594 6.46875C9.01562 6.65625 9.15625 6.89062 9.34375 6.96094C9.50781 7.00781 9.71875 7.07812 9.90625 7.10156C10 7.125 10.1172 7.125 10.2109 7.125C10.7969 7.125 11.1953 6.84375 11.2891 6.375Z" fill="#6951AB"/>
</svg>
