<svg width="25" height="22" viewBox="0 0 25 22" fill="none" xmlns="http://www.w3.org/2000/svg">
<path d="M13 0.5C19.6094 0.5 25 4.90625 25 10.25C25 15.6406 19.6094 20 13 20C11.1719 20 9.48438 19.6719 7.9375 19.1094C6.8125 20.0469 4.46875 21.5 1.375 21.5C1.1875 21.5 1.04688 21.4531 1 21.3125C0.953125 21.1719 1 20.9844 1.09375 20.8906C1.09375 20.8438 3.0625 18.7812 3.67188 16.3906C1.98438 14.7031 1 12.5938 1 10.25C1 4.90625 6.34375 0.5 13 0.5ZM8.82812 11.75C9.10938 10.2031 7.60938 9.78125 6.8125 9.54688C6.29688 9.40625 5.82812 9.3125 5.875 9.03125C5.875 8.84375 6.34375 8.70312 6.85938 8.79688C7.04688 8.84375 7.28125 8.89062 7.46875 8.98438C7.89062 9.125 8.3125 8.89062 8.45312 8.51562C8.54688 8.09375 8.35938 7.67188 7.98438 7.53125C7.70312 7.4375 7.375 7.34375 7.09375 7.29688C5.64062 7.10938 4.5625 7.67188 4.375 8.79688C4.09375 10.3438 5.64062 10.7656 6.20312 10.9531C6.8125 11.1406 7.375 11.2344 7.32812 11.5156C7.32812 11.7031 6.85938 11.8438 6.34375 11.75C6.01562 11.7031 5.6875 11.5625 5.35938 11.4219C4.98438 11.2812 4.60938 11.5156 4.46875 11.9375C4.32812 12.3125 4.60938 12.7812 4.98438 12.9219C5.3125 13.0156 5.73438 13.1562 6.0625 13.2031C6.25 13.25 6.48438 13.25 6.67188 13.25C7.84375 13.25 8.64062 12.6875 8.82812 11.75ZM16 12.5V8C16 7.71875 15.7656 7.39062 15.4844 7.29688C15.1562 7.20312 14.8281 7.29688 14.6406 7.57812L13 9.78125L11.3125 7.57812C11.125 7.29688 10.7969 7.20312 10.4688 7.29688C10.1875 7.4375 10 7.71875 10 8V12.5C10 12.9219 10.3281 13.25 10.75 13.25C11.125 13.25 11.5 12.9219 11.5 12.5V10.25L12.3906 11.4688C12.6719 11.8438 13.2812 11.8438 13.5625 11.4688L14.5 10.25V12.5C14.5 12.9219 14.8281 13.25 15.25 13.25C15.625 13.25 16 12.9219 16 12.5ZM21.5781 11.75C21.8594 10.2031 20.3594 9.78125 19.5625 9.54688C19.0469 9.40625 18.5781 9.3125 18.5781 9.03125C18.625 8.84375 19.0469 8.70312 19.5625 8.79688C19.75 8.84375 19.9844 8.89062 20.1719 8.98438C20.5938 9.125 21.0156 8.89062 21.1562 8.51562C21.2969 8.09375 21.0625 7.67188 20.6875 7.53125C20.4062 7.4375 20.0781 7.34375 19.7969 7.34375C18.3906 7.10938 17.2656 7.67188 17.0781 8.79688C16.8438 10.3438 18.3438 10.7656 18.9062 10.9531C19.5625 11.1406 20.125 11.2344 20.0312 11.5156C20.0312 11.7031 19.5625 11.8438 19.0469 11.75C18.7656 11.7031 18.3906 11.5625 18.0625 11.4219C17.6875 11.2812 17.3125 11.5156 17.1719 11.9375C17.0312 12.3125 17.3125 12.7812 17.6875 12.9219C18.0156 13.0156 18.4375 13.1562 18.8125 13.2031C19 13.25 19.2344 13.25 19.4219 13.25C20.5938 13.25 21.3906 12.6875 21.5781 11.75Z" fill="#6951AB"/>
</svg>
