<svg width="12" height="11" viewBox="0 0 12 11" fill="none" xmlns="http://www.w3.org/2000/svg">
<path d="M11.25 2.5C11.25 3.74219 10.2422 4.75 9 4.75C8.39062 4.75 7.82812 4.51562 7.42969 4.14062L5.22656 5.24219C5.22656 5.3125 5.22656 5.40625 5.22656 5.5C5.22656 5.59375 5.22656 5.6875 5.22656 5.78125L7.42969 6.88281C7.82812 6.50781 8.39062 6.25 9 6.25C10.2422 6.25 11.25 7.25781 11.25 8.5C11.25 9.74219 10.2422 10.75 9 10.75C7.73438 10.75 6.75 9.74219 6.75 8.5C6.75 8.40625 6.75 8.3125 6.75 8.24219L4.54688 7.14062C4.14844 7.51562 3.58594 7.75 3 7.75C1.73438 7.75 0.75 6.74219 0.75 5.5C0.75 4.25781 1.73438 3.25 3 3.25C3.58594 3.25 4.14844 3.50781 4.54688 3.88281L6.75 2.78125C6.75 2.6875 6.75 2.59375 6.75 2.5C6.75 1.25781 7.73438 0.25 9 0.25C10.2422 0.25 11.25 1.25781 11.25 2.5ZM2.97656 6.25C3.39844 6.25 3.72656 5.92188 3.72656 5.5C3.72656 5.10156 3.39844 4.75 2.97656 4.75C2.57812 4.75 2.22656 5.10156 2.22656 5.5C2.22656 5.92188 2.57812 6.25 2.97656 6.25ZM9 1.75C8.57812 1.75 8.25 2.10156 8.25 2.5C8.25 2.92188 8.57812 3.25 9 3.25C9.39844 3.25 9.75 2.92188 9.75 2.5C9.75 2.10156 9.39844 1.75 9 1.75ZM9 9.25C9.39844 9.25 9.75 8.92188 9.75 8.5C9.75 8.10156 9.39844 7.75 9 7.75C8.57812 7.75 8.25 8.10156 8.25 8.5C8.25 8.92188 8.57812 9.25 9 9.25Z" fill="#6951AB"/>
</svg>
