<svg width="30" height="30" viewBox="0 0 30 30" fill="none" xmlns="http://www.w3.org/2000/svg">
<path d="M15 3C8.376 3 3 8.376 3 15C3 21.624 8.376 27 15 27C21.624 27 27 21.624 27 15C27 8.376 21.624 3 15 3ZM20.568 11.16C20.388 13.056 19.608 17.664 19.212 19.788C19.044 20.688 18.708 20.988 18.396 21.024C17.7 21.084 17.172 20.568 16.5 20.124C15.444 19.428 14.844 18.996 13.824 18.324C12.636 17.544 13.404 17.112 14.088 16.416C14.268 16.236 17.34 13.44 17.4 13.188C17.4083 13.1498 17.4072 13.1102 17.3968 13.0726C17.3863 13.0349 17.3668 13.0004 17.34 12.972C17.268 12.912 17.172 12.936 17.088 12.948C16.98 12.972 15.3 14.088 12.024 16.296C11.544 16.62 11.112 16.788 10.728 16.776C10.296 16.764 9.48 16.536 8.868 16.332C8.112 16.092 7.524 15.96 7.572 15.54C7.596 15.324 7.896 15.108 8.46 14.88C11.964 13.356 14.292 12.348 15.456 11.868C18.792 10.476 19.476 10.236 19.932 10.236C20.028 10.236 20.256 10.26 20.4 10.38C20.52 10.476 20.556 10.608 20.568 10.704C20.556 10.776 20.58 10.992 20.568 11.16Z" fill="#6951AB"/>
</svg>
