<svg width="25" height="25" viewBox="0 0 25 25" fill="none" xmlns="http://www.w3.org/2000/svg">
<circle cx="12.5" cy="12.5" r="12.5" fill="#3F8B8B"/>
<path fill-rule="evenodd" clip-rule="evenodd" d="M16.6408 16.7354C17.0367 14.5707 17.8166 9.87406 17.9966 7.94184C18.0029 7.85166 17.9992 7.74775 17.9961 7.65907C17.9933 7.57934 17.9909 7.51156 17.9966 7.47692C17.9846 7.37929 17.9486 7.24462 17.8286 7.14668C17.6846 7.02456 17.4565 7.00007 17.3607 7.00007C16.9047 7.00007 16.2209 7.24462 12.8854 8.66324C11.7216 9.15264 9.39395 10.1798 5.89063 11.7331C5.32661 11.9657 5.02666 12.1857 5.00279 12.4059C4.95475 12.8339 5.54264 12.9683 6.29851 13.2132C6.91042 13.421 7.72622 13.6534 8.15812 13.6656C8.54214 13.6778 8.97406 13.5067 9.454 13.1765C12.7294 10.926 14.4092 9.78869 14.5171 9.76411L14.5458 9.7597C14.6225 9.74747 14.7051 9.73426 14.7691 9.78869C14.7859 9.80691 14.7998 9.82746 14.8105 9.8496C14.8167 9.86293 14.8219 9.87675 14.8258 9.89106C14.8363 9.92958 14.8375 9.96994 14.8291 10.0087C14.7813 10.213 12.8303 12.0558 11.9421 12.895C11.713 13.1114 11.5546 13.261 11.5176 13.2986C11.4254 13.3942 11.3317 13.485 11.2414 13.5724C10.6623 14.1332 10.2262 14.5557 11.2537 15.2433C11.7607 15.5837 12.164 15.8638 12.5709 16.1465C12.9827 16.4326 13.3983 16.7211 13.9292 17.0779C14.0642 17.169 14.1934 17.2627 14.3194 17.3544C14.8202 17.7181 15.2689 18.0442 15.8249 17.9952C16.1369 17.9585 16.4728 17.6527 16.6408 16.7354Z" fill="#F2F5FA"/>
</svg>
