<svg width="25" height="25" viewBox="0 0 25 25" fill="none" xmlns="http://www.w3.org/2000/svg">
<circle cx="12.5" cy="12.5" r="12.5" fill="#3F8B8B"/>
<path d="M15.727 8.38C15.2475 7.85975 14.9832 7.19162 14.9834 6.5H12.8157V14.7667C12.799 15.214 12.6002 15.6377 12.2613 15.9486C11.9224 16.2595 11.4698 16.4333 10.9987 16.4333C10.0026 16.4333 9.17475 15.66 9.17475 14.7C9.17475 13.5533 10.3393 12.6933 11.5389 13.0467V10.94C9.11862 10.6333 7 12.42 7 14.7C7 16.92 8.93622 18.5 10.9917 18.5C13.1945 18.5 14.9834 16.8 14.9834 14.7V10.5067C15.8624 11.1066 16.9178 11.4284 18 11.4267V9.36667C18 9.36667 16.6811 9.42667 15.727 8.38Z" fill="#F2F5FA"/>
</svg>
