<svg width="25" height="25" viewBox="0 0 25 25" fill="none" xmlns="http://www.w3.org/2000/svg">
<circle cx="12.5" cy="12.5" r="12.5" fill="#3F8B8B"/>
<path fill-rule="evenodd" clip-rule="evenodd" d="M17.6051 16.9988H19.3566C19.856 16.9988 20.1069 16.7624 19.9568 16.3009C19.5799 15.5823 19.0816 14.9262 18.4814 14.3597C18.2803 14.1348 18.0319 13.9046 17.8096 13.6987C17.5753 13.4817 17.3704 13.2916 17.2809 13.164C17.0168 12.8446 17.0925 12.7025 17.2809 12.4298C18.2066 11.2383 18.9946 9.95599 19.6315 8.60518C19.7431 8.25056 19.6315 8.00165 19.1069 8.00165H17.3554C17.1913 7.99083 17.0279 8.03135 16.8903 8.11653C16.8375 8.14928 16.7896 8.18813 16.7476 8.23169C16.6799 8.30161 16.627 8.38403 16.5931 8.47449C16.0535 9.69625 15.3288 10.8373 14.4418 11.8615C14.0288 12.2524 13.8548 12.3707 13.6291 12.3707C13.5526 12.3707 13.4533 12.3162 13.3975 12.1703C13.371 12.1012 13.3542 12.0113 13.3542 11.8967V8.60518C13.3542 8.17897 13.2293 8.00165 12.8536 8.00165H10.1021C9.98981 7.99722 9.88009 8.03439 9.79629 8.10516C9.71238 8.17619 9.66112 8.27526 9.65308 8.38125C9.65308 8.53636 9.74563 8.64569 9.86376 8.78499C10.0524 9.00753 10.306 9.30667 10.3518 9.99066V12.4298C10.3518 12.9628 10.2533 13.0571 10.0276 13.0571C9.4394 13.0571 7.98921 10.9977 7.13925 8.62905C6.96282 8.19146 6.80074 8.00165 6.35056 8.00165H4.60024C4.09965 8.00165 4 8.22669 4 8.4756C4.45737 10.4852 5.40359 12.3662 6.76352 13.9687C7.33636 14.8383 8.11919 15.5665 9.04754 16.0936C9.97589 16.6207 11.0232 16.9311 12.1033 16.9999C13.2161 16.9999 13.3542 16.7635 13.3542 16.36V14.8688C13.3542 14.3949 13.4538 14.3006 13.8164 14.3006C14.0793 14.3006 14.5174 14.4188 15.5547 15.3655C15.9101 15.7022 16.1772 15.9835 16.3945 16.2127C16.9039 16.7493 17.1407 16.9988 17.6051 16.9988Z" fill="#F2F5FA"/>
</svg>
