<svg width="27" height="27" viewBox="0 0 27 27" fill="none" xmlns="http://www.w3.org/2000/svg">
<path d="M13.5012 2.25C19.7146 2.25 24.7512 7.28663 24.7512 13.5C24.7512 19.7134 19.7146 24.75 13.5012 24.75C11.5131 24.7532 9.55998 24.2271 7.84249 23.2256L2.25574 24.75L3.77674 19.161C2.77447 17.443 2.24792 15.489 2.25124 13.5C2.25124 7.28663 7.28786 2.25 13.5012 2.25ZM9.66724 8.2125L9.44224 8.2215C9.29657 8.23037 9.15421 8.26864 9.02374 8.334C8.9017 8.40311 8.7903 8.4895 8.69299 8.5905C8.55799 8.71763 8.48149 8.82788 8.39936 8.93475C7.98325 9.47577 7.75921 10.14 7.76261 10.8225C7.76486 11.3737 7.90886 11.9104 8.13386 12.4121C8.59399 13.4269 9.35111 14.5012 10.3501 15.4969C10.5909 15.7365 10.8271 15.9773 11.0814 16.2011C12.3227 17.294 13.8019 18.0822 15.4014 18.5029L16.0404 18.6007C16.2485 18.612 16.4566 18.5963 16.6659 18.5861C16.9935 18.5692 17.3134 18.4805 17.603 18.3263C17.7503 18.2504 17.8941 18.1678 18.0339 18.0787C18.0339 18.0787 18.0822 18.0472 18.1745 17.9775C18.3264 17.865 18.4197 17.7851 18.5457 17.6535C18.6391 17.5568 18.7201 17.4431 18.782 17.3138C18.8697 17.1304 18.9575 16.7805 18.9935 16.4891C19.0205 16.2664 19.0126 16.1449 19.0092 16.0695C19.0047 15.9491 18.9046 15.8243 18.7955 15.7714L18.1407 15.4778C18.1407 15.4778 17.162 15.0514 16.5635 14.7791C16.5009 14.7518 16.4338 14.7361 16.3655 14.733C16.2885 14.7251 16.2107 14.7338 16.1374 14.7584C16.064 14.783 15.9968 14.8231 15.9402 14.8759C15.9346 14.8736 15.8592 14.9377 15.0459 15.9233C14.9992 15.986 14.9349 16.0334 14.8611 16.0594C14.7874 16.0855 14.7076 16.089 14.6319 16.0695C14.5586 16.0498 14.4868 16.025 14.417 15.9953C14.2775 15.9368 14.2291 15.9142 14.1335 15.8737C13.4878 15.592 12.89 15.2113 12.3616 14.7454C12.2199 14.6216 12.0882 14.4866 11.9532 14.3561C11.5106 13.9323 11.1249 13.4528 10.8057 12.9296L10.7394 12.8228C10.6917 12.7509 10.6531 12.6735 10.6246 12.5921C10.5819 12.4268 10.6932 12.294 10.6932 12.294C10.6932 12.294 10.9666 11.9948 11.0937 11.8327C11.2175 11.6753 11.3221 11.5223 11.3896 11.4131C11.5224 11.1994 11.564 10.98 11.4942 10.8101C11.1792 10.0406 10.853 9.2745 10.5177 8.514C10.4514 8.36325 10.2545 8.25525 10.0756 8.23387C10.0149 8.22712 9.95411 8.22038 9.89336 8.21588C9.74228 8.20837 9.59089 8.20987 9.43999 8.22038L9.66611 8.21137L9.66724 8.2125Z" fill="#6951AB"/>
</svg>
