<svg width="25" height="25" viewBox="0 0 25 25" fill="none" xmlns="http://www.w3.org/2000/svg">
<circle cx="12.5" cy="12.5" r="12.5" fill="#3F8B8B"/>
<path d="M11 14.8571L14.8925 12.5L11 10.1429V14.8571ZM19.67 8.705C19.7675 9.07429 19.835 9.56929 19.88 10.1979C19.9325 10.8264 19.955 11.3686 19.955 11.84L20 12.5C20 14.2207 19.88 15.4857 19.67 16.295C19.4825 17.0021 19.0475 17.4579 18.3725 17.6543C18.02 17.7564 17.375 17.8271 16.385 17.8743C15.41 17.9293 14.5175 17.9529 13.6925 17.9529L12.5 18C9.3575 18 7.4 17.8743 6.6275 17.6543C5.9525 17.4579 5.5175 17.0021 5.33 16.295C5.2325 15.9257 5.165 15.4307 5.12 14.8021C5.0675 14.1736 5.045 13.6314 5.045 13.16L5 12.5C5 10.7793 5.12 9.51429 5.33 8.705C5.5175 7.99786 5.9525 7.54214 6.6275 7.34571C6.98 7.24357 7.625 7.17286 8.615 7.12571C9.59 7.07071 10.4825 7.04714 11.3075 7.04714L12.5 7C15.6425 7 17.6 7.12571 18.3725 7.34571C19.0475 7.54214 19.4825 7.99786 19.67 8.705Z" fill="#F2F5FA"/>
</svg>
