<svg width="18" height="24" viewBox="0 0 18 24" fill="none" xmlns="http://www.w3.org/2000/svg">
<path d="M1.5 21V6H16.5V21C16.5 22.6875 15.1406 24 13.5 24H4.5C2.8125 24 1.5 22.6875 1.5 21ZM4.5 14.25V15.75C4.5 16.1719 4.82812 16.5 5.25 16.5H7.5V18.75C7.5 19.1719 7.82812 19.5 8.25 19.5H9.75C10.125 19.5 10.5 19.1719 10.5 18.75V16.5H12.75C13.125 16.5 13.5 16.1719 13.5 15.75V14.25C13.5 13.875 13.125 13.5 12.75 13.5H10.5V11.25C10.5 10.875 10.125 10.5 9.75 10.5H8.25C7.82812 10.5 7.5 10.875 7.5 11.25V13.5H5.25C4.82812 13.5 4.5 13.875 4.5 14.25ZM16.875 0C17.4844 0 18 0.515625 18 1.125V3.375C18 4.03125 17.4844 4.5 16.875 4.5H1.125C0.46875 4.5 0 4.03125 0 3.375V1.125C0 0.515625 0.46875 0 1.125 0H16.875Z" fill="#6456A9"/>
</svg>
