<svg width="20" height="22" viewBox="0 0 20 22" fill="none" xmlns="http://www.w3.org/2000/svg">
<path d="M17.9688 8.98438C17.0312 10.2969 16.6562 11.7969 16.4688 13.3906C16.3281 15.3594 16.0938 17.2812 15.6719 19.1562L15.3438 20.5625C15.2031 21.125 14.6875 21.5 14.125 21.5C13.5625 21.5 13.0938 21.125 12.9531 20.5625L11.5938 14.8906C11.4062 14.1406 10.75 13.625 10 13.625C9.20312 13.625 8.54688 14.1406 8.35938 14.8906L7 20.5625C6.85938 21.125 6.34375 21.5469 5.82812 21.5469C5.21875 21.5469 4.75 21.125 4.60938 20.5625L4.28125 19.1562C3.85938 17.2812 3.625 15.3594 3.48438 13.3906C3.29688 11.7969 2.92188 10.2969 1.98438 8.98438C1.14062 7.76562 0.71875 6.17188 1.14062 4.48438C1.5625 2.60938 3.01562 1.10938 4.84375 0.640625C5.78125 0.359375 6.67188 0.59375 7.51562 1.0625L11.5469 3.6875C11.875 3.92188 12.25 3.78125 12.4375 3.5C12.625 3.21875 12.5312 2.79688 12.25 2.60938L11.125 1.85938C11.2656 1.76562 11.4062 1.71875 11.5469 1.625C12.5781 0.828125 13.8438 0.265625 15.1094 0.640625C16.9375 1.10938 18.3906 2.60938 18.8125 4.48438C19.2344 6.17188 18.8125 7.76562 17.9688 8.98438Z" fill="#6456A9"/>
</svg>
