<svg width="32" height="25" viewBox="0 0 32 25" fill="none" xmlns="http://www.w3.org/2000/svg">
<path d="M8.45312 10C12.2969 10 15.3906 12.7656 15.9531 16.3281C16 16.5625 15.8125 16.75 15.5781 16.75H1.375C1.14062 16.75 0.953125 16.5625 0.953125 16.2812C1.51562 12.7188 4.65625 10 8.45312 10ZM15.5781 18.25C15.8125 18.25 16 18.4844 15.9062 18.7188C15.3438 22.2812 12.2031 25 8.45312 25C4.65625 25 1.5625 22.2812 1 18.7188C0.953125 18.4844 1.14062 18.25 1.375 18.25H15.5781ZM17.9688 4.09375L27.8594 14.0312C28 14.1719 28 14.4531 27.8125 14.5938C24.9062 16.7031 20.8281 16.4688 18.1562 13.8438C15.5312 11.1719 15.2969 7.09375 17.4062 4.14062C17.5469 3.95312 17.8281 3.95312 17.9688 4.09375ZM28.7969 3.20312C31.4219 5.875 31.6562 9.95312 29.5938 12.9062C29.4531 13.0938 29.1719 13.0938 28.9844 12.9531L19.0938 3.01562C18.9531 2.875 18.9531 2.59375 19.1406 2.45312C22.0469 0.34375 26.125 0.578125 28.7969 3.20312Z" fill="#6456A9"/>
</svg>
