<svg width="22" height="24" viewBox="0 0 22 24" fill="none" xmlns="http://www.w3.org/2000/svg">
<path d="M21.5 15.75C21.5 16.4531 21.1719 17.0156 20.75 17.4844V21.2812C21.1719 21.5625 21.5 22.0312 21.5 22.5469C21.5 23.3438 20.7969 24 20 24H5C2.46875 24 0.5 22.0312 0.5 19.5V4.5C0.5 2.01562 2.46875 0 5 0H19.25C20.4688 0 21.5 1.03125 21.5 2.25V15.75ZM6.5 7.78125V10.2188C6.5 10.6406 6.82812 10.9688 7.25 10.9688H9.78125V13.5C9.78125 13.9219 10.1094 14.25 10.5312 14.25H12.9688C13.3438 14.25 13.7188 13.9219 13.7188 13.5V10.9688H16.25C16.625 10.9688 17 10.6406 17 10.2188V7.78125C17 7.40625 16.625 7.03125 16.25 7.03125H13.6719V4.5C13.6719 4.125 13.2969 3.75 12.9219 3.75H10.4844C10.0625 3.75 9.73438 4.125 9.73438 4.5V7.03125H7.25C6.82812 7.03125 6.5 7.40625 6.5 7.78125ZM18.5 21V18H5C4.15625 18 3.5 18.7031 3.5 19.5C3.5 20.3438 4.15625 21 5 21H18.5Z" fill="#6456A9"/>
</svg>
