<svg width="26" height="25" viewBox="0 0 26 25" fill="none" xmlns="http://www.w3.org/2000/svg">
<path d="M24.625 4.375C25.0938 4.79688 25.0938 5.5 24.625 5.92188C24.4375 6.15625 24.1562 6.25 23.875 6.25C23.5469 6.25 23.2656 6.15625 23.0781 5.92188L22.375 5.21875L20.5469 7L23.125 9.625C23.5938 10.0469 23.5938 10.75 23.125 11.1719C22.9375 11.4062 22.6562 11.5 22.375 11.5C22.1406 11.5 21.9062 11.4531 21.7188 11.2656L14.6875 4.28125C14.4062 3.85938 14.4062 3.25 14.8281 2.875C15.25 2.40625 15.9531 2.40625 16.375 2.875L19 5.45312L20.7812 3.625L20.0312 2.92188C19.5625 2.5 19.5625 1.79688 20.0312 1.375C20.4531 0.90625 21.1562 0.90625 21.625 1.375L24.625 4.375ZM10.75 8.26562L13.6562 5.35938L20.6406 12.3438L11.8281 21.1562C11.2656 21.7188 10.5156 22 9.71875 22H5.54688L2.875 24.6719C2.6875 24.9062 2.40625 25 2.125 25C1.79688 25 1.51562 24.9062 1.32812 24.6719C0.859375 24.25 0.859375 23.5469 1.32812 23.125L4 20.4531V16.2812C4 15.4844 4.28125 14.7344 4.84375 14.1719L6.71875 12.2969L9.4375 15.0625C9.57812 15.2031 9.76562 15.25 10 15.25C10.1875 15.25 10.375 15.2031 10.5156 15.0625C10.7969 14.7812 10.7969 14.2656 10.5156 13.9844L7.75 11.2656L9.71875 9.29688L12.4375 12.0625C12.5781 12.2031 12.7656 12.25 13 12.25C13.1875 12.25 13.375 12.2031 13.5156 12.0625C13.7969 11.7812 13.7969 11.2656 13.5156 10.9844L10.75 8.26562Z" fill="#6456A9"/>
</svg>
