<svg width="32" height="26" viewBox="0 0 32 26" fill="none" xmlns="http://www.w3.org/2000/svg">
<path d="M30.3906 11.6875L29.8281 11.8281C29.875 12.6719 29.7344 13.1875 29.4531 14.1719L29.9219 14.3125C30.3906 14.4531 30.5781 14.9219 30.4375 15.3906C30.2969 15.8125 29.8281 16.0469 29.4062 15.9062L28.8906 15.7188C28.6094 16.4219 28.2344 17.125 27.8125 17.7812L28.2344 18.0625C28.6094 18.3906 28.7031 18.8594 28.4219 19.2344C28.1406 19.6094 27.625 19.7031 27.25 19.4219L26.8281 19.1406C26.3594 19.7031 25.7969 20.2656 25.1875 20.7812L25.5156 21.2031C25.7969 21.5312 25.7031 22.0469 25.3281 22.3281C24.9531 22.6094 24.4375 22.5625 24.1562 22.1875L23.875 21.7656C23.2188 22.1875 22.5156 22.5625 21.8125 22.8906L21.9531 23.3594C22.1406 23.7812 21.9062 24.25 21.4844 24.3906C21.0156 24.5781 20.5469 24.3438 20.4062 23.9219L20.2188 23.4531C19.75 23.5938 19.2344 23.7344 18.6719 23.8281C18.4375 23.875 18.1562 23.9219 17.9219 23.875L17.7812 24.3906C17.6406 24.8594 17.2188 25.0938 16.75 25C16.3281 24.8594 16.0469 24.4375 16.1406 23.9688L16.2812 23.4531C15.5781 23.125 14.9688 22.5156 14.5938 21.8125L14.0312 21.9531C13.6094 22.0938 13.1406 21.8594 13 21.3906C12.8594 20.9688 13.1406 20.5 13.5625 20.3594L14.125 20.2188C14.0781 19.375 14.2656 18.625 14.6875 17.9688L14.2188 17.5469C13.8906 17.2188 13.8438 16.7031 14.1719 16.375C14.5 16 15.0156 16 15.3438 16.3281L15.8125 16.75C16.6562 16.1406 17.2188 16.1406 17.9688 15.9531L17.7812 15.4844C17.5938 15.1094 17.7812 14.5938 18.2031 14.4062C18.625 14.2188 19.1406 14.4062 19.3281 14.8281L19.5156 15.25C19.5156 15.25 20.4062 14.6875 21.1094 13.6562L20.7344 13.4688C20.3125 13.2812 20.125 12.7656 20.3125 12.3906C20.4531 12.0625 20.7344 11.875 21.0625 11.875C21.2969 11.875 21.4844 12.0156 21.8594 12.1562C22.0938 11.3125 22.0469 10.8906 22.6094 10L22.1875 9.53125C21.8594 9.20312 21.8594 8.6875 22.1875 8.35938C22.6562 7.9375 23.1719 8.21875 23.3594 8.40625L23.7812 8.78125C24.8125 8.125 25.7031 8.125 26.0781 8.17188L26.1719 7.65625C26.2656 7.28125 26.6406 7 27.0156 7C27.7188 7 27.9062 7.70312 27.8125 8.07812L27.6719 8.59375C28.4219 8.96875 28.9844 9.53125 29.3594 10.2344L29.9219 10.0938C30.2969 9.95312 30.8125 10.1875 30.9531 10.6562C31.0938 11.0781 30.8125 11.5469 30.3906 11.6875ZM20.5 20.5C21.2969 20.5 22 19.8438 22 19C22 18.2031 21.2969 17.5 20.5 17.5C19.6562 17.5 19 18.2031 19 19C19 19.8438 19.6562 20.5 20.5 20.5ZM13.75 11.6406C13.3281 11.8281 12.8125 11.6406 12.625 11.2188L12.4375 10.7969C12.4375 10.7969 11.5469 11.3594 10.8438 12.3906L11.2188 12.5781C11.6406 12.7656 11.8281 13.2812 11.6406 13.6562C11.5 13.9844 11.2188 14.1719 10.8906 14.1719C10.6562 14.1719 10.4688 14.0781 10.0938 13.8906C9.85938 14.7344 9.90625 15.2031 9.34375 16.0469L9.76562 16.5156C10.0938 16.8438 10.0938 17.3594 9.76562 17.6875C9.29688 18.1094 8.78125 17.8281 8.59375 17.6406L8.17188 17.2656C7.14062 17.9219 6.25 17.9219 5.92188 17.875L5.78125 18.3906C5.6875 18.7656 5.3125 19 4.9375 19C4.23438 19 4.04688 18.2969 4.14062 17.9688L4.28125 17.4531C3.53125 17.0781 2.96875 16.5156 2.59375 15.8125L2.03125 15.9531C1.65625 16.0938 1.14062 15.8594 1 15.3906C0.859375 14.9688 1.14062 14.5 1.5625 14.3594L2.125 14.2188C2.07812 13.375 2.21875 12.8594 2.5 11.875L2.03125 11.7344C1.60938 11.5938 1.375 11.125 1.51562 10.6562C1.65625 10.2344 2.125 10 2.54688 10.1406L3.0625 10.3281C3.34375 9.625 3.71875 8.92188 4.14062 8.26562L3.71875 7.98438C3.34375 7.70312 3.25 7.1875 3.53125 6.8125C3.8125 6.4375 4.32812 6.34375 4.70312 6.625L5.125 6.90625C5.59375 6.34375 6.15625 5.78125 6.76562 5.26562L6.4375 4.84375C6.15625 4.51562 6.25 4 6.625 3.71875C7 3.4375 7.51562 3.48438 7.79688 3.85938L8.07812 4.28125C8.73438 3.85938 9.4375 3.48438 10.1406 3.15625L10 2.6875C9.8125 2.26562 10.0469 1.79688 10.4688 1.65625C10.9375 1.46875 11.4062 1.70312 11.5469 2.125L11.7344 2.59375C12.2031 2.45312 12.7188 2.3125 13.2812 2.21875C13.5156 2.17188 13.7969 2.125 14.0312 2.17188L14.1719 1.65625C14.3125 1.1875 14.7344 0.953125 15.2031 1.04688C15.6719 1.1875 15.9062 1.60938 15.8125 2.07812L15.6719 2.59375C16.375 2.92188 16.9844 3.53125 17.3594 4.23438L17.9219 4.09375C18.3438 3.95312 18.8125 4.1875 18.9531 4.65625C19.0938 5.07812 18.8125 5.54688 18.3906 5.6875L17.8281 5.82812C17.875 6.67188 17.6875 7.42188 17.2656 8.07812L17.7344 8.5C18.0625 8.82812 18.1094 9.34375 17.7812 9.67188C17.4531 10.0469 16.9375 10.0469 16.6094 9.71875L16.1406 9.29688C15.2969 9.90625 14.7344 9.90625 13.9844 10.0938L14.1719 10.5625C14.3594 10.9375 14.1719 11.4531 13.75 11.6406ZM7 13C7.79688 13 8.5 12.3438 8.5 11.5C8.5 10.6562 7.79688 10 7 10C6.15625 10 5.5 10.6562 5.5 11.5C5.5 12.3438 6.15625 13 7 13ZM10.75 8.5C11.125 8.5 11.5 8.17188 11.5 7.75C11.5 7.375 11.125 7 10.75 7C10.3281 7 10 7.375 10 7.75C10 8.17188 10.3281 8.5 10.75 8.5Z" fill="#6456A9"/>
</svg>
